G04 #@! TF.GenerationSoftware,KiCad,Pcbnew,5.1.2-f72e74a~84~ubuntu18.04.1*
G04 #@! TF.CreationDate,2019-05-18T13:16:44+02:00*
G04 #@! TF.ProjectId,lpf,6c70662e-6b69-4636-9164-5f7063625858,0.1*
G04 #@! TF.SameCoordinates,Original*
G04 #@! TF.FileFunction,Legend,Top*
G04 #@! TF.FilePolarity,Positive*
%FSLAX46Y46*%
G04 Gerber Fmt 4.6, Leading zero omitted, Abs format (unit mm)*
G04 Created by KiCad (PCBNEW 5.1.2-f72e74a~84~ubuntu18.04.1) date 2019-05-18 13:16:44*
%MOMM*%
%LPD*%
G04 APERTURE LIST*
%ADD10C,0.150000*%
%ADD11C,0.120000*%
G04 APERTURE END LIST*
D10*
X149093095Y-94144428D02*
X149855000Y-94144428D01*
X149474047Y-94525380D02*
X149474047Y-93763476D01*
X150855000Y-94525380D02*
X150283571Y-94525380D01*
X150569285Y-94525380D02*
X150569285Y-93525380D01*
X150474047Y-93668238D01*
X150378809Y-93763476D01*
X150283571Y-93811095D01*
X151235952Y-93620619D02*
X151283571Y-93573000D01*
X151378809Y-93525380D01*
X151616904Y-93525380D01*
X151712142Y-93573000D01*
X151759761Y-93620619D01*
X151807380Y-93715857D01*
X151807380Y-93811095D01*
X151759761Y-93953952D01*
X151188333Y-94525380D01*
X151807380Y-94525380D01*
X152093095Y-93525380D02*
X152426428Y-94525380D01*
X152759761Y-93525380D01*
X149093095Y-109496928D02*
X149855000Y-109496928D01*
X150855000Y-109877880D02*
X150283571Y-109877880D01*
X150569285Y-109877880D02*
X150569285Y-108877880D01*
X150474047Y-109020738D01*
X150378809Y-109115976D01*
X150283571Y-109163595D01*
X151235952Y-108973119D02*
X151283571Y-108925500D01*
X151378809Y-108877880D01*
X151616904Y-108877880D01*
X151712142Y-108925500D01*
X151759761Y-108973119D01*
X151807380Y-109068357D01*
X151807380Y-109163595D01*
X151759761Y-109306452D01*
X151188333Y-109877880D01*
X151807380Y-109877880D01*
X152093095Y-108877880D02*
X152426428Y-109877880D01*
X152759761Y-108877880D01*
D11*
X153830000Y-126810000D02*
G75*
G02X153830000Y-124810000I0J1000000D01*
G01*
X153830000Y-124810000D02*
X153830000Y-123160000D01*
X153830000Y-123160000D02*
X133390000Y-123160000D01*
X133390000Y-123160000D02*
X133390000Y-128460000D01*
X133390000Y-128460000D02*
X153830000Y-128460000D01*
X153830000Y-128460000D02*
X153830000Y-126810000D01*
X125680000Y-111720000D02*
X121680000Y-111720000D01*
X125680000Y-113620000D02*
X125680000Y-111720000D01*
X139920000Y-113620000D02*
X125680000Y-113620000D01*
X139920000Y-105180000D02*
X139920000Y-113620000D01*
X125680000Y-105180000D02*
X139920000Y-105180000D01*
X125680000Y-105480000D02*
X125680000Y-105180000D01*
X121680000Y-105480000D02*
X125680000Y-105480000D01*
X121680000Y-111720000D02*
X121680000Y-105480000D01*
X125680000Y-58720000D02*
X121680000Y-58720000D01*
X125680000Y-60620000D02*
X125680000Y-58720000D01*
X139920000Y-60620000D02*
X125680000Y-60620000D01*
X139920000Y-52180000D02*
X139920000Y-60620000D01*
X125680000Y-52180000D02*
X139920000Y-52180000D01*
X125680000Y-52480000D02*
X125680000Y-52180000D01*
X121680000Y-52480000D02*
X125680000Y-52480000D01*
X121680000Y-58720000D02*
X121680000Y-52480000D01*
X125780000Y-101720000D02*
X121780000Y-101720000D01*
X125780000Y-103620000D02*
X125780000Y-101720000D01*
X140020000Y-103620000D02*
X125780000Y-103620000D01*
X140020000Y-95180000D02*
X140020000Y-103620000D01*
X125780000Y-95180000D02*
X140020000Y-95180000D01*
X125780000Y-95480000D02*
X125780000Y-95180000D01*
X121780000Y-95480000D02*
X125780000Y-95480000D01*
X121780000Y-101720000D02*
X121780000Y-95480000D01*
X143420000Y-118379000D02*
X143420000Y-117121000D01*
X141580000Y-118379000D02*
X141580000Y-117121000D01*
X143420000Y-133121000D02*
X143420000Y-134379000D01*
X141580000Y-133121000D02*
X141580000Y-134379000D01*
X150621000Y-66080000D02*
X151879000Y-66080000D01*
X150621000Y-67920000D02*
X151879000Y-67920000D01*
X134121000Y-49420000D02*
X135379000Y-49420000D01*
X134121000Y-47580000D02*
X135379000Y-47580000D01*
X135379000Y-44420000D02*
X134121000Y-44420000D01*
X135379000Y-42580000D02*
X134121000Y-42580000D01*
X121930000Y-82330000D02*
G75*
G02X121930000Y-79210000I0J1560000D01*
G01*
X125790000Y-79210000D02*
X121930000Y-79210000D01*
X125790000Y-82330000D02*
X121930000Y-82330000D01*
X125790000Y-79210000D02*
X125790000Y-82330000D01*
X125790000Y-82730000D02*
X124670000Y-82730000D01*
X124670000Y-82730000D02*
X124670000Y-82330000D01*
X124670000Y-82330000D02*
X125790000Y-82330000D01*
X125790000Y-82330000D02*
X125790000Y-82730000D01*
X125920000Y-79500000D02*
X125790000Y-79500000D01*
X125790000Y-79500000D02*
X125790000Y-79500000D01*
X125790000Y-79500000D02*
X125920000Y-79500000D01*
X125920000Y-79500000D02*
X125920000Y-79500000D01*
X125920000Y-82040000D02*
X125790000Y-82040000D01*
X125790000Y-82040000D02*
X125790000Y-82040000D01*
X125790000Y-82040000D02*
X125920000Y-82040000D01*
X125920000Y-82040000D02*
X125920000Y-82040000D01*
X125920000Y-65540000D02*
X125920000Y-65540000D01*
X125790000Y-65540000D02*
X125920000Y-65540000D01*
X125790000Y-65540000D02*
X125790000Y-65540000D01*
X125920000Y-65540000D02*
X125790000Y-65540000D01*
X125920000Y-63000000D02*
X125920000Y-63000000D01*
X125790000Y-63000000D02*
X125920000Y-63000000D01*
X125790000Y-63000000D02*
X125790000Y-63000000D01*
X125920000Y-63000000D02*
X125790000Y-63000000D01*
X125790000Y-65830000D02*
X125790000Y-66230000D01*
X124670000Y-65830000D02*
X125790000Y-65830000D01*
X124670000Y-66230000D02*
X124670000Y-65830000D01*
X125790000Y-66230000D02*
X124670000Y-66230000D01*
X125790000Y-62710000D02*
X125790000Y-65830000D01*
X125790000Y-65830000D02*
X121930000Y-65830000D01*
X125790000Y-62710000D02*
X121930000Y-62710000D01*
X121930000Y-65830000D02*
G75*
G02X121930000Y-62710000I0J1560000D01*
G01*
X146970000Y-54850000D02*
X150570000Y-54850000D01*
X146931522Y-54838478D02*
G75*
G02X148770000Y-50400000I1838478J1838478D01*
G01*
X150608478Y-54838478D02*
G75*
G03X148770000Y-50400000I-1838478J1838478D01*
G01*
X150608478Y-61338478D02*
G75*
G03X148770000Y-56900000I-1838478J1838478D01*
G01*
X146931522Y-61338478D02*
G75*
G02X148770000Y-56900000I1838478J1838478D01*
G01*
X146970000Y-61350000D02*
X150570000Y-61350000D01*
X134460000Y-62080000D02*
X130620000Y-62080000D01*
X134460000Y-63920000D02*
X130620000Y-63920000D01*
X148420000Y-133120000D02*
X148420000Y-136960000D01*
X146580000Y-133120000D02*
X146580000Y-136960000D01*
X149080000Y-136960000D02*
X149080000Y-133120000D01*
X150920000Y-136960000D02*
X150920000Y-133120000D01*
X145920000Y-118380000D02*
X145920000Y-114540000D01*
X144080000Y-118380000D02*
X144080000Y-114540000D01*
X138420000Y-133040000D02*
X138420000Y-136880000D01*
X136580000Y-133040000D02*
X136580000Y-136880000D01*
X135920000Y-136960000D02*
X135920000Y-133120000D01*
X134080000Y-136960000D02*
X134080000Y-133120000D01*
X146580000Y-118380000D02*
X146580000Y-114540000D01*
X148420000Y-118380000D02*
X148420000Y-114540000D01*
X144080000Y-133120000D02*
X144080000Y-136960000D01*
X145920000Y-133120000D02*
X145920000Y-136960000D01*
X139080000Y-136880000D02*
X139080000Y-133040000D01*
X140920000Y-136880000D02*
X140920000Y-133040000D01*
X153420000Y-114620000D02*
X153420000Y-118460000D01*
X151580000Y-114620000D02*
X151580000Y-118460000D01*
X135540000Y-119920000D02*
X139380000Y-119920000D01*
X135540000Y-118080000D02*
X139380000Y-118080000D01*
X139040000Y-42580000D02*
X142880000Y-42580000D01*
X139040000Y-44420000D02*
X142880000Y-44420000D01*
X153420000Y-136880000D02*
X153420000Y-133040000D01*
X151580000Y-136880000D02*
X151580000Y-133040000D01*
X134080000Y-81120000D02*
X134080000Y-84960000D01*
X135920000Y-81120000D02*
X135920000Y-84960000D01*
X135920000Y-76880000D02*
X135920000Y-73040000D01*
X134080000Y-76880000D02*
X134080000Y-73040000D01*
X134120000Y-45080000D02*
X137960000Y-45080000D01*
X134120000Y-46920000D02*
X137960000Y-46920000D01*
X131571000Y-93870000D02*
X125930000Y-93870000D01*
X131571000Y-84130000D02*
X125930000Y-84130000D01*
X131571000Y-93870000D02*
X131571000Y-84130000D01*
X125930000Y-93870000D02*
X125930000Y-84130000D01*
X125930000Y-92620000D02*
X120930000Y-92620000D01*
X125930000Y-85380000D02*
X120930000Y-85380000D01*
X125930000Y-92620000D02*
X125930000Y-85380000D01*
X120930000Y-92620000D02*
X120930000Y-85380000D01*
X120930000Y-91620000D02*
X113930000Y-91620000D01*
X120930000Y-86380000D02*
X113930000Y-86380000D01*
X120930000Y-91620000D02*
X120930000Y-86380000D01*
X113930000Y-91620000D02*
X113930000Y-86380000D01*
X113930000Y-75120000D02*
X113930000Y-69880000D01*
X120930000Y-75120000D02*
X120930000Y-69880000D01*
X120930000Y-69880000D02*
X113930000Y-69880000D01*
X120930000Y-75120000D02*
X113930000Y-75120000D01*
X120930000Y-76120000D02*
X120930000Y-68880000D01*
X125930000Y-76120000D02*
X125930000Y-68880000D01*
X125930000Y-68880000D02*
X120930000Y-68880000D01*
X125930000Y-76120000D02*
X120930000Y-76120000D01*
X125930000Y-77370000D02*
X125930000Y-67630000D01*
X131571000Y-77370000D02*
X131571000Y-67630000D01*
X131571000Y-67630000D02*
X125930000Y-67630000D01*
X131571000Y-77370000D02*
X125930000Y-77370000D01*
X131571000Y-50870000D02*
X125930000Y-50870000D01*
X131571000Y-41130000D02*
X125930000Y-41130000D01*
X131571000Y-50870000D02*
X131571000Y-41130000D01*
X125930000Y-50870000D02*
X125930000Y-41130000D01*
X125930000Y-49620000D02*
X120930000Y-49620000D01*
X125930000Y-42380000D02*
X120930000Y-42380000D01*
X125930000Y-49620000D02*
X125930000Y-42380000D01*
X120930000Y-49620000D02*
X120930000Y-42380000D01*
X120930000Y-48620000D02*
X113930000Y-48620000D01*
X120930000Y-43380000D02*
X113930000Y-43380000D01*
X120930000Y-48620000D02*
X120930000Y-43380000D01*
X113930000Y-48620000D02*
X113930000Y-43380000D01*
X149690000Y-68970000D02*
G75*
G02X147690000Y-68970000I-1000000J0D01*
G01*
X147690000Y-68970000D02*
X146040000Y-68970000D01*
X146040000Y-68970000D02*
X146040000Y-86870000D01*
X146040000Y-86870000D02*
X151340000Y-86870000D01*
X151340000Y-86870000D02*
X151340000Y-68970000D01*
X151340000Y-68970000D02*
X149690000Y-68970000D01*
X147923000Y-108055000D02*
X153123000Y-108055000D01*
X147923000Y-97835000D02*
X147923000Y-108055000D01*
X153123000Y-95235000D02*
X153123000Y-108055000D01*
X147923000Y-97835000D02*
X150523000Y-97835000D01*
X150523000Y-97835000D02*
X150523000Y-95235000D01*
X150523000Y-95235000D02*
X153123000Y-95235000D01*
X147923000Y-96565000D02*
X147923000Y-95235000D01*
X147923000Y-95235000D02*
X149253000Y-95235000D01*
D10*
X143009380Y-126518904D02*
X143818904Y-126518904D01*
X143914142Y-126471285D01*
X143961761Y-126423666D01*
X144009380Y-126328428D01*
X144009380Y-126137952D01*
X143961761Y-126042714D01*
X143914142Y-125995095D01*
X143818904Y-125947476D01*
X143009380Y-125947476D01*
X143104619Y-125518904D02*
X143057000Y-125471285D01*
X143009380Y-125376047D01*
X143009380Y-125137952D01*
X143057000Y-125042714D01*
X143104619Y-124995095D01*
X143199857Y-124947476D01*
X143295095Y-124947476D01*
X143437952Y-124995095D01*
X144009380Y-125566523D01*
X144009380Y-124947476D01*
X133951452Y-111725880D02*
X133951452Y-112440166D01*
X133903833Y-112583023D01*
X133808595Y-112678261D01*
X133665738Y-112725880D01*
X133570500Y-112725880D01*
X134332404Y-111725880D02*
X134951452Y-111725880D01*
X134618119Y-112106833D01*
X134760976Y-112106833D01*
X134856214Y-112154452D01*
X134903833Y-112202071D01*
X134951452Y-112297309D01*
X134951452Y-112535404D01*
X134903833Y-112630642D01*
X134856214Y-112678261D01*
X134760976Y-112725880D01*
X134475261Y-112725880D01*
X134380023Y-112678261D01*
X134332404Y-112630642D01*
X135141928Y-112821119D02*
X135903833Y-112821119D01*
X136332404Y-111725880D02*
X136522880Y-111725880D01*
X136618119Y-111773500D01*
X136713357Y-111868738D01*
X136760976Y-112059214D01*
X136760976Y-112392547D01*
X136713357Y-112583023D01*
X136618119Y-112678261D01*
X136522880Y-112725880D01*
X136332404Y-112725880D01*
X136237166Y-112678261D01*
X136141928Y-112583023D01*
X136094309Y-112392547D01*
X136094309Y-112059214D01*
X136141928Y-111868738D01*
X136237166Y-111773500D01*
X136332404Y-111725880D01*
X137189547Y-111725880D02*
X137189547Y-112535404D01*
X137237166Y-112630642D01*
X137284785Y-112678261D01*
X137380023Y-112725880D01*
X137570500Y-112725880D01*
X137665738Y-112678261D01*
X137713357Y-112630642D01*
X137760976Y-112535404D01*
X137760976Y-111725880D01*
X138094309Y-111725880D02*
X138665738Y-111725880D01*
X138380023Y-112725880D02*
X138380023Y-111725880D01*
X139522880Y-112725880D02*
X138951452Y-112725880D01*
X139237166Y-112725880D02*
X139237166Y-111725880D01*
X139141928Y-111868738D01*
X139046690Y-111963976D01*
X138951452Y-112011595D01*
X134629452Y-58726380D02*
X134629452Y-59440666D01*
X134581833Y-59583523D01*
X134486595Y-59678761D01*
X134343738Y-59726380D01*
X134248500Y-59726380D01*
X135058023Y-58821619D02*
X135105642Y-58774000D01*
X135200880Y-58726380D01*
X135438976Y-58726380D01*
X135534214Y-58774000D01*
X135581833Y-58821619D01*
X135629452Y-58916857D01*
X135629452Y-59012095D01*
X135581833Y-59154952D01*
X135010404Y-59726380D01*
X135629452Y-59726380D01*
X135819928Y-59821619D02*
X136581833Y-59821619D01*
X137391357Y-59631142D02*
X137343738Y-59678761D01*
X137200880Y-59726380D01*
X137105642Y-59726380D01*
X136962785Y-59678761D01*
X136867547Y-59583523D01*
X136819928Y-59488285D01*
X136772309Y-59297809D01*
X136772309Y-59154952D01*
X136819928Y-58964476D01*
X136867547Y-58869238D01*
X136962785Y-58774000D01*
X137105642Y-58726380D01*
X137200880Y-58726380D01*
X137343738Y-58774000D01*
X137391357Y-58821619D01*
X137677071Y-58726380D02*
X138010404Y-59726380D01*
X138343738Y-58726380D01*
X139200880Y-59726380D02*
X138629452Y-59726380D01*
X138915166Y-59726380D02*
X138915166Y-58726380D01*
X138819928Y-58869238D01*
X138724690Y-58964476D01*
X138629452Y-59012095D01*
X134573619Y-100244880D02*
X134573619Y-100959166D01*
X134526000Y-101102023D01*
X134430761Y-101197261D01*
X134287904Y-101244880D01*
X134192666Y-101244880D01*
X135573619Y-101244880D02*
X135002190Y-101244880D01*
X135287904Y-101244880D02*
X135287904Y-100244880D01*
X135192666Y-100387738D01*
X135097428Y-100482976D01*
X135002190Y-100530595D01*
X135764095Y-101340119D02*
X136526000Y-101340119D01*
X136764095Y-101244880D02*
X136764095Y-100244880D01*
X137240285Y-101244880D02*
X137240285Y-100244880D01*
X137811714Y-101244880D01*
X137811714Y-100244880D01*
X138811714Y-101244880D02*
X138240285Y-101244880D01*
X138526000Y-101244880D02*
X138526000Y-100244880D01*
X138430761Y-100387738D01*
X138335523Y-100482976D01*
X138240285Y-100530595D01*
X140807142Y-117916666D02*
X140854761Y-117964285D01*
X140902380Y-118107142D01*
X140902380Y-118202380D01*
X140854761Y-118345238D01*
X140759523Y-118440476D01*
X140664285Y-118488095D01*
X140473809Y-118535714D01*
X140330952Y-118535714D01*
X140140476Y-118488095D01*
X140045238Y-118440476D01*
X139950000Y-118345238D01*
X139902380Y-118202380D01*
X139902380Y-118107142D01*
X139950000Y-117964285D01*
X139997619Y-117916666D01*
X140902380Y-116964285D02*
X140902380Y-117535714D01*
X140902380Y-117250000D02*
X139902380Y-117250000D01*
X140045238Y-117345238D01*
X140140476Y-117440476D01*
X140188095Y-117535714D01*
X144907142Y-133916666D02*
X144954761Y-133964285D01*
X145002380Y-134107142D01*
X145002380Y-134202380D01*
X144954761Y-134345238D01*
X144859523Y-134440476D01*
X144764285Y-134488095D01*
X144573809Y-134535714D01*
X144430952Y-134535714D01*
X144240476Y-134488095D01*
X144145238Y-134440476D01*
X144050000Y-134345238D01*
X144002380Y-134202380D01*
X144002380Y-134107142D01*
X144050000Y-133964285D01*
X144097619Y-133916666D01*
X144097619Y-133535714D02*
X144050000Y-133488095D01*
X144002380Y-133392857D01*
X144002380Y-133154761D01*
X144050000Y-133059523D01*
X144097619Y-133011904D01*
X144192857Y-132964285D01*
X144288095Y-132964285D01*
X144430952Y-133011904D01*
X145002380Y-133583333D01*
X145002380Y-132964285D01*
X151083333Y-65307142D02*
X151035714Y-65354761D01*
X150892857Y-65402380D01*
X150797619Y-65402380D01*
X150654761Y-65354761D01*
X150559523Y-65259523D01*
X150511904Y-65164285D01*
X150464285Y-64973809D01*
X150464285Y-64830952D01*
X150511904Y-64640476D01*
X150559523Y-64545238D01*
X150654761Y-64450000D01*
X150797619Y-64402380D01*
X150892857Y-64402380D01*
X151035714Y-64450000D01*
X151083333Y-64497619D01*
X151416666Y-64402380D02*
X152035714Y-64402380D01*
X151702380Y-64783333D01*
X151845238Y-64783333D01*
X151940476Y-64830952D01*
X151988095Y-64878571D01*
X152035714Y-64973809D01*
X152035714Y-65211904D01*
X151988095Y-65307142D01*
X151940476Y-65354761D01*
X151845238Y-65402380D01*
X151559523Y-65402380D01*
X151464285Y-65354761D01*
X151416666Y-65307142D01*
X134583333Y-46807142D02*
X134535714Y-46854761D01*
X134392857Y-46902380D01*
X134297619Y-46902380D01*
X134154761Y-46854761D01*
X134059523Y-46759523D01*
X134011904Y-46664285D01*
X133964285Y-46473809D01*
X133964285Y-46330952D01*
X134011904Y-46140476D01*
X134059523Y-46045238D01*
X134154761Y-45950000D01*
X134297619Y-45902380D01*
X134392857Y-45902380D01*
X134535714Y-45950000D01*
X134583333Y-45997619D01*
X135440476Y-46235714D02*
X135440476Y-46902380D01*
X135202380Y-45854761D02*
X134964285Y-46569047D01*
X135583333Y-46569047D01*
X134583333Y-45907142D02*
X134535714Y-45954761D01*
X134392857Y-46002380D01*
X134297619Y-46002380D01*
X134154761Y-45954761D01*
X134059523Y-45859523D01*
X134011904Y-45764285D01*
X133964285Y-45573809D01*
X133964285Y-45430952D01*
X134011904Y-45240476D01*
X134059523Y-45145238D01*
X134154761Y-45050000D01*
X134297619Y-45002380D01*
X134392857Y-45002380D01*
X134535714Y-45050000D01*
X134583333Y-45097619D01*
X135488095Y-45002380D02*
X135011904Y-45002380D01*
X134964285Y-45478571D01*
X135011904Y-45430952D01*
X135107142Y-45383333D01*
X135345238Y-45383333D01*
X135440476Y-45430952D01*
X135488095Y-45478571D01*
X135535714Y-45573809D01*
X135535714Y-45811904D01*
X135488095Y-45907142D01*
X135440476Y-45954761D01*
X135345238Y-46002380D01*
X135107142Y-46002380D01*
X135011904Y-45954761D01*
X134964285Y-45907142D01*
X129412380Y-81508095D02*
X128412380Y-81508095D01*
X128412380Y-81270000D01*
X128460000Y-81127142D01*
X128555238Y-81031904D01*
X128650476Y-80984285D01*
X128840952Y-80936666D01*
X128983809Y-80936666D01*
X129174285Y-80984285D01*
X129269523Y-81031904D01*
X129364761Y-81127142D01*
X129412380Y-81270000D01*
X129412380Y-81508095D01*
X129412380Y-79984285D02*
X129412380Y-80555714D01*
X129412380Y-80270000D02*
X128412380Y-80270000D01*
X128555238Y-80365238D01*
X128650476Y-80460476D01*
X128698095Y-80555714D01*
X129412380Y-65008095D02*
X128412380Y-65008095D01*
X128412380Y-64770000D01*
X128460000Y-64627142D01*
X128555238Y-64531904D01*
X128650476Y-64484285D01*
X128840952Y-64436666D01*
X128983809Y-64436666D01*
X129174285Y-64484285D01*
X129269523Y-64531904D01*
X129364761Y-64627142D01*
X129412380Y-64770000D01*
X129412380Y-65008095D01*
X128507619Y-64055714D02*
X128460000Y-64008095D01*
X128412380Y-63912857D01*
X128412380Y-63674761D01*
X128460000Y-63579523D01*
X128507619Y-63531904D01*
X128602857Y-63484285D01*
X128698095Y-63484285D01*
X128840952Y-63531904D01*
X129412380Y-64103333D01*
X129412380Y-63484285D01*
X148674761Y-49987619D02*
X148579523Y-49940000D01*
X148484285Y-49844761D01*
X148341428Y-49701904D01*
X148246190Y-49654285D01*
X148150952Y-49654285D01*
X148198571Y-49892380D02*
X148103333Y-49844761D01*
X148008095Y-49749523D01*
X147960476Y-49559047D01*
X147960476Y-49225714D01*
X148008095Y-49035238D01*
X148103333Y-48940000D01*
X148198571Y-48892380D01*
X148389047Y-48892380D01*
X148484285Y-48940000D01*
X148579523Y-49035238D01*
X148627142Y-49225714D01*
X148627142Y-49559047D01*
X148579523Y-49749523D01*
X148484285Y-49844761D01*
X148389047Y-49892380D01*
X148198571Y-49892380D01*
X149579523Y-49892380D02*
X149008095Y-49892380D01*
X149293809Y-49892380D02*
X149293809Y-48892380D01*
X149198571Y-49035238D01*
X149103333Y-49130476D01*
X149008095Y-49178095D01*
X148674761Y-56487619D02*
X148579523Y-56440000D01*
X148484285Y-56344761D01*
X148341428Y-56201904D01*
X148246190Y-56154285D01*
X148150952Y-56154285D01*
X148198571Y-56392380D02*
X148103333Y-56344761D01*
X148008095Y-56249523D01*
X147960476Y-56059047D01*
X147960476Y-55725714D01*
X148008095Y-55535238D01*
X148103333Y-55440000D01*
X148198571Y-55392380D01*
X148389047Y-55392380D01*
X148484285Y-55440000D01*
X148579523Y-55535238D01*
X148627142Y-55725714D01*
X148627142Y-56059047D01*
X148579523Y-56249523D01*
X148484285Y-56344761D01*
X148389047Y-56392380D01*
X148198571Y-56392380D01*
X149008095Y-55487619D02*
X149055714Y-55440000D01*
X149150952Y-55392380D01*
X149389047Y-55392380D01*
X149484285Y-55440000D01*
X149531904Y-55487619D01*
X149579523Y-55582857D01*
X149579523Y-55678095D01*
X149531904Y-55820952D01*
X148960476Y-56392380D01*
X149579523Y-56392380D01*
X132373333Y-65372380D02*
X132040000Y-64896190D01*
X131801904Y-65372380D02*
X131801904Y-64372380D01*
X132182857Y-64372380D01*
X132278095Y-64420000D01*
X132325714Y-64467619D01*
X132373333Y-64562857D01*
X132373333Y-64705714D01*
X132325714Y-64800952D01*
X132278095Y-64848571D01*
X132182857Y-64896190D01*
X131801904Y-64896190D01*
X133325714Y-65372380D02*
X132754285Y-65372380D01*
X133040000Y-65372380D02*
X133040000Y-64372380D01*
X132944761Y-64515238D01*
X132849523Y-64610476D01*
X132754285Y-64658095D01*
X149872380Y-135206666D02*
X149396190Y-135540000D01*
X149872380Y-135778095D02*
X148872380Y-135778095D01*
X148872380Y-135397142D01*
X148920000Y-135301904D01*
X148967619Y-135254285D01*
X149062857Y-135206666D01*
X149205714Y-135206666D01*
X149300952Y-135254285D01*
X149348571Y-135301904D01*
X149396190Y-135397142D01*
X149396190Y-135778095D01*
X148967619Y-134825714D02*
X148920000Y-134778095D01*
X148872380Y-134682857D01*
X148872380Y-134444761D01*
X148920000Y-134349523D01*
X148967619Y-134301904D01*
X149062857Y-134254285D01*
X149158095Y-134254285D01*
X149300952Y-134301904D01*
X149872380Y-134873333D01*
X149872380Y-134254285D01*
X148532380Y-135206666D02*
X148056190Y-135540000D01*
X148532380Y-135778095D02*
X147532380Y-135778095D01*
X147532380Y-135397142D01*
X147580000Y-135301904D01*
X147627619Y-135254285D01*
X147722857Y-135206666D01*
X147865714Y-135206666D01*
X147960952Y-135254285D01*
X148008571Y-135301904D01*
X148056190Y-135397142D01*
X148056190Y-135778095D01*
X147532380Y-134873333D02*
X147532380Y-134254285D01*
X147913333Y-134587619D01*
X147913333Y-134444761D01*
X147960952Y-134349523D01*
X148008571Y-134301904D01*
X148103809Y-134254285D01*
X148341904Y-134254285D01*
X148437142Y-134301904D01*
X148484761Y-134349523D01*
X148532380Y-134444761D01*
X148532380Y-134730476D01*
X148484761Y-134825714D01*
X148437142Y-134873333D01*
X143532380Y-116626666D02*
X143056190Y-116960000D01*
X143532380Y-117198095D02*
X142532380Y-117198095D01*
X142532380Y-116817142D01*
X142580000Y-116721904D01*
X142627619Y-116674285D01*
X142722857Y-116626666D01*
X142865714Y-116626666D01*
X142960952Y-116674285D01*
X143008571Y-116721904D01*
X143056190Y-116817142D01*
X143056190Y-117198095D01*
X142865714Y-115769523D02*
X143532380Y-115769523D01*
X142484761Y-116007619D02*
X143199047Y-116245714D01*
X143199047Y-115626666D01*
X139872380Y-135126666D02*
X139396190Y-135460000D01*
X139872380Y-135698095D02*
X138872380Y-135698095D01*
X138872380Y-135317142D01*
X138920000Y-135221904D01*
X138967619Y-135174285D01*
X139062857Y-135126666D01*
X139205714Y-135126666D01*
X139300952Y-135174285D01*
X139348571Y-135221904D01*
X139396190Y-135317142D01*
X139396190Y-135698095D01*
X138872380Y-134221904D02*
X138872380Y-134698095D01*
X139348571Y-134745714D01*
X139300952Y-134698095D01*
X139253333Y-134602857D01*
X139253333Y-134364761D01*
X139300952Y-134269523D01*
X139348571Y-134221904D01*
X139443809Y-134174285D01*
X139681904Y-134174285D01*
X139777142Y-134221904D01*
X139824761Y-134269523D01*
X139872380Y-134364761D01*
X139872380Y-134602857D01*
X139824761Y-134698095D01*
X139777142Y-134745714D01*
X133532380Y-135206666D02*
X133056190Y-135540000D01*
X133532380Y-135778095D02*
X132532380Y-135778095D01*
X132532380Y-135397142D01*
X132580000Y-135301904D01*
X132627619Y-135254285D01*
X132722857Y-135206666D01*
X132865714Y-135206666D01*
X132960952Y-135254285D01*
X133008571Y-135301904D01*
X133056190Y-135397142D01*
X133056190Y-135778095D01*
X132532380Y-134349523D02*
X132532380Y-134540000D01*
X132580000Y-134635238D01*
X132627619Y-134682857D01*
X132770476Y-134778095D01*
X132960952Y-134825714D01*
X133341904Y-134825714D01*
X133437142Y-134778095D01*
X133484761Y-134730476D01*
X133532380Y-134635238D01*
X133532380Y-134444761D01*
X133484761Y-134349523D01*
X133437142Y-134301904D01*
X133341904Y-134254285D01*
X133103809Y-134254285D01*
X133008571Y-134301904D01*
X132960952Y-134349523D01*
X132913333Y-134444761D01*
X132913333Y-134635238D01*
X132960952Y-134730476D01*
X133008571Y-134778095D01*
X133103809Y-134825714D01*
X146032380Y-116626666D02*
X145556190Y-116960000D01*
X146032380Y-117198095D02*
X145032380Y-117198095D01*
X145032380Y-116817142D01*
X145080000Y-116721904D01*
X145127619Y-116674285D01*
X145222857Y-116626666D01*
X145365714Y-116626666D01*
X145460952Y-116674285D01*
X145508571Y-116721904D01*
X145556190Y-116817142D01*
X145556190Y-117198095D01*
X145032380Y-116293333D02*
X145032380Y-115626666D01*
X146032380Y-116055238D01*
X147372380Y-135206666D02*
X146896190Y-135540000D01*
X147372380Y-135778095D02*
X146372380Y-135778095D01*
X146372380Y-135397142D01*
X146420000Y-135301904D01*
X146467619Y-135254285D01*
X146562857Y-135206666D01*
X146705714Y-135206666D01*
X146800952Y-135254285D01*
X146848571Y-135301904D01*
X146896190Y-135397142D01*
X146896190Y-135778095D01*
X146800952Y-134635238D02*
X146753333Y-134730476D01*
X146705714Y-134778095D01*
X146610476Y-134825714D01*
X146562857Y-134825714D01*
X146467619Y-134778095D01*
X146420000Y-134730476D01*
X146372380Y-134635238D01*
X146372380Y-134444761D01*
X146420000Y-134349523D01*
X146467619Y-134301904D01*
X146562857Y-134254285D01*
X146610476Y-134254285D01*
X146705714Y-134301904D01*
X146753333Y-134349523D01*
X146800952Y-134444761D01*
X146800952Y-134635238D01*
X146848571Y-134730476D01*
X146896190Y-134778095D01*
X146991428Y-134825714D01*
X147181904Y-134825714D01*
X147277142Y-134778095D01*
X147324761Y-134730476D01*
X147372380Y-134635238D01*
X147372380Y-134444761D01*
X147324761Y-134349523D01*
X147277142Y-134301904D01*
X147181904Y-134254285D01*
X146991428Y-134254285D01*
X146896190Y-134301904D01*
X146848571Y-134349523D01*
X146800952Y-134444761D01*
X138532380Y-135126666D02*
X138056190Y-135460000D01*
X138532380Y-135698095D02*
X137532380Y-135698095D01*
X137532380Y-135317142D01*
X137580000Y-135221904D01*
X137627619Y-135174285D01*
X137722857Y-135126666D01*
X137865714Y-135126666D01*
X137960952Y-135174285D01*
X138008571Y-135221904D01*
X138056190Y-135317142D01*
X138056190Y-135698095D01*
X138532380Y-134650476D02*
X138532380Y-134460000D01*
X138484761Y-134364761D01*
X138437142Y-134317142D01*
X138294285Y-134221904D01*
X138103809Y-134174285D01*
X137722857Y-134174285D01*
X137627619Y-134221904D01*
X137580000Y-134269523D01*
X137532380Y-134364761D01*
X137532380Y-134555238D01*
X137580000Y-134650476D01*
X137627619Y-134698095D01*
X137722857Y-134745714D01*
X137960952Y-134745714D01*
X138056190Y-134698095D01*
X138103809Y-134650476D01*
X138151428Y-134555238D01*
X138151428Y-134364761D01*
X138103809Y-134269523D01*
X138056190Y-134221904D01*
X137960952Y-134174285D01*
X151084880Y-117143857D02*
X150608690Y-117477190D01*
X151084880Y-117715285D02*
X150084880Y-117715285D01*
X150084880Y-117334333D01*
X150132500Y-117239095D01*
X150180119Y-117191476D01*
X150275357Y-117143857D01*
X150418214Y-117143857D01*
X150513452Y-117191476D01*
X150561071Y-117239095D01*
X150608690Y-117334333D01*
X150608690Y-117715285D01*
X151084880Y-116191476D02*
X151084880Y-116762904D01*
X151084880Y-116477190D02*
X150084880Y-116477190D01*
X150227738Y-116572428D01*
X150322976Y-116667666D01*
X150370595Y-116762904D01*
X150084880Y-115572428D02*
X150084880Y-115477190D01*
X150132500Y-115381952D01*
X150180119Y-115334333D01*
X150275357Y-115286714D01*
X150465833Y-115239095D01*
X150703928Y-115239095D01*
X150894404Y-115286714D01*
X150989642Y-115334333D01*
X151037261Y-115381952D01*
X151084880Y-115477190D01*
X151084880Y-115572428D01*
X151037261Y-115667666D01*
X150989642Y-115715285D01*
X150894404Y-115762904D01*
X150703928Y-115810523D01*
X150465833Y-115810523D01*
X150275357Y-115762904D01*
X150180119Y-115715285D01*
X150132500Y-115667666D01*
X150084880Y-115572428D01*
X136817142Y-117532380D02*
X136483809Y-117056190D01*
X136245714Y-117532380D02*
X136245714Y-116532380D01*
X136626666Y-116532380D01*
X136721904Y-116580000D01*
X136769523Y-116627619D01*
X136817142Y-116722857D01*
X136817142Y-116865714D01*
X136769523Y-116960952D01*
X136721904Y-117008571D01*
X136626666Y-117056190D01*
X136245714Y-117056190D01*
X137769523Y-117532380D02*
X137198095Y-117532380D01*
X137483809Y-117532380D02*
X137483809Y-116532380D01*
X137388571Y-116675238D01*
X137293333Y-116770476D01*
X137198095Y-116818095D01*
X138721904Y-117532380D02*
X138150476Y-117532380D01*
X138436190Y-117532380D02*
X138436190Y-116532380D01*
X138340952Y-116675238D01*
X138245714Y-116770476D01*
X138150476Y-116818095D01*
X140317142Y-42032380D02*
X139983809Y-41556190D01*
X139745714Y-42032380D02*
X139745714Y-41032380D01*
X140126666Y-41032380D01*
X140221904Y-41080000D01*
X140269523Y-41127619D01*
X140317142Y-41222857D01*
X140317142Y-41365714D01*
X140269523Y-41460952D01*
X140221904Y-41508571D01*
X140126666Y-41556190D01*
X139745714Y-41556190D01*
X141269523Y-42032380D02*
X140698095Y-42032380D01*
X140983809Y-42032380D02*
X140983809Y-41032380D01*
X140888571Y-41175238D01*
X140793333Y-41270476D01*
X140698095Y-41318095D01*
X141650476Y-41127619D02*
X141698095Y-41080000D01*
X141793333Y-41032380D01*
X142031428Y-41032380D01*
X142126666Y-41080000D01*
X142174285Y-41127619D01*
X142221904Y-41222857D01*
X142221904Y-41318095D01*
X142174285Y-41460952D01*
X141602857Y-42032380D01*
X142221904Y-42032380D01*
X151032380Y-135602857D02*
X150556190Y-135936190D01*
X151032380Y-136174285D02*
X150032380Y-136174285D01*
X150032380Y-135793333D01*
X150080000Y-135698095D01*
X150127619Y-135650476D01*
X150222857Y-135602857D01*
X150365714Y-135602857D01*
X150460952Y-135650476D01*
X150508571Y-135698095D01*
X150556190Y-135793333D01*
X150556190Y-136174285D01*
X151032380Y-134650476D02*
X151032380Y-135221904D01*
X151032380Y-134936190D02*
X150032380Y-134936190D01*
X150175238Y-135031428D01*
X150270476Y-135126666D01*
X150318095Y-135221904D01*
X150032380Y-134317142D02*
X150032380Y-133698095D01*
X150413333Y-134031428D01*
X150413333Y-133888571D01*
X150460952Y-133793333D01*
X150508571Y-133745714D01*
X150603809Y-133698095D01*
X150841904Y-133698095D01*
X150937142Y-133745714D01*
X150984761Y-133793333D01*
X151032380Y-133888571D01*
X151032380Y-134174285D01*
X150984761Y-134269523D01*
X150937142Y-134317142D01*
X137372380Y-83682857D02*
X136896190Y-84016190D01*
X137372380Y-84254285D02*
X136372380Y-84254285D01*
X136372380Y-83873333D01*
X136420000Y-83778095D01*
X136467619Y-83730476D01*
X136562857Y-83682857D01*
X136705714Y-83682857D01*
X136800952Y-83730476D01*
X136848571Y-83778095D01*
X136896190Y-83873333D01*
X136896190Y-84254285D01*
X137372380Y-82730476D02*
X137372380Y-83301904D01*
X137372380Y-83016190D02*
X136372380Y-83016190D01*
X136515238Y-83111428D01*
X136610476Y-83206666D01*
X136658095Y-83301904D01*
X136705714Y-81873333D02*
X137372380Y-81873333D01*
X136324761Y-82111428D02*
X137039047Y-82349523D01*
X137039047Y-81730476D01*
X133532380Y-75602857D02*
X133056190Y-75936190D01*
X133532380Y-76174285D02*
X132532380Y-76174285D01*
X132532380Y-75793333D01*
X132580000Y-75698095D01*
X132627619Y-75650476D01*
X132722857Y-75602857D01*
X132865714Y-75602857D01*
X132960952Y-75650476D01*
X133008571Y-75698095D01*
X133056190Y-75793333D01*
X133056190Y-76174285D01*
X133532380Y-74650476D02*
X133532380Y-75221904D01*
X133532380Y-74936190D02*
X132532380Y-74936190D01*
X132675238Y-75031428D01*
X132770476Y-75126666D01*
X132818095Y-75221904D01*
X132532380Y-73745714D02*
X132532380Y-74221904D01*
X133008571Y-74269523D01*
X132960952Y-74221904D01*
X132913333Y-74126666D01*
X132913333Y-73888571D01*
X132960952Y-73793333D01*
X133008571Y-73745714D01*
X133103809Y-73698095D01*
X133341904Y-73698095D01*
X133437142Y-73745714D01*
X133484761Y-73793333D01*
X133532380Y-73888571D01*
X133532380Y-74126666D01*
X133484761Y-74221904D01*
X133437142Y-74269523D01*
X135397142Y-44532380D02*
X135063809Y-44056190D01*
X134825714Y-44532380D02*
X134825714Y-43532380D01*
X135206666Y-43532380D01*
X135301904Y-43580000D01*
X135349523Y-43627619D01*
X135397142Y-43722857D01*
X135397142Y-43865714D01*
X135349523Y-43960952D01*
X135301904Y-44008571D01*
X135206666Y-44056190D01*
X134825714Y-44056190D01*
X136349523Y-44532380D02*
X135778095Y-44532380D01*
X136063809Y-44532380D02*
X136063809Y-43532380D01*
X135968571Y-43675238D01*
X135873333Y-43770476D01*
X135778095Y-43818095D01*
X137206666Y-43532380D02*
X137016190Y-43532380D01*
X136920952Y-43580000D01*
X136873333Y-43627619D01*
X136778095Y-43770476D01*
X136730476Y-43960952D01*
X136730476Y-44341904D01*
X136778095Y-44437142D01*
X136825714Y-44484761D01*
X136920952Y-44532380D01*
X137111428Y-44532380D01*
X137206666Y-44484761D01*
X137254285Y-44437142D01*
X137301904Y-44341904D01*
X137301904Y-44103809D01*
X137254285Y-44008571D01*
X137206666Y-43960952D01*
X137111428Y-43913333D01*
X136920952Y-43913333D01*
X136825714Y-43960952D01*
X136778095Y-44008571D01*
X136730476Y-44103809D01*
X127633380Y-91791952D02*
X127157190Y-92125285D01*
X127633380Y-92363380D02*
X126633380Y-92363380D01*
X126633380Y-91982428D01*
X126681000Y-91887190D01*
X126728619Y-91839571D01*
X126823857Y-91791952D01*
X126966714Y-91791952D01*
X127061952Y-91839571D01*
X127109571Y-91887190D01*
X127157190Y-91982428D01*
X127157190Y-92363380D01*
X126633380Y-91506238D02*
X127633380Y-91172904D01*
X126633380Y-90839571D01*
X127633380Y-89982428D02*
X127633380Y-90553857D01*
X127633380Y-90268142D02*
X126633380Y-90268142D01*
X126776238Y-90363380D01*
X126871476Y-90458619D01*
X126919095Y-90553857D01*
X127728619Y-89791952D02*
X127728619Y-89030047D01*
X127633380Y-88220523D02*
X127157190Y-88553857D01*
X127633380Y-88791952D02*
X126633380Y-88791952D01*
X126633380Y-88411000D01*
X126681000Y-88315761D01*
X126728619Y-88268142D01*
X126823857Y-88220523D01*
X126966714Y-88220523D01*
X127061952Y-88268142D01*
X127109571Y-88315761D01*
X127157190Y-88411000D01*
X127157190Y-88791952D01*
X127109571Y-87791952D02*
X127109571Y-87458619D01*
X127633380Y-87315761D02*
X127633380Y-87791952D01*
X126633380Y-87791952D01*
X126633380Y-87315761D01*
X127585761Y-86934809D02*
X127633380Y-86791952D01*
X127633380Y-86553857D01*
X127585761Y-86458619D01*
X127538142Y-86411000D01*
X127442904Y-86363380D01*
X127347666Y-86363380D01*
X127252428Y-86411000D01*
X127204809Y-86458619D01*
X127157190Y-86553857D01*
X127109571Y-86744333D01*
X127061952Y-86839571D01*
X127014333Y-86887190D01*
X126919095Y-86934809D01*
X126823857Y-86934809D01*
X126728619Y-86887190D01*
X126681000Y-86839571D01*
X126633380Y-86744333D01*
X126633380Y-86506238D01*
X126681000Y-86363380D01*
X127633380Y-85411000D02*
X127633380Y-85982428D01*
X127633380Y-85696714D02*
X126633380Y-85696714D01*
X126776238Y-85791952D01*
X126871476Y-85887190D01*
X126919095Y-85982428D01*
X127410880Y-75936642D02*
X126934690Y-76269976D01*
X127410880Y-76508071D02*
X126410880Y-76508071D01*
X126410880Y-76127119D01*
X126458500Y-76031880D01*
X126506119Y-75984261D01*
X126601357Y-75936642D01*
X126744214Y-75936642D01*
X126839452Y-75984261D01*
X126887071Y-76031880D01*
X126934690Y-76127119D01*
X126934690Y-76508071D01*
X126410880Y-75650928D02*
X127410880Y-75317595D01*
X126410880Y-74984261D01*
X126506119Y-74698547D02*
X126458500Y-74650928D01*
X126410880Y-74555690D01*
X126410880Y-74317595D01*
X126458500Y-74222357D01*
X126506119Y-74174738D01*
X126601357Y-74127119D01*
X126696595Y-74127119D01*
X126839452Y-74174738D01*
X127410880Y-74746166D01*
X127410880Y-74127119D01*
X127506119Y-73936642D02*
X127506119Y-73174738D01*
X126887071Y-72603309D02*
X126887071Y-72936642D01*
X127410880Y-72936642D02*
X126410880Y-72936642D01*
X126410880Y-72460452D01*
X127410880Y-71508071D02*
X126934690Y-71841404D01*
X127410880Y-72079500D02*
X126410880Y-72079500D01*
X126410880Y-71698547D01*
X126458500Y-71603309D01*
X126506119Y-71555690D01*
X126601357Y-71508071D01*
X126744214Y-71508071D01*
X126839452Y-71555690D01*
X126887071Y-71603309D01*
X126934690Y-71698547D01*
X126934690Y-72079500D01*
X126887071Y-71079500D02*
X126887071Y-70746166D01*
X127410880Y-70603309D02*
X127410880Y-71079500D01*
X126410880Y-71079500D01*
X126410880Y-70603309D01*
X127506119Y-69508071D02*
X127458500Y-69603309D01*
X127363261Y-69698547D01*
X127220404Y-69841404D01*
X127172785Y-69936642D01*
X127172785Y-70031880D01*
X127410880Y-69984261D02*
X127363261Y-70079500D01*
X127268023Y-70174738D01*
X127077547Y-70222357D01*
X126744214Y-70222357D01*
X126553738Y-70174738D01*
X126458500Y-70079500D01*
X126410880Y-69984261D01*
X126410880Y-69793785D01*
X126458500Y-69698547D01*
X126553738Y-69603309D01*
X126744214Y-69555690D01*
X127077547Y-69555690D01*
X127268023Y-69603309D01*
X127363261Y-69698547D01*
X127410880Y-69793785D01*
X127410880Y-69984261D01*
X127410880Y-68603309D02*
X127410880Y-69174738D01*
X127410880Y-68889023D02*
X126410880Y-68889023D01*
X126553738Y-68984261D01*
X126648976Y-69079500D01*
X126696595Y-69174738D01*
X127766880Y-48260452D02*
X127290690Y-48593785D01*
X127766880Y-48831880D02*
X126766880Y-48831880D01*
X126766880Y-48450928D01*
X126814500Y-48355690D01*
X126862119Y-48308071D01*
X126957357Y-48260452D01*
X127100214Y-48260452D01*
X127195452Y-48308071D01*
X127243071Y-48355690D01*
X127290690Y-48450928D01*
X127290690Y-48831880D01*
X126766880Y-47974738D02*
X127766880Y-47641404D01*
X126766880Y-47308071D01*
X126766880Y-47069976D02*
X126766880Y-46450928D01*
X127147833Y-46784261D01*
X127147833Y-46641404D01*
X127195452Y-46546166D01*
X127243071Y-46498547D01*
X127338309Y-46450928D01*
X127576404Y-46450928D01*
X127671642Y-46498547D01*
X127719261Y-46546166D01*
X127766880Y-46641404D01*
X127766880Y-46927119D01*
X127719261Y-47022357D01*
X127671642Y-47069976D01*
X127862119Y-46260452D02*
X127862119Y-45498547D01*
X127671642Y-44689023D02*
X127719261Y-44736642D01*
X127766880Y-44879500D01*
X127766880Y-44974738D01*
X127719261Y-45117595D01*
X127624023Y-45212833D01*
X127528785Y-45260452D01*
X127338309Y-45308071D01*
X127195452Y-45308071D01*
X127004976Y-45260452D01*
X126909738Y-45212833D01*
X126814500Y-45117595D01*
X126766880Y-44974738D01*
X126766880Y-44879500D01*
X126814500Y-44736642D01*
X126862119Y-44689023D01*
X126766880Y-44403309D02*
X127766880Y-44069976D01*
X126766880Y-43736642D01*
X127766880Y-42879500D02*
X127766880Y-43450928D01*
X127766880Y-43165214D02*
X126766880Y-43165214D01*
X126909738Y-43260452D01*
X127004976Y-43355690D01*
X127052595Y-43450928D01*
X147928095Y-67422380D02*
X147928095Y-68231904D01*
X147975714Y-68327142D01*
X148023333Y-68374761D01*
X148118571Y-68422380D01*
X148309047Y-68422380D01*
X148404285Y-68374761D01*
X148451904Y-68327142D01*
X148499523Y-68231904D01*
X148499523Y-67422380D01*
X149499523Y-68422380D02*
X148928095Y-68422380D01*
X149213809Y-68422380D02*
X149213809Y-67422380D01*
X149118571Y-67565238D01*
X149023333Y-67660476D01*
X148928095Y-67708095D01*
X146569380Y-101882333D02*
X147283666Y-101882333D01*
X147426523Y-101929952D01*
X147521761Y-102025190D01*
X147569380Y-102168047D01*
X147569380Y-102263285D01*
X147569380Y-100882333D02*
X147569380Y-101453761D01*
X147569380Y-101168047D02*
X146569380Y-101168047D01*
X146712238Y-101263285D01*
X146807476Y-101358523D01*
X146855095Y-101453761D01*
M02*
