G04 #@! TF.GenerationSoftware,KiCad,Pcbnew,5.1.2-f72e74a~84~ubuntu18.04.1*
G04 #@! TF.CreationDate,2019-05-18T13:16:44+02:00*
G04 #@! TF.ProjectId,lpf,6c70662e-6b69-4636-9164-5f7063625858,0.1*
G04 #@! TF.SameCoordinates,Original*
G04 #@! TF.FileFunction,Copper,L2,Bot*
G04 #@! TF.FilePolarity,Positive*
%FSLAX46Y46*%
G04 Gerber Fmt 4.6, Leading zero omitted, Abs format (unit mm)*
G04 Created by KiCad (PCBNEW 5.1.2-f72e74a~84~ubuntu18.04.1) date 2019-05-18 13:16:44*
%MOMM*%
%LPD*%
G04 APERTURE LIST*
%ADD10R,1.600000X1.600000*%
%ADD11O,1.600000X1.600000*%
%ADD12C,2.800000*%
%ADD13C,1.600000*%
%ADD14R,1.800000X1.800000*%
%ADD15C,1.800000*%
%ADD16O,1.050000X1.500000*%
%ADD17R,1.050000X1.500000*%
%ADD18O,1.400000X1.400000*%
%ADD19C,1.400000*%
%ADD20R,1.700000X1.700000*%
%ADD21O,1.700000X1.700000*%
%ADD22C,0.800000*%
%ADD23C,0.250000*%
%ADD24C,0.254000*%
G04 APERTURE END LIST*
D10*
X152500000Y-122000000D03*
D11*
X134720000Y-129620000D03*
X149960000Y-122000000D03*
X137260000Y-129620000D03*
X147420000Y-122000000D03*
X139800000Y-129620000D03*
X144880000Y-122000000D03*
X142340000Y-129620000D03*
X142340000Y-122000000D03*
X144880000Y-129620000D03*
X139800000Y-122000000D03*
X147420000Y-129620000D03*
X137260000Y-122000000D03*
X149960000Y-129620000D03*
X134720000Y-122000000D03*
X152500000Y-129620000D03*
D12*
X134900000Y-107500000D03*
X129400000Y-107500000D03*
X127000000Y-109500000D03*
X134900000Y-54500000D03*
X129400000Y-54500000D03*
X127000000Y-56500000D03*
X135000000Y-97500000D03*
X129500000Y-97500000D03*
X127100000Y-99500000D03*
D13*
X142500000Y-116500000D03*
X142500000Y-119000000D03*
X142500000Y-132500000D03*
X142500000Y-135000000D03*
X150000000Y-67000000D03*
X152500000Y-67000000D03*
X136000000Y-48500000D03*
X133500000Y-48500000D03*
X136000000Y-43500000D03*
X133500000Y-43500000D03*
D14*
X127000000Y-79500000D03*
D15*
X127000000Y-82040000D03*
X127000000Y-65540000D03*
D14*
X127000000Y-63000000D03*
D16*
X148770000Y-53000000D03*
X150040000Y-53000000D03*
D17*
X147500000Y-53000000D03*
X147500000Y-59500000D03*
D16*
X150040000Y-59500000D03*
X148770000Y-59500000D03*
D18*
X130000000Y-63000000D03*
D19*
X135080000Y-63000000D03*
X147500000Y-132500000D03*
D18*
X147500000Y-137580000D03*
D19*
X150000000Y-137580000D03*
D18*
X150000000Y-132500000D03*
X145000000Y-113920000D03*
D19*
X145000000Y-119000000D03*
X137500000Y-132420000D03*
D18*
X137500000Y-137500000D03*
X135000000Y-132500000D03*
D19*
X135000000Y-137580000D03*
X147500000Y-119000000D03*
D18*
X147500000Y-113920000D03*
X145000000Y-137580000D03*
D19*
X145000000Y-132500000D03*
X140000000Y-137500000D03*
D18*
X140000000Y-132420000D03*
D19*
X152500000Y-114000000D03*
D18*
X152500000Y-119080000D03*
X140000000Y-119000000D03*
D19*
X134920000Y-119000000D03*
X138420000Y-43500000D03*
D18*
X143500000Y-43500000D03*
X152500000Y-132420000D03*
D19*
X152500000Y-137500000D03*
D18*
X135000000Y-85580000D03*
D19*
X135000000Y-80500000D03*
D18*
X135000000Y-72420000D03*
D19*
X135000000Y-77500000D03*
X133500000Y-46000000D03*
D18*
X138580000Y-46000000D03*
D15*
X129500000Y-91500000D03*
X129500000Y-89000000D03*
X129500000Y-86500000D03*
X129500000Y-70000000D03*
X129500000Y-72500000D03*
X129500000Y-75000000D03*
X129500000Y-48500000D03*
X129500000Y-46000000D03*
X129500000Y-43500000D03*
D10*
X144880000Y-70300000D03*
D11*
X152500000Y-85540000D03*
X144880000Y-72840000D03*
X152500000Y-83000000D03*
X144880000Y-75380000D03*
X152500000Y-80460000D03*
X144880000Y-77920000D03*
X152500000Y-77920000D03*
X144880000Y-80460000D03*
X152500000Y-75380000D03*
X144880000Y-83000000D03*
X152500000Y-72840000D03*
X144880000Y-85540000D03*
X152500000Y-70300000D03*
D20*
X149253000Y-96565000D03*
D21*
X151793000Y-96565000D03*
X149253000Y-99105000D03*
X151793000Y-99105000D03*
X149253000Y-101645000D03*
X151793000Y-101645000D03*
X149253000Y-104185000D03*
X151793000Y-104185000D03*
X149253000Y-106725000D03*
X151793000Y-106725000D03*
D22*
X132000000Y-97500000D03*
X145000000Y-125500000D03*
X147000000Y-77500000D03*
X148000000Y-79500000D03*
X147000000Y-73500000D03*
X138500000Y-102000000D03*
D23*
X133174999Y-86401997D02*
X133174999Y-111174999D01*
X127000000Y-79500000D02*
X126273002Y-79500000D01*
X126273002Y-79500000D02*
X133174999Y-86401997D01*
X138500000Y-116500000D02*
X142500000Y-116500000D01*
X133174999Y-111174999D02*
X138500000Y-116500000D01*
X132000000Y-110636410D02*
X132000000Y-97500000D01*
X138313599Y-116950009D02*
X132000000Y-110636410D01*
X142500000Y-119000000D02*
X140450009Y-116950009D01*
X140450009Y-116950009D02*
X138313599Y-116950009D01*
X142340000Y-128160000D02*
X142340000Y-129620000D01*
X145000000Y-125500000D02*
X142340000Y-128160000D01*
X147000000Y-75800000D02*
X152500000Y-70300000D01*
X147000000Y-77500000D02*
X147000000Y-75800000D01*
X152500000Y-54032905D02*
X152500000Y-65868630D01*
X144467095Y-46000000D02*
X152500000Y-54032905D01*
X152500000Y-65868630D02*
X152500000Y-67000000D01*
X138580000Y-46000000D02*
X144467095Y-46000000D01*
X146460000Y-79500000D02*
X144880000Y-77920000D01*
X148000000Y-79500000D02*
X146460000Y-79500000D01*
X149253000Y-95465000D02*
X142800500Y-89012500D01*
X149253000Y-96565000D02*
X149253000Y-95465000D01*
X142800500Y-79999500D02*
X144880000Y-77920000D01*
X142800500Y-89012500D02*
X142800500Y-79999500D01*
X150943001Y-105875001D02*
X151793000Y-106725000D01*
X150617999Y-105549999D02*
X150943001Y-105875001D01*
X150617999Y-95644997D02*
X150617999Y-105549999D01*
X143754999Y-88781997D02*
X150617999Y-95644997D01*
X143754999Y-84999999D02*
X143754999Y-88781997D01*
X145130003Y-84414999D02*
X144339999Y-84414999D01*
X151625002Y-77920000D02*
X145130003Y-84414999D01*
X144339999Y-84414999D02*
X143754999Y-84999999D01*
X152500000Y-77920000D02*
X151625002Y-77920000D01*
X150040000Y-52775000D02*
X150040000Y-53000000D01*
X149189990Y-51924990D02*
X150040000Y-52775000D01*
X144638008Y-51924990D02*
X149189990Y-51924990D01*
X132500000Y-64062998D02*
X144638008Y-51924990D01*
X132500000Y-83080000D02*
X132500000Y-64062998D01*
X135000000Y-85580000D02*
X132500000Y-83080000D01*
X150890010Y-56615010D02*
X147500000Y-53225000D01*
X147000000Y-65000000D02*
X150890010Y-61109990D01*
X147500000Y-53225000D02*
X147500000Y-53000000D01*
X150890010Y-61109990D02*
X150890010Y-56615010D01*
X147000000Y-73500000D02*
X147000000Y-65000000D01*
X147500000Y-60500000D02*
X147500000Y-59500000D01*
X140500000Y-67500000D02*
X147500000Y-60500000D01*
X140500000Y-102000000D02*
X140500000Y-67500000D01*
X152500000Y-114000000D02*
X140500000Y-102000000D01*
X148525001Y-138605001D02*
X147500000Y-137580000D01*
X153625001Y-137892001D02*
X152912001Y-138605001D01*
X153625001Y-90625001D02*
X153625001Y-137892001D01*
X152912001Y-138605001D02*
X148525001Y-138605001D01*
X144880000Y-85540000D02*
X148540000Y-85540000D01*
X148540000Y-85540000D02*
X153625001Y-90625001D01*
X133594999Y-129079999D02*
X136174998Y-126500000D01*
X135000000Y-132500000D02*
X133594999Y-131094999D01*
X133594999Y-131094999D02*
X133594999Y-129079999D01*
X140380000Y-126500000D02*
X144880000Y-122000000D01*
X136174998Y-126500000D02*
X140380000Y-126500000D01*
X138500000Y-107420000D02*
X145000000Y-113920000D01*
X138500000Y-102000000D02*
X138500000Y-107420000D01*
X129500000Y-68727208D02*
X129500000Y-70000000D01*
X128974999Y-56904899D02*
X128974999Y-68202207D01*
X128974999Y-68202207D02*
X129500000Y-68727208D01*
X129400000Y-56479898D02*
X128974999Y-56904899D01*
X129400000Y-54500000D02*
X129400000Y-56479898D01*
X131225001Y-105674999D02*
X130799999Y-106100001D01*
X131225001Y-96671999D02*
X131225001Y-105674999D01*
X128274999Y-93721997D02*
X131225001Y-96671999D01*
X130799999Y-106100001D02*
X129400000Y-107500000D01*
X128274999Y-87725001D02*
X128274999Y-93721997D01*
X129500000Y-86500000D02*
X128274999Y-87725001D01*
D24*
G36*
X146336928Y-53750000D02*
G01*
X146349188Y-53874482D01*
X146385498Y-53994180D01*
X146444463Y-54104494D01*
X146523815Y-54201185D01*
X146620506Y-54280537D01*
X146730820Y-54339502D01*
X146850518Y-54375812D01*
X146975000Y-54388072D01*
X147588271Y-54388072D01*
X150130011Y-56929813D01*
X150130011Y-58118253D01*
X150040000Y-58109388D01*
X149812600Y-58131785D01*
X149593940Y-58198115D01*
X149405331Y-58298929D01*
X149346882Y-58257725D01*
X149137337Y-58164728D01*
X149075810Y-58156036D01*
X148897000Y-58281837D01*
X148897000Y-59046892D01*
X148896785Y-59047601D01*
X148880000Y-59218022D01*
X148880000Y-59781979D01*
X148896785Y-59952400D01*
X148897000Y-59953109D01*
X148897000Y-60718163D01*
X149075810Y-60843964D01*
X149137337Y-60835272D01*
X149346882Y-60742275D01*
X149405331Y-60701071D01*
X149593941Y-60801885D01*
X149812601Y-60868215D01*
X150035072Y-60890127D01*
X146488998Y-64436201D01*
X146460000Y-64459999D01*
X146436202Y-64488997D01*
X146436201Y-64488998D01*
X146365026Y-64575724D01*
X146294454Y-64707754D01*
X146250998Y-64851015D01*
X146236324Y-65000000D01*
X146240001Y-65037332D01*
X146240001Y-69200627D01*
X146210537Y-69145506D01*
X146131185Y-69048815D01*
X146034494Y-68969463D01*
X145924180Y-68910498D01*
X145804482Y-68874188D01*
X145680000Y-68861928D01*
X144080000Y-68861928D01*
X143955518Y-68874188D01*
X143835820Y-68910498D01*
X143725506Y-68969463D01*
X143628815Y-69048815D01*
X143549463Y-69145506D01*
X143490498Y-69255820D01*
X143454188Y-69375518D01*
X143441928Y-69500000D01*
X143441928Y-71100000D01*
X143454188Y-71224482D01*
X143490498Y-71344180D01*
X143549463Y-71454494D01*
X143628815Y-71551185D01*
X143725506Y-71630537D01*
X143835820Y-71689502D01*
X143955518Y-71725812D01*
X143973482Y-71727581D01*
X143860392Y-71820392D01*
X143681068Y-72038899D01*
X143547818Y-72288192D01*
X143465764Y-72558691D01*
X143438057Y-72840000D01*
X143465764Y-73121309D01*
X143547818Y-73391808D01*
X143681068Y-73641101D01*
X143860392Y-73859608D01*
X144078899Y-74038932D01*
X144211858Y-74110000D01*
X144078899Y-74181068D01*
X143860392Y-74360392D01*
X143681068Y-74578899D01*
X143547818Y-74828192D01*
X143465764Y-75098691D01*
X143438057Y-75380000D01*
X143465764Y-75661309D01*
X143547818Y-75931808D01*
X143681068Y-76181101D01*
X143860392Y-76399608D01*
X144078899Y-76578932D01*
X144211858Y-76650000D01*
X144078899Y-76721068D01*
X143860392Y-76900392D01*
X143681068Y-77118899D01*
X143547818Y-77368192D01*
X143465764Y-77638691D01*
X143438057Y-77920000D01*
X143465764Y-78201309D01*
X143479292Y-78245906D01*
X142289498Y-79435701D01*
X142260500Y-79459499D01*
X142236702Y-79488497D01*
X142236701Y-79488498D01*
X142165526Y-79575224D01*
X142094954Y-79707254D01*
X142051498Y-79850515D01*
X142036824Y-79999500D01*
X142040501Y-80036832D01*
X142040500Y-88975178D01*
X142036824Y-89012500D01*
X142040500Y-89049822D01*
X142040500Y-89049832D01*
X142051497Y-89161485D01*
X142091391Y-89292999D01*
X142094954Y-89304746D01*
X142165526Y-89436776D01*
X142205371Y-89485326D01*
X142260499Y-89552501D01*
X142289503Y-89576304D01*
X147965655Y-95252457D01*
X147951815Y-95263815D01*
X147872463Y-95360506D01*
X147813498Y-95470820D01*
X147777188Y-95590518D01*
X147764928Y-95715000D01*
X147764928Y-97415000D01*
X147777188Y-97539482D01*
X147813498Y-97659180D01*
X147872463Y-97769494D01*
X147951815Y-97866185D01*
X148048506Y-97945537D01*
X148158820Y-98004502D01*
X148239466Y-98028966D01*
X148155412Y-98104731D01*
X147981359Y-98338080D01*
X147856175Y-98600901D01*
X147811524Y-98748110D01*
X147932845Y-98978000D01*
X149126000Y-98978000D01*
X149126000Y-98958000D01*
X149380000Y-98958000D01*
X149380000Y-98978000D01*
X149400000Y-98978000D01*
X149400000Y-99232000D01*
X149380000Y-99232000D01*
X149380000Y-101518000D01*
X149400000Y-101518000D01*
X149400000Y-101772000D01*
X149380000Y-101772000D01*
X149380000Y-104058000D01*
X149400000Y-104058000D01*
X149400000Y-104312000D01*
X149380000Y-104312000D01*
X149380000Y-104332000D01*
X149126000Y-104332000D01*
X149126000Y-104312000D01*
X147932845Y-104312000D01*
X147811524Y-104541890D01*
X147856175Y-104689099D01*
X147981359Y-104951920D01*
X148155412Y-105185269D01*
X148371645Y-105380178D01*
X148488523Y-105449799D01*
X148423986Y-105484294D01*
X148197866Y-105669866D01*
X148012294Y-105895986D01*
X147874401Y-106153966D01*
X147789487Y-106433889D01*
X147760815Y-106725000D01*
X147789487Y-107016111D01*
X147874401Y-107296034D01*
X148012294Y-107554014D01*
X148197866Y-107780134D01*
X148423986Y-107965706D01*
X148681966Y-108103599D01*
X148961889Y-108188513D01*
X149180050Y-108210000D01*
X149325950Y-108210000D01*
X149544111Y-108188513D01*
X149824034Y-108103599D01*
X150082014Y-107965706D01*
X150308134Y-107780134D01*
X150493706Y-107554014D01*
X150523000Y-107499209D01*
X150552294Y-107554014D01*
X150737866Y-107780134D01*
X150963986Y-107965706D01*
X151221966Y-108103599D01*
X151501889Y-108188513D01*
X151720050Y-108210000D01*
X151865950Y-108210000D01*
X152084111Y-108188513D01*
X152364034Y-108103599D01*
X152622014Y-107965706D01*
X152848134Y-107780134D01*
X152865001Y-107759581D01*
X152865001Y-112711450D01*
X152631486Y-112665000D01*
X152368514Y-112665000D01*
X152261157Y-112686355D01*
X141576692Y-102001890D01*
X147811524Y-102001890D01*
X147856175Y-102149099D01*
X147981359Y-102411920D01*
X148155412Y-102645269D01*
X148371645Y-102840178D01*
X148497255Y-102915000D01*
X148371645Y-102989822D01*
X148155412Y-103184731D01*
X147981359Y-103418080D01*
X147856175Y-103680901D01*
X147811524Y-103828110D01*
X147932845Y-104058000D01*
X149126000Y-104058000D01*
X149126000Y-101772000D01*
X147932845Y-101772000D01*
X147811524Y-102001890D01*
X141576692Y-102001890D01*
X141260000Y-101685199D01*
X141260000Y-99461890D01*
X147811524Y-99461890D01*
X147856175Y-99609099D01*
X147981359Y-99871920D01*
X148155412Y-100105269D01*
X148371645Y-100300178D01*
X148497255Y-100375000D01*
X148371645Y-100449822D01*
X148155412Y-100644731D01*
X147981359Y-100878080D01*
X147856175Y-101140901D01*
X147811524Y-101288110D01*
X147932845Y-101518000D01*
X149126000Y-101518000D01*
X149126000Y-99232000D01*
X147932845Y-99232000D01*
X147811524Y-99461890D01*
X141260000Y-99461890D01*
X141260000Y-67814801D01*
X148011004Y-61063798D01*
X148040001Y-61040001D01*
X148066332Y-61007917D01*
X148134974Y-60924277D01*
X148163085Y-60871686D01*
X148269180Y-60839502D01*
X148334057Y-60804824D01*
X148402663Y-60835272D01*
X148464190Y-60843964D01*
X148643000Y-60718163D01*
X148643000Y-60400235D01*
X148650812Y-60374482D01*
X148663072Y-60250000D01*
X148663072Y-58750000D01*
X148650812Y-58625518D01*
X148643000Y-58599765D01*
X148643000Y-58281837D01*
X148464190Y-58156036D01*
X148402663Y-58164728D01*
X148334057Y-58195176D01*
X148269180Y-58160498D01*
X148149482Y-58124188D01*
X148025000Y-58111928D01*
X146975000Y-58111928D01*
X146850518Y-58124188D01*
X146730820Y-58160498D01*
X146620506Y-58219463D01*
X146523815Y-58298815D01*
X146444463Y-58395506D01*
X146385498Y-58505820D01*
X146349188Y-58625518D01*
X146336928Y-58750000D01*
X146336928Y-60250000D01*
X146349188Y-60374482D01*
X146385498Y-60494180D01*
X146401354Y-60523844D01*
X139988998Y-66936201D01*
X139960000Y-66959999D01*
X139936202Y-66988997D01*
X139936201Y-66988998D01*
X139865026Y-67075724D01*
X139794454Y-67207754D01*
X139750998Y-67351015D01*
X139736324Y-67500000D01*
X139740001Y-67537333D01*
X139740000Y-101962678D01*
X139736324Y-102000000D01*
X139740000Y-102037322D01*
X139740000Y-102037332D01*
X139750997Y-102148985D01*
X139794454Y-102292246D01*
X139865026Y-102424276D01*
X139904871Y-102472826D01*
X139959999Y-102540001D01*
X139989003Y-102563804D01*
X151186355Y-113761157D01*
X151165000Y-113868514D01*
X151165000Y-114131486D01*
X151216304Y-114389405D01*
X151316939Y-114632359D01*
X151463038Y-114851013D01*
X151648987Y-115036962D01*
X151867641Y-115183061D01*
X152110595Y-115283696D01*
X152368514Y-115335000D01*
X152631486Y-115335000D01*
X152865002Y-115288550D01*
X152865002Y-117795651D01*
X152761706Y-117764317D01*
X152565579Y-117745000D01*
X152434421Y-117745000D01*
X152238294Y-117764317D01*
X151986646Y-117840653D01*
X151754725Y-117964618D01*
X151551445Y-118131445D01*
X151384618Y-118334725D01*
X151260653Y-118566646D01*
X151184317Y-118818294D01*
X151158541Y-119080000D01*
X151184317Y-119341706D01*
X151260653Y-119593354D01*
X151384618Y-119825275D01*
X151551445Y-120028555D01*
X151754725Y-120195382D01*
X151986646Y-120319347D01*
X152238294Y-120395683D01*
X152434421Y-120415000D01*
X152565579Y-120415000D01*
X152761706Y-120395683D01*
X152865002Y-120364349D01*
X152865002Y-120561928D01*
X151700000Y-120561928D01*
X151575518Y-120574188D01*
X151455820Y-120610498D01*
X151345506Y-120669463D01*
X151248815Y-120748815D01*
X151169463Y-120845506D01*
X151110498Y-120955820D01*
X151074188Y-121075518D01*
X151072419Y-121093482D01*
X150979608Y-120980392D01*
X150761101Y-120801068D01*
X150511808Y-120667818D01*
X150241309Y-120585764D01*
X150030492Y-120565000D01*
X149889508Y-120565000D01*
X149678691Y-120585764D01*
X149408192Y-120667818D01*
X149158899Y-120801068D01*
X148940392Y-120980392D01*
X148761068Y-121198899D01*
X148690000Y-121331858D01*
X148618932Y-121198899D01*
X148439608Y-120980392D01*
X148221101Y-120801068D01*
X147971808Y-120667818D01*
X147701309Y-120585764D01*
X147490492Y-120565000D01*
X147349508Y-120565000D01*
X147138691Y-120585764D01*
X146868192Y-120667818D01*
X146618899Y-120801068D01*
X146400392Y-120980392D01*
X146221068Y-121198899D01*
X146150000Y-121331858D01*
X146078932Y-121198899D01*
X145899608Y-120980392D01*
X145681101Y-120801068D01*
X145431808Y-120667818D01*
X145161309Y-120585764D01*
X144950492Y-120565000D01*
X144809508Y-120565000D01*
X144598691Y-120585764D01*
X144328192Y-120667818D01*
X144078899Y-120801068D01*
X143860392Y-120980392D01*
X143681068Y-121198899D01*
X143610000Y-121331858D01*
X143538932Y-121198899D01*
X143359608Y-120980392D01*
X143141101Y-120801068D01*
X142891808Y-120667818D01*
X142621309Y-120585764D01*
X142410492Y-120565000D01*
X142269508Y-120565000D01*
X142058691Y-120585764D01*
X141788192Y-120667818D01*
X141538899Y-120801068D01*
X141320392Y-120980392D01*
X141141068Y-121198899D01*
X141070000Y-121331858D01*
X140998932Y-121198899D01*
X140819608Y-120980392D01*
X140601101Y-120801068D01*
X140351808Y-120667818D01*
X140081309Y-120585764D01*
X139870492Y-120565000D01*
X139729508Y-120565000D01*
X139518691Y-120585764D01*
X139248192Y-120667818D01*
X138998899Y-120801068D01*
X138780392Y-120980392D01*
X138601068Y-121198899D01*
X138530000Y-121331858D01*
X138458932Y-121198899D01*
X138279608Y-120980392D01*
X138061101Y-120801068D01*
X137811808Y-120667818D01*
X137541309Y-120585764D01*
X137330492Y-120565000D01*
X137189508Y-120565000D01*
X136978691Y-120585764D01*
X136708192Y-120667818D01*
X136458899Y-120801068D01*
X136240392Y-120980392D01*
X136061068Y-121198899D01*
X135990000Y-121331858D01*
X135918932Y-121198899D01*
X135739608Y-120980392D01*
X135521101Y-120801068D01*
X135271808Y-120667818D01*
X135001309Y-120585764D01*
X134790492Y-120565000D01*
X134649508Y-120565000D01*
X134438691Y-120585764D01*
X134168192Y-120667818D01*
X133918899Y-120801068D01*
X133700392Y-120980392D01*
X133521068Y-121198899D01*
X133387818Y-121448192D01*
X133305764Y-121718691D01*
X133278057Y-122000000D01*
X133305764Y-122281309D01*
X133387818Y-122551808D01*
X133521068Y-122801101D01*
X133700392Y-123019608D01*
X133918899Y-123198932D01*
X134168192Y-123332182D01*
X134438691Y-123414236D01*
X134649508Y-123435000D01*
X134790492Y-123435000D01*
X135001309Y-123414236D01*
X135271808Y-123332182D01*
X135521101Y-123198932D01*
X135739608Y-123019608D01*
X135918932Y-122801101D01*
X135990000Y-122668142D01*
X136061068Y-122801101D01*
X136240392Y-123019608D01*
X136458899Y-123198932D01*
X136708192Y-123332182D01*
X136978691Y-123414236D01*
X137189508Y-123435000D01*
X137330492Y-123435000D01*
X137541309Y-123414236D01*
X137811808Y-123332182D01*
X138061101Y-123198932D01*
X138279608Y-123019608D01*
X138458932Y-122801101D01*
X138530000Y-122668142D01*
X138601068Y-122801101D01*
X138780392Y-123019608D01*
X138998899Y-123198932D01*
X139248192Y-123332182D01*
X139518691Y-123414236D01*
X139729508Y-123435000D01*
X139870492Y-123435000D01*
X140081309Y-123414236D01*
X140351808Y-123332182D01*
X140601101Y-123198932D01*
X140819608Y-123019608D01*
X140998932Y-122801101D01*
X141070000Y-122668142D01*
X141141068Y-122801101D01*
X141320392Y-123019608D01*
X141538899Y-123198932D01*
X141788192Y-123332182D01*
X142058691Y-123414236D01*
X142269508Y-123435000D01*
X142370198Y-123435000D01*
X140065199Y-125740000D01*
X136212331Y-125740000D01*
X136174998Y-125736323D01*
X136137665Y-125740000D01*
X136026012Y-125750997D01*
X135882751Y-125794454D01*
X135750722Y-125865026D01*
X135634997Y-125959999D01*
X135611199Y-125988997D01*
X133083997Y-128516200D01*
X133054999Y-128539998D01*
X133031201Y-128568996D01*
X133031200Y-128568997D01*
X132960025Y-128655723D01*
X132889453Y-128787753D01*
X132845997Y-128931014D01*
X132831323Y-129079999D01*
X132835000Y-129117331D01*
X132834999Y-131057676D01*
X132831323Y-131094999D01*
X132834999Y-131132321D01*
X132834999Y-131132331D01*
X132845996Y-131243984D01*
X132888177Y-131383038D01*
X132889453Y-131387245D01*
X132960025Y-131519275D01*
X132986427Y-131551445D01*
X133054998Y-131635000D01*
X133084001Y-131658802D01*
X133682450Y-132257252D01*
X133658541Y-132500000D01*
X133684317Y-132761706D01*
X133760653Y-133013354D01*
X133884618Y-133245275D01*
X134051445Y-133448555D01*
X134254725Y-133615382D01*
X134486646Y-133739347D01*
X134738294Y-133815683D01*
X134934421Y-133835000D01*
X135065579Y-133835000D01*
X135261706Y-133815683D01*
X135513354Y-133739347D01*
X135745275Y-133615382D01*
X135948555Y-133448555D01*
X136115382Y-133245275D01*
X136239347Y-133013354D01*
X136265319Y-132927736D01*
X136316939Y-133052359D01*
X136463038Y-133271013D01*
X136648987Y-133456962D01*
X136867641Y-133603061D01*
X137110595Y-133703696D01*
X137368514Y-133755000D01*
X137631486Y-133755000D01*
X137889405Y-133703696D01*
X138132359Y-133603061D01*
X138351013Y-133456962D01*
X138536962Y-133271013D01*
X138683061Y-133052359D01*
X138748690Y-132893917D01*
X138760653Y-132933354D01*
X138884618Y-133165275D01*
X139051445Y-133368555D01*
X139254725Y-133535382D01*
X139486646Y-133659347D01*
X139738294Y-133735683D01*
X139934421Y-133755000D01*
X140065579Y-133755000D01*
X140261706Y-133735683D01*
X140513354Y-133659347D01*
X140745275Y-133535382D01*
X140948555Y-133368555D01*
X141115382Y-133165275D01*
X141175639Y-133052543D01*
X141228320Y-133179727D01*
X141385363Y-133414759D01*
X141585241Y-133614637D01*
X141785869Y-133748692D01*
X141758486Y-133763329D01*
X141686903Y-134007298D01*
X142500000Y-134820395D01*
X143313097Y-134007298D01*
X143241514Y-133763329D01*
X143212659Y-133749676D01*
X143414759Y-133614637D01*
X143614637Y-133414759D01*
X143771680Y-133179727D01*
X143804120Y-133101411D01*
X143816939Y-133132359D01*
X143963038Y-133351013D01*
X144148987Y-133536962D01*
X144367641Y-133683061D01*
X144610595Y-133783696D01*
X144868514Y-133835000D01*
X145131486Y-133835000D01*
X145389405Y-133783696D01*
X145632359Y-133683061D01*
X145851013Y-133536962D01*
X146036962Y-133351013D01*
X146183061Y-133132359D01*
X146250000Y-132970754D01*
X146316939Y-133132359D01*
X146463038Y-133351013D01*
X146648987Y-133536962D01*
X146867641Y-133683061D01*
X147110595Y-133783696D01*
X147368514Y-133835000D01*
X147631486Y-133835000D01*
X147889405Y-133783696D01*
X148132359Y-133683061D01*
X148351013Y-133536962D01*
X148536962Y-133351013D01*
X148683061Y-133132359D01*
X148748690Y-132973917D01*
X148760653Y-133013354D01*
X148884618Y-133245275D01*
X149051445Y-133448555D01*
X149254725Y-133615382D01*
X149486646Y-133739347D01*
X149738294Y-133815683D01*
X149934421Y-133835000D01*
X150065579Y-133835000D01*
X150261706Y-133815683D01*
X150513354Y-133739347D01*
X150745275Y-133615382D01*
X150948555Y-133448555D01*
X151115382Y-133245275D01*
X151239347Y-133013354D01*
X151262542Y-132936889D01*
X151384618Y-133165275D01*
X151551445Y-133368555D01*
X151754725Y-133535382D01*
X151986646Y-133659347D01*
X152238294Y-133735683D01*
X152434421Y-133755000D01*
X152565579Y-133755000D01*
X152761706Y-133735683D01*
X152865002Y-133704349D01*
X152865002Y-136211450D01*
X152631486Y-136165000D01*
X152368514Y-136165000D01*
X152110595Y-136216304D01*
X151867641Y-136316939D01*
X151648987Y-136463038D01*
X151463038Y-136648987D01*
X151316939Y-136867641D01*
X151234114Y-137067597D01*
X151208935Y-136998634D01*
X151155037Y-136897797D01*
X150921269Y-136838336D01*
X150179605Y-137580000D01*
X150193748Y-137594143D01*
X150014143Y-137773748D01*
X150000000Y-137759605D01*
X149985858Y-137773748D01*
X149806253Y-137594143D01*
X149820395Y-137580000D01*
X149078731Y-136838336D01*
X148844963Y-136897797D01*
X148750040Y-137101896D01*
X148739347Y-137066646D01*
X148615382Y-136834725D01*
X148470948Y-136658731D01*
X149258336Y-136658731D01*
X150000000Y-137400395D01*
X150741664Y-136658731D01*
X150682203Y-136424963D01*
X150443758Y-136314066D01*
X150188260Y-136251817D01*
X149925527Y-136240610D01*
X149665656Y-136280875D01*
X149418634Y-136371065D01*
X149317797Y-136424963D01*
X149258336Y-136658731D01*
X148470948Y-136658731D01*
X148448555Y-136631445D01*
X148245275Y-136464618D01*
X148013354Y-136340653D01*
X147761706Y-136264317D01*
X147565579Y-136245000D01*
X147434421Y-136245000D01*
X147238294Y-136264317D01*
X146986646Y-136340653D01*
X146754725Y-136464618D01*
X146551445Y-136631445D01*
X146384618Y-136834725D01*
X146260653Y-137066646D01*
X146250000Y-137101765D01*
X146239347Y-137066646D01*
X146115382Y-136834725D01*
X145948555Y-136631445D01*
X145745275Y-136464618D01*
X145513354Y-136340653D01*
X145261706Y-136264317D01*
X145065579Y-136245000D01*
X144934421Y-136245000D01*
X144738294Y-136264317D01*
X144486646Y-136340653D01*
X144254725Y-136464618D01*
X144051445Y-136631445D01*
X143884618Y-136834725D01*
X143760653Y-137066646D01*
X143684317Y-137318294D01*
X143658541Y-137580000D01*
X143684317Y-137841706D01*
X143760653Y-138093354D01*
X143884618Y-138325275D01*
X144051445Y-138528555D01*
X144254725Y-138695382D01*
X144486646Y-138819347D01*
X144738294Y-138895683D01*
X144934421Y-138915000D01*
X145065579Y-138915000D01*
X145261706Y-138895683D01*
X145513354Y-138819347D01*
X145745275Y-138695382D01*
X145948555Y-138528555D01*
X146115382Y-138325275D01*
X146239347Y-138093354D01*
X146250000Y-138058235D01*
X146260653Y-138093354D01*
X146384618Y-138325275D01*
X146551445Y-138528555D01*
X146754725Y-138695382D01*
X146986646Y-138819347D01*
X147238294Y-138895683D01*
X147434421Y-138915000D01*
X147565579Y-138915000D01*
X147742748Y-138897550D01*
X147961202Y-139116004D01*
X147985000Y-139145002D01*
X148100725Y-139239975D01*
X148232754Y-139310547D01*
X148329849Y-139340000D01*
X125660000Y-139340000D01*
X125660000Y-138501269D01*
X134258336Y-138501269D01*
X134317797Y-138735037D01*
X134556242Y-138845934D01*
X134811740Y-138908183D01*
X135074473Y-138919390D01*
X135334344Y-138879125D01*
X135581366Y-138788935D01*
X135682203Y-138735037D01*
X135741664Y-138501269D01*
X135000000Y-137759605D01*
X134258336Y-138501269D01*
X125660000Y-138501269D01*
X125660000Y-137654473D01*
X133660610Y-137654473D01*
X133700875Y-137914344D01*
X133791065Y-138161366D01*
X133844963Y-138262203D01*
X134078731Y-138321664D01*
X134820395Y-137580000D01*
X135179605Y-137580000D01*
X135921269Y-138321664D01*
X136155037Y-138262203D01*
X136265934Y-138023758D01*
X136266022Y-138023398D01*
X136384618Y-138245275D01*
X136551445Y-138448555D01*
X136754725Y-138615382D01*
X136986646Y-138739347D01*
X137238294Y-138815683D01*
X137434421Y-138835000D01*
X137565579Y-138835000D01*
X137761706Y-138815683D01*
X138013354Y-138739347D01*
X138245275Y-138615382D01*
X138448555Y-138448555D01*
X138470947Y-138421269D01*
X139258336Y-138421269D01*
X139317797Y-138655037D01*
X139556242Y-138765934D01*
X139811740Y-138828183D01*
X140074473Y-138839390D01*
X140334344Y-138799125D01*
X140581366Y-138708935D01*
X140682203Y-138655037D01*
X140741664Y-138421269D01*
X140000000Y-137679605D01*
X139258336Y-138421269D01*
X138470947Y-138421269D01*
X138615382Y-138245275D01*
X138739347Y-138013354D01*
X138751548Y-137973133D01*
X138791065Y-138081366D01*
X138844963Y-138182203D01*
X139078731Y-138241664D01*
X139820395Y-137500000D01*
X140179605Y-137500000D01*
X140921269Y-138241664D01*
X141155037Y-138182203D01*
X141265934Y-137943758D01*
X141328183Y-137688260D01*
X141339390Y-137425527D01*
X141299125Y-137165656D01*
X141208935Y-136918634D01*
X141155037Y-136817797D01*
X140921269Y-136758336D01*
X140179605Y-137500000D01*
X139820395Y-137500000D01*
X139078731Y-136758336D01*
X138844963Y-136817797D01*
X138750040Y-137021896D01*
X138739347Y-136986646D01*
X138615382Y-136754725D01*
X138470948Y-136578731D01*
X139258336Y-136578731D01*
X140000000Y-137320395D01*
X140741664Y-136578731D01*
X140682203Y-136344963D01*
X140443758Y-136234066D01*
X140188260Y-136171817D01*
X139925527Y-136160610D01*
X139665656Y-136200875D01*
X139418634Y-136291065D01*
X139317797Y-136344963D01*
X139258336Y-136578731D01*
X138470948Y-136578731D01*
X138448555Y-136551445D01*
X138245275Y-136384618D01*
X138013354Y-136260653D01*
X137761706Y-136184317D01*
X137565579Y-136165000D01*
X137434421Y-136165000D01*
X137238294Y-136184317D01*
X136986646Y-136260653D01*
X136754725Y-136384618D01*
X136551445Y-136551445D01*
X136384618Y-136754725D01*
X136260653Y-136986646D01*
X136235197Y-137070563D01*
X136208935Y-136998634D01*
X136155037Y-136897797D01*
X135921269Y-136838336D01*
X135179605Y-137580000D01*
X134820395Y-137580000D01*
X134078731Y-136838336D01*
X133844963Y-136897797D01*
X133734066Y-137136242D01*
X133671817Y-137391740D01*
X133660610Y-137654473D01*
X125660000Y-137654473D01*
X125660000Y-136658731D01*
X134258336Y-136658731D01*
X135000000Y-137400395D01*
X135741664Y-136658731D01*
X135682203Y-136424963D01*
X135443758Y-136314066D01*
X135188260Y-136251817D01*
X134925527Y-136240610D01*
X134665656Y-136280875D01*
X134418634Y-136371065D01*
X134317797Y-136424963D01*
X134258336Y-136658731D01*
X125660000Y-136658731D01*
X125660000Y-135992702D01*
X141686903Y-135992702D01*
X141758486Y-136236671D01*
X142013996Y-136357571D01*
X142288184Y-136426300D01*
X142570512Y-136440217D01*
X142850130Y-136398787D01*
X143116292Y-136303603D01*
X143241514Y-136236671D01*
X143313097Y-135992702D01*
X142500000Y-135179605D01*
X141686903Y-135992702D01*
X125660000Y-135992702D01*
X125660000Y-135070512D01*
X141059783Y-135070512D01*
X141101213Y-135350130D01*
X141196397Y-135616292D01*
X141263329Y-135741514D01*
X141507298Y-135813097D01*
X142320395Y-135000000D01*
X142679605Y-135000000D01*
X143492702Y-135813097D01*
X143736671Y-135741514D01*
X143857571Y-135486004D01*
X143926300Y-135211816D01*
X143940217Y-134929488D01*
X143898787Y-134649870D01*
X143803603Y-134383708D01*
X143736671Y-134258486D01*
X143492702Y-134186903D01*
X142679605Y-135000000D01*
X142320395Y-135000000D01*
X141507298Y-134186903D01*
X141263329Y-134258486D01*
X141142429Y-134513996D01*
X141073700Y-134788184D01*
X141059783Y-135070512D01*
X125660000Y-135070512D01*
X125660000Y-118868514D01*
X133585000Y-118868514D01*
X133585000Y-119131486D01*
X133636304Y-119389405D01*
X133736939Y-119632359D01*
X133883038Y-119851013D01*
X134068987Y-120036962D01*
X134287641Y-120183061D01*
X134530595Y-120283696D01*
X134788514Y-120335000D01*
X135051486Y-120335000D01*
X135309405Y-120283696D01*
X135552359Y-120183061D01*
X135771013Y-120036962D01*
X135956962Y-119851013D01*
X136103061Y-119632359D01*
X136203696Y-119389405D01*
X136255000Y-119131486D01*
X136255000Y-118868514D01*
X136203696Y-118610595D01*
X136103061Y-118367641D01*
X135956962Y-118148987D01*
X135771013Y-117963038D01*
X135552359Y-117816939D01*
X135309405Y-117716304D01*
X135051486Y-117665000D01*
X134788514Y-117665000D01*
X134530595Y-117716304D01*
X134287641Y-117816939D01*
X134068987Y-117963038D01*
X133883038Y-118148987D01*
X133736939Y-118367641D01*
X133636304Y-118610595D01*
X133585000Y-118868514D01*
X125660000Y-118868514D01*
X125660000Y-111019608D01*
X125759159Y-110920449D01*
X125903135Y-111225770D01*
X126260892Y-111406597D01*
X126647053Y-111514155D01*
X127046777Y-111544310D01*
X127444704Y-111495904D01*
X127825540Y-111370795D01*
X128096865Y-111225770D01*
X128240842Y-110920447D01*
X127000000Y-109679605D01*
X126985858Y-109693748D01*
X126806253Y-109514143D01*
X126820395Y-109500000D01*
X126806253Y-109485858D01*
X126985858Y-109306253D01*
X127000000Y-109320395D01*
X127014143Y-109306253D01*
X127193748Y-109485858D01*
X127179605Y-109500000D01*
X128420447Y-110740842D01*
X128725770Y-110596865D01*
X128906597Y-110239108D01*
X129014155Y-109852947D01*
X129040527Y-109503364D01*
X129199570Y-109535000D01*
X129600430Y-109535000D01*
X129993587Y-109456796D01*
X130363934Y-109303393D01*
X130697237Y-109080687D01*
X130980687Y-108797237D01*
X131203393Y-108463934D01*
X131240000Y-108375557D01*
X131240000Y-110599088D01*
X131236324Y-110636410D01*
X131240000Y-110673732D01*
X131240000Y-110673742D01*
X131250997Y-110785395D01*
X131280530Y-110882753D01*
X131294454Y-110928656D01*
X131365026Y-111060686D01*
X131404871Y-111109236D01*
X131459999Y-111176411D01*
X131489003Y-111200214D01*
X137749799Y-117461011D01*
X137773598Y-117490010D01*
X137889323Y-117584983D01*
X138021352Y-117655555D01*
X138164613Y-117699012D01*
X138276266Y-117710009D01*
X138276275Y-117710009D01*
X138313598Y-117713685D01*
X138350921Y-117710009D01*
X139653598Y-117710009D01*
X139486646Y-117760653D01*
X139254725Y-117884618D01*
X139051445Y-118051445D01*
X138884618Y-118254725D01*
X138760653Y-118486646D01*
X138684317Y-118738294D01*
X138658541Y-119000000D01*
X138684317Y-119261706D01*
X138760653Y-119513354D01*
X138884618Y-119745275D01*
X139051445Y-119948555D01*
X139254725Y-120115382D01*
X139486646Y-120239347D01*
X139738294Y-120315683D01*
X139934421Y-120335000D01*
X140065579Y-120335000D01*
X140261706Y-120315683D01*
X140513354Y-120239347D01*
X140745275Y-120115382D01*
X140948555Y-119948555D01*
X141115382Y-119745275D01*
X141194308Y-119597615D01*
X141228320Y-119679727D01*
X141385363Y-119914759D01*
X141585241Y-120114637D01*
X141820273Y-120271680D01*
X142081426Y-120379853D01*
X142358665Y-120435000D01*
X142641335Y-120435000D01*
X142918574Y-120379853D01*
X143179727Y-120271680D01*
X143414759Y-120114637D01*
X143614637Y-119914759D01*
X143771680Y-119679727D01*
X143804120Y-119601411D01*
X143816939Y-119632359D01*
X143963038Y-119851013D01*
X144148987Y-120036962D01*
X144367641Y-120183061D01*
X144610595Y-120283696D01*
X144868514Y-120335000D01*
X145131486Y-120335000D01*
X145389405Y-120283696D01*
X145632359Y-120183061D01*
X145851013Y-120036962D01*
X146036962Y-119851013D01*
X146183061Y-119632359D01*
X146250000Y-119470754D01*
X146316939Y-119632359D01*
X146463038Y-119851013D01*
X146648987Y-120036962D01*
X146867641Y-120183061D01*
X147110595Y-120283696D01*
X147368514Y-120335000D01*
X147631486Y-120335000D01*
X147889405Y-120283696D01*
X148132359Y-120183061D01*
X148351013Y-120036962D01*
X148536962Y-119851013D01*
X148683061Y-119632359D01*
X148783696Y-119389405D01*
X148835000Y-119131486D01*
X148835000Y-118868514D01*
X148783696Y-118610595D01*
X148683061Y-118367641D01*
X148536962Y-118148987D01*
X148351013Y-117963038D01*
X148132359Y-117816939D01*
X147889405Y-117716304D01*
X147631486Y-117665000D01*
X147368514Y-117665000D01*
X147110595Y-117716304D01*
X146867641Y-117816939D01*
X146648987Y-117963038D01*
X146463038Y-118148987D01*
X146316939Y-118367641D01*
X146250000Y-118529246D01*
X146183061Y-118367641D01*
X146036962Y-118148987D01*
X145851013Y-117963038D01*
X145632359Y-117816939D01*
X145389405Y-117716304D01*
X145131486Y-117665000D01*
X144868514Y-117665000D01*
X144610595Y-117716304D01*
X144367641Y-117816939D01*
X144148987Y-117963038D01*
X143963038Y-118148987D01*
X143816939Y-118367641D01*
X143804120Y-118398589D01*
X143771680Y-118320273D01*
X143614637Y-118085241D01*
X143414759Y-117885363D01*
X143212173Y-117750000D01*
X143414759Y-117614637D01*
X143614637Y-117414759D01*
X143771680Y-117179727D01*
X143879853Y-116918574D01*
X143935000Y-116641335D01*
X143935000Y-116358665D01*
X143879853Y-116081426D01*
X143771680Y-115820273D01*
X143614637Y-115585241D01*
X143414759Y-115385363D01*
X143179727Y-115228320D01*
X142918574Y-115120147D01*
X142641335Y-115065000D01*
X142358665Y-115065000D01*
X142081426Y-115120147D01*
X141820273Y-115228320D01*
X141585241Y-115385363D01*
X141385363Y-115585241D01*
X141281957Y-115740000D01*
X138814802Y-115740000D01*
X133934999Y-110860198D01*
X133934999Y-109302680D01*
X133936066Y-109303393D01*
X134306413Y-109456796D01*
X134699570Y-109535000D01*
X135100430Y-109535000D01*
X135493587Y-109456796D01*
X135863934Y-109303393D01*
X136197237Y-109080687D01*
X136480687Y-108797237D01*
X136703393Y-108463934D01*
X136856796Y-108093587D01*
X136935000Y-107700430D01*
X136935000Y-107299570D01*
X136856796Y-106906413D01*
X136703393Y-106536066D01*
X136480687Y-106202763D01*
X136197237Y-105919313D01*
X135863934Y-105696607D01*
X135493587Y-105543204D01*
X135100430Y-105465000D01*
X134699570Y-105465000D01*
X134306413Y-105543204D01*
X133936066Y-105696607D01*
X133934999Y-105697320D01*
X133934999Y-101898061D01*
X137465000Y-101898061D01*
X137465000Y-102101939D01*
X137504774Y-102301898D01*
X137582795Y-102490256D01*
X137696063Y-102659774D01*
X137740000Y-102703711D01*
X137740001Y-107382668D01*
X137736324Y-107420000D01*
X137750998Y-107568985D01*
X137794454Y-107712246D01*
X137865026Y-107844276D01*
X137930681Y-107924276D01*
X137960000Y-107960001D01*
X137988998Y-107983799D01*
X143682450Y-113677252D01*
X143658541Y-113920000D01*
X143684317Y-114181706D01*
X143760653Y-114433354D01*
X143884618Y-114665275D01*
X144051445Y-114868555D01*
X144254725Y-115035382D01*
X144486646Y-115159347D01*
X144738294Y-115235683D01*
X144934421Y-115255000D01*
X145065579Y-115255000D01*
X145261706Y-115235683D01*
X145513354Y-115159347D01*
X145745275Y-115035382D01*
X145948555Y-114868555D01*
X146115382Y-114665275D01*
X146239347Y-114433354D01*
X146254652Y-114382899D01*
X146297147Y-114499123D01*
X146433241Y-114722660D01*
X146610330Y-114915351D01*
X146821608Y-115069792D01*
X147058956Y-115180047D01*
X147166671Y-115212716D01*
X147373000Y-115089374D01*
X147373000Y-114047000D01*
X147627000Y-114047000D01*
X147627000Y-115089374D01*
X147833329Y-115212716D01*
X147941044Y-115180047D01*
X148178392Y-115069792D01*
X148389670Y-114915351D01*
X148566759Y-114722660D01*
X148702853Y-114499123D01*
X148792722Y-114253330D01*
X148670201Y-114047000D01*
X147627000Y-114047000D01*
X147373000Y-114047000D01*
X147353000Y-114047000D01*
X147353000Y-113793000D01*
X147373000Y-113793000D01*
X147373000Y-112750626D01*
X147627000Y-112750626D01*
X147627000Y-113793000D01*
X148670201Y-113793000D01*
X148792722Y-113586670D01*
X148702853Y-113340877D01*
X148566759Y-113117340D01*
X148389670Y-112924649D01*
X148178392Y-112770208D01*
X147941044Y-112659953D01*
X147833329Y-112627284D01*
X147627000Y-112750626D01*
X147373000Y-112750626D01*
X147166671Y-112627284D01*
X147058956Y-112659953D01*
X146821608Y-112770208D01*
X146610330Y-112924649D01*
X146433241Y-113117340D01*
X146297147Y-113340877D01*
X146254652Y-113457101D01*
X146239347Y-113406646D01*
X146115382Y-113174725D01*
X145948555Y-112971445D01*
X145745275Y-112804618D01*
X145513354Y-112680653D01*
X145261706Y-112604317D01*
X145065579Y-112585000D01*
X144934421Y-112585000D01*
X144757252Y-112602450D01*
X139260000Y-107105199D01*
X139260000Y-102703711D01*
X139303937Y-102659774D01*
X139417205Y-102490256D01*
X139495226Y-102301898D01*
X139535000Y-102101939D01*
X139535000Y-101898061D01*
X139495226Y-101698102D01*
X139417205Y-101509744D01*
X139303937Y-101340226D01*
X139159774Y-101196063D01*
X138990256Y-101082795D01*
X138801898Y-101004774D01*
X138601939Y-100965000D01*
X138398061Y-100965000D01*
X138198102Y-101004774D01*
X138009744Y-101082795D01*
X137840226Y-101196063D01*
X137696063Y-101340226D01*
X137582795Y-101509744D01*
X137504774Y-101698102D01*
X137465000Y-101898061D01*
X133934999Y-101898061D01*
X133934999Y-99235862D01*
X134036066Y-99303393D01*
X134406413Y-99456796D01*
X134799570Y-99535000D01*
X135200430Y-99535000D01*
X135593587Y-99456796D01*
X135963934Y-99303393D01*
X136297237Y-99080687D01*
X136580687Y-98797237D01*
X136803393Y-98463934D01*
X136956796Y-98093587D01*
X137035000Y-97700430D01*
X137035000Y-97299570D01*
X136956796Y-96906413D01*
X136803393Y-96536066D01*
X136580687Y-96202763D01*
X136297237Y-95919313D01*
X135963934Y-95696607D01*
X135593587Y-95543204D01*
X135200430Y-95465000D01*
X134799570Y-95465000D01*
X134406413Y-95543204D01*
X134036066Y-95696607D01*
X133934999Y-95764138D01*
X133934999Y-86439322D01*
X133938675Y-86401997D01*
X133937460Y-86389664D01*
X134051445Y-86528555D01*
X134254725Y-86695382D01*
X134486646Y-86819347D01*
X134738294Y-86895683D01*
X134934421Y-86915000D01*
X135065579Y-86915000D01*
X135261706Y-86895683D01*
X135513354Y-86819347D01*
X135745275Y-86695382D01*
X135948555Y-86528555D01*
X136115382Y-86325275D01*
X136239347Y-86093354D01*
X136315683Y-85841706D01*
X136341459Y-85580000D01*
X136315683Y-85318294D01*
X136239347Y-85066646D01*
X136115382Y-84834725D01*
X135948555Y-84631445D01*
X135745275Y-84464618D01*
X135513354Y-84340653D01*
X135261706Y-84264317D01*
X135065579Y-84245000D01*
X134934421Y-84245000D01*
X134757252Y-84262450D01*
X133260000Y-82765199D01*
X133260000Y-80368514D01*
X133665000Y-80368514D01*
X133665000Y-80631486D01*
X133716304Y-80889405D01*
X133816939Y-81132359D01*
X133963038Y-81351013D01*
X134148987Y-81536962D01*
X134367641Y-81683061D01*
X134610595Y-81783696D01*
X134868514Y-81835000D01*
X135131486Y-81835000D01*
X135389405Y-81783696D01*
X135632359Y-81683061D01*
X135851013Y-81536962D01*
X136036962Y-81351013D01*
X136183061Y-81132359D01*
X136283696Y-80889405D01*
X136335000Y-80631486D01*
X136335000Y-80368514D01*
X136283696Y-80110595D01*
X136183061Y-79867641D01*
X136036962Y-79648987D01*
X135851013Y-79463038D01*
X135632359Y-79316939D01*
X135389405Y-79216304D01*
X135131486Y-79165000D01*
X134868514Y-79165000D01*
X134610595Y-79216304D01*
X134367641Y-79316939D01*
X134148987Y-79463038D01*
X133963038Y-79648987D01*
X133816939Y-79867641D01*
X133716304Y-80110595D01*
X133665000Y-80368514D01*
X133260000Y-80368514D01*
X133260000Y-77368514D01*
X133665000Y-77368514D01*
X133665000Y-77631486D01*
X133716304Y-77889405D01*
X133816939Y-78132359D01*
X133963038Y-78351013D01*
X134148987Y-78536962D01*
X134367641Y-78683061D01*
X134610595Y-78783696D01*
X134868514Y-78835000D01*
X135131486Y-78835000D01*
X135389405Y-78783696D01*
X135632359Y-78683061D01*
X135851013Y-78536962D01*
X136036962Y-78351013D01*
X136183061Y-78132359D01*
X136283696Y-77889405D01*
X136335000Y-77631486D01*
X136335000Y-77368514D01*
X136283696Y-77110595D01*
X136183061Y-76867641D01*
X136036962Y-76648987D01*
X135851013Y-76463038D01*
X135632359Y-76316939D01*
X135389405Y-76216304D01*
X135131486Y-76165000D01*
X134868514Y-76165000D01*
X134610595Y-76216304D01*
X134367641Y-76316939D01*
X134148987Y-76463038D01*
X133963038Y-76648987D01*
X133816939Y-76867641D01*
X133716304Y-77110595D01*
X133665000Y-77368514D01*
X133260000Y-77368514D01*
X133260000Y-72420000D01*
X133658541Y-72420000D01*
X133684317Y-72681706D01*
X133760653Y-72933354D01*
X133884618Y-73165275D01*
X134051445Y-73368555D01*
X134254725Y-73535382D01*
X134486646Y-73659347D01*
X134738294Y-73735683D01*
X134934421Y-73755000D01*
X135065579Y-73755000D01*
X135261706Y-73735683D01*
X135513354Y-73659347D01*
X135745275Y-73535382D01*
X135948555Y-73368555D01*
X136115382Y-73165275D01*
X136239347Y-72933354D01*
X136315683Y-72681706D01*
X136341459Y-72420000D01*
X136315683Y-72158294D01*
X136239347Y-71906646D01*
X136115382Y-71674725D01*
X135948555Y-71471445D01*
X135745275Y-71304618D01*
X135513354Y-71180653D01*
X135261706Y-71104317D01*
X135065579Y-71085000D01*
X134934421Y-71085000D01*
X134738294Y-71104317D01*
X134486646Y-71180653D01*
X134254725Y-71304618D01*
X134051445Y-71471445D01*
X133884618Y-71674725D01*
X133760653Y-71906646D01*
X133684317Y-72158294D01*
X133658541Y-72420000D01*
X133260000Y-72420000D01*
X133260000Y-64377799D01*
X133940398Y-63697401D01*
X134043038Y-63851013D01*
X134228987Y-64036962D01*
X134447641Y-64183061D01*
X134690595Y-64283696D01*
X134948514Y-64335000D01*
X135211486Y-64335000D01*
X135469405Y-64283696D01*
X135712359Y-64183061D01*
X135931013Y-64036962D01*
X136116962Y-63851013D01*
X136263061Y-63632359D01*
X136363696Y-63389405D01*
X136415000Y-63131486D01*
X136415000Y-62868514D01*
X136363696Y-62610595D01*
X136263061Y-62367641D01*
X136116962Y-62148987D01*
X135931013Y-61963038D01*
X135777401Y-61860398D01*
X144952810Y-52684990D01*
X146336928Y-52684990D01*
X146336928Y-53750000D01*
X146336928Y-53750000D01*
G37*
X146336928Y-53750000D02*
X146349188Y-53874482D01*
X146385498Y-53994180D01*
X146444463Y-54104494D01*
X146523815Y-54201185D01*
X146620506Y-54280537D01*
X146730820Y-54339502D01*
X146850518Y-54375812D01*
X146975000Y-54388072D01*
X147588271Y-54388072D01*
X150130011Y-56929813D01*
X150130011Y-58118253D01*
X150040000Y-58109388D01*
X149812600Y-58131785D01*
X149593940Y-58198115D01*
X149405331Y-58298929D01*
X149346882Y-58257725D01*
X149137337Y-58164728D01*
X149075810Y-58156036D01*
X148897000Y-58281837D01*
X148897000Y-59046892D01*
X148896785Y-59047601D01*
X148880000Y-59218022D01*
X148880000Y-59781979D01*
X148896785Y-59952400D01*
X148897000Y-59953109D01*
X148897000Y-60718163D01*
X149075810Y-60843964D01*
X149137337Y-60835272D01*
X149346882Y-60742275D01*
X149405331Y-60701071D01*
X149593941Y-60801885D01*
X149812601Y-60868215D01*
X150035072Y-60890127D01*
X146488998Y-64436201D01*
X146460000Y-64459999D01*
X146436202Y-64488997D01*
X146436201Y-64488998D01*
X146365026Y-64575724D01*
X146294454Y-64707754D01*
X146250998Y-64851015D01*
X146236324Y-65000000D01*
X146240001Y-65037332D01*
X146240001Y-69200627D01*
X146210537Y-69145506D01*
X146131185Y-69048815D01*
X146034494Y-68969463D01*
X145924180Y-68910498D01*
X145804482Y-68874188D01*
X145680000Y-68861928D01*
X144080000Y-68861928D01*
X143955518Y-68874188D01*
X143835820Y-68910498D01*
X143725506Y-68969463D01*
X143628815Y-69048815D01*
X143549463Y-69145506D01*
X143490498Y-69255820D01*
X143454188Y-69375518D01*
X143441928Y-69500000D01*
X143441928Y-71100000D01*
X143454188Y-71224482D01*
X143490498Y-71344180D01*
X143549463Y-71454494D01*
X143628815Y-71551185D01*
X143725506Y-71630537D01*
X143835820Y-71689502D01*
X143955518Y-71725812D01*
X143973482Y-71727581D01*
X143860392Y-71820392D01*
X143681068Y-72038899D01*
X143547818Y-72288192D01*
X143465764Y-72558691D01*
X143438057Y-72840000D01*
X143465764Y-73121309D01*
X143547818Y-73391808D01*
X143681068Y-73641101D01*
X143860392Y-73859608D01*
X144078899Y-74038932D01*
X144211858Y-74110000D01*
X144078899Y-74181068D01*
X143860392Y-74360392D01*
X143681068Y-74578899D01*
X143547818Y-74828192D01*
X143465764Y-75098691D01*
X143438057Y-75380000D01*
X143465764Y-75661309D01*
X143547818Y-75931808D01*
X143681068Y-76181101D01*
X143860392Y-76399608D01*
X144078899Y-76578932D01*
X144211858Y-76650000D01*
X144078899Y-76721068D01*
X143860392Y-76900392D01*
X143681068Y-77118899D01*
X143547818Y-77368192D01*
X143465764Y-77638691D01*
X143438057Y-77920000D01*
X143465764Y-78201309D01*
X143479292Y-78245906D01*
X142289498Y-79435701D01*
X142260500Y-79459499D01*
X142236702Y-79488497D01*
X142236701Y-79488498D01*
X142165526Y-79575224D01*
X142094954Y-79707254D01*
X142051498Y-79850515D01*
X142036824Y-79999500D01*
X142040501Y-80036832D01*
X142040500Y-88975178D01*
X142036824Y-89012500D01*
X142040500Y-89049822D01*
X142040500Y-89049832D01*
X142051497Y-89161485D01*
X142091391Y-89292999D01*
X142094954Y-89304746D01*
X142165526Y-89436776D01*
X142205371Y-89485326D01*
X142260499Y-89552501D01*
X142289503Y-89576304D01*
X147965655Y-95252457D01*
X147951815Y-95263815D01*
X147872463Y-95360506D01*
X147813498Y-95470820D01*
X147777188Y-95590518D01*
X147764928Y-95715000D01*
X147764928Y-97415000D01*
X147777188Y-97539482D01*
X147813498Y-97659180D01*
X147872463Y-97769494D01*
X147951815Y-97866185D01*
X148048506Y-97945537D01*
X148158820Y-98004502D01*
X148239466Y-98028966D01*
X148155412Y-98104731D01*
X147981359Y-98338080D01*
X147856175Y-98600901D01*
X147811524Y-98748110D01*
X147932845Y-98978000D01*
X149126000Y-98978000D01*
X149126000Y-98958000D01*
X149380000Y-98958000D01*
X149380000Y-98978000D01*
X149400000Y-98978000D01*
X149400000Y-99232000D01*
X149380000Y-99232000D01*
X149380000Y-101518000D01*
X149400000Y-101518000D01*
X149400000Y-101772000D01*
X149380000Y-101772000D01*
X149380000Y-104058000D01*
X149400000Y-104058000D01*
X149400000Y-104312000D01*
X149380000Y-104312000D01*
X149380000Y-104332000D01*
X149126000Y-104332000D01*
X149126000Y-104312000D01*
X147932845Y-104312000D01*
X147811524Y-104541890D01*
X147856175Y-104689099D01*
X147981359Y-104951920D01*
X148155412Y-105185269D01*
X148371645Y-105380178D01*
X148488523Y-105449799D01*
X148423986Y-105484294D01*
X148197866Y-105669866D01*
X148012294Y-105895986D01*
X147874401Y-106153966D01*
X147789487Y-106433889D01*
X147760815Y-106725000D01*
X147789487Y-107016111D01*
X147874401Y-107296034D01*
X148012294Y-107554014D01*
X148197866Y-107780134D01*
X148423986Y-107965706D01*
X148681966Y-108103599D01*
X148961889Y-108188513D01*
X149180050Y-108210000D01*
X149325950Y-108210000D01*
X149544111Y-108188513D01*
X149824034Y-108103599D01*
X150082014Y-107965706D01*
X150308134Y-107780134D01*
X150493706Y-107554014D01*
X150523000Y-107499209D01*
X150552294Y-107554014D01*
X150737866Y-107780134D01*
X150963986Y-107965706D01*
X151221966Y-108103599D01*
X151501889Y-108188513D01*
X151720050Y-108210000D01*
X151865950Y-108210000D01*
X152084111Y-108188513D01*
X152364034Y-108103599D01*
X152622014Y-107965706D01*
X152848134Y-107780134D01*
X152865001Y-107759581D01*
X152865001Y-112711450D01*
X152631486Y-112665000D01*
X152368514Y-112665000D01*
X152261157Y-112686355D01*
X141576692Y-102001890D01*
X147811524Y-102001890D01*
X147856175Y-102149099D01*
X147981359Y-102411920D01*
X148155412Y-102645269D01*
X148371645Y-102840178D01*
X148497255Y-102915000D01*
X148371645Y-102989822D01*
X148155412Y-103184731D01*
X147981359Y-103418080D01*
X147856175Y-103680901D01*
X147811524Y-103828110D01*
X147932845Y-104058000D01*
X149126000Y-104058000D01*
X149126000Y-101772000D01*
X147932845Y-101772000D01*
X147811524Y-102001890D01*
X141576692Y-102001890D01*
X141260000Y-101685199D01*
X141260000Y-99461890D01*
X147811524Y-99461890D01*
X147856175Y-99609099D01*
X147981359Y-99871920D01*
X148155412Y-100105269D01*
X148371645Y-100300178D01*
X148497255Y-100375000D01*
X148371645Y-100449822D01*
X148155412Y-100644731D01*
X147981359Y-100878080D01*
X147856175Y-101140901D01*
X147811524Y-101288110D01*
X147932845Y-101518000D01*
X149126000Y-101518000D01*
X149126000Y-99232000D01*
X147932845Y-99232000D01*
X147811524Y-99461890D01*
X141260000Y-99461890D01*
X141260000Y-67814801D01*
X148011004Y-61063798D01*
X148040001Y-61040001D01*
X148066332Y-61007917D01*
X148134974Y-60924277D01*
X148163085Y-60871686D01*
X148269180Y-60839502D01*
X148334057Y-60804824D01*
X148402663Y-60835272D01*
X148464190Y-60843964D01*
X148643000Y-60718163D01*
X148643000Y-60400235D01*
X148650812Y-60374482D01*
X148663072Y-60250000D01*
X148663072Y-58750000D01*
X148650812Y-58625518D01*
X148643000Y-58599765D01*
X148643000Y-58281837D01*
X148464190Y-58156036D01*
X148402663Y-58164728D01*
X148334057Y-58195176D01*
X148269180Y-58160498D01*
X148149482Y-58124188D01*
X148025000Y-58111928D01*
X146975000Y-58111928D01*
X146850518Y-58124188D01*
X146730820Y-58160498D01*
X146620506Y-58219463D01*
X146523815Y-58298815D01*
X146444463Y-58395506D01*
X146385498Y-58505820D01*
X146349188Y-58625518D01*
X146336928Y-58750000D01*
X146336928Y-60250000D01*
X146349188Y-60374482D01*
X146385498Y-60494180D01*
X146401354Y-60523844D01*
X139988998Y-66936201D01*
X139960000Y-66959999D01*
X139936202Y-66988997D01*
X139936201Y-66988998D01*
X139865026Y-67075724D01*
X139794454Y-67207754D01*
X139750998Y-67351015D01*
X139736324Y-67500000D01*
X139740001Y-67537333D01*
X139740000Y-101962678D01*
X139736324Y-102000000D01*
X139740000Y-102037322D01*
X139740000Y-102037332D01*
X139750997Y-102148985D01*
X139794454Y-102292246D01*
X139865026Y-102424276D01*
X139904871Y-102472826D01*
X139959999Y-102540001D01*
X139989003Y-102563804D01*
X151186355Y-113761157D01*
X151165000Y-113868514D01*
X151165000Y-114131486D01*
X151216304Y-114389405D01*
X151316939Y-114632359D01*
X151463038Y-114851013D01*
X151648987Y-115036962D01*
X151867641Y-115183061D01*
X152110595Y-115283696D01*
X152368514Y-115335000D01*
X152631486Y-115335000D01*
X152865002Y-115288550D01*
X152865002Y-117795651D01*
X152761706Y-117764317D01*
X152565579Y-117745000D01*
X152434421Y-117745000D01*
X152238294Y-117764317D01*
X151986646Y-117840653D01*
X151754725Y-117964618D01*
X151551445Y-118131445D01*
X151384618Y-118334725D01*
X151260653Y-118566646D01*
X151184317Y-118818294D01*
X151158541Y-119080000D01*
X151184317Y-119341706D01*
X151260653Y-119593354D01*
X151384618Y-119825275D01*
X151551445Y-120028555D01*
X151754725Y-120195382D01*
X151986646Y-120319347D01*
X152238294Y-120395683D01*
X152434421Y-120415000D01*
X152565579Y-120415000D01*
X152761706Y-120395683D01*
X152865002Y-120364349D01*
X152865002Y-120561928D01*
X151700000Y-120561928D01*
X151575518Y-120574188D01*
X151455820Y-120610498D01*
X151345506Y-120669463D01*
X151248815Y-120748815D01*
X151169463Y-120845506D01*
X151110498Y-120955820D01*
X151074188Y-121075518D01*
X151072419Y-121093482D01*
X150979608Y-120980392D01*
X150761101Y-120801068D01*
X150511808Y-120667818D01*
X150241309Y-120585764D01*
X150030492Y-120565000D01*
X149889508Y-120565000D01*
X149678691Y-120585764D01*
X149408192Y-120667818D01*
X149158899Y-120801068D01*
X148940392Y-120980392D01*
X148761068Y-121198899D01*
X148690000Y-121331858D01*
X148618932Y-121198899D01*
X148439608Y-120980392D01*
X148221101Y-120801068D01*
X147971808Y-120667818D01*
X147701309Y-120585764D01*
X147490492Y-120565000D01*
X147349508Y-120565000D01*
X147138691Y-120585764D01*
X146868192Y-120667818D01*
X146618899Y-120801068D01*
X146400392Y-120980392D01*
X146221068Y-121198899D01*
X146150000Y-121331858D01*
X146078932Y-121198899D01*
X145899608Y-120980392D01*
X145681101Y-120801068D01*
X145431808Y-120667818D01*
X145161309Y-120585764D01*
X144950492Y-120565000D01*
X144809508Y-120565000D01*
X144598691Y-120585764D01*
X144328192Y-120667818D01*
X144078899Y-120801068D01*
X143860392Y-120980392D01*
X143681068Y-121198899D01*
X143610000Y-121331858D01*
X143538932Y-121198899D01*
X143359608Y-120980392D01*
X143141101Y-120801068D01*
X142891808Y-120667818D01*
X142621309Y-120585764D01*
X142410492Y-120565000D01*
X142269508Y-120565000D01*
X142058691Y-120585764D01*
X141788192Y-120667818D01*
X141538899Y-120801068D01*
X141320392Y-120980392D01*
X141141068Y-121198899D01*
X141070000Y-121331858D01*
X140998932Y-121198899D01*
X140819608Y-120980392D01*
X140601101Y-120801068D01*
X140351808Y-120667818D01*
X140081309Y-120585764D01*
X139870492Y-120565000D01*
X139729508Y-120565000D01*
X139518691Y-120585764D01*
X139248192Y-120667818D01*
X138998899Y-120801068D01*
X138780392Y-120980392D01*
X138601068Y-121198899D01*
X138530000Y-121331858D01*
X138458932Y-121198899D01*
X138279608Y-120980392D01*
X138061101Y-120801068D01*
X137811808Y-120667818D01*
X137541309Y-120585764D01*
X137330492Y-120565000D01*
X137189508Y-120565000D01*
X136978691Y-120585764D01*
X136708192Y-120667818D01*
X136458899Y-120801068D01*
X136240392Y-120980392D01*
X136061068Y-121198899D01*
X135990000Y-121331858D01*
X135918932Y-121198899D01*
X135739608Y-120980392D01*
X135521101Y-120801068D01*
X135271808Y-120667818D01*
X135001309Y-120585764D01*
X134790492Y-120565000D01*
X134649508Y-120565000D01*
X134438691Y-120585764D01*
X134168192Y-120667818D01*
X133918899Y-120801068D01*
X133700392Y-120980392D01*
X133521068Y-121198899D01*
X133387818Y-121448192D01*
X133305764Y-121718691D01*
X133278057Y-122000000D01*
X133305764Y-122281309D01*
X133387818Y-122551808D01*
X133521068Y-122801101D01*
X133700392Y-123019608D01*
X133918899Y-123198932D01*
X134168192Y-123332182D01*
X134438691Y-123414236D01*
X134649508Y-123435000D01*
X134790492Y-123435000D01*
X135001309Y-123414236D01*
X135271808Y-123332182D01*
X135521101Y-123198932D01*
X135739608Y-123019608D01*
X135918932Y-122801101D01*
X135990000Y-122668142D01*
X136061068Y-122801101D01*
X136240392Y-123019608D01*
X136458899Y-123198932D01*
X136708192Y-123332182D01*
X136978691Y-123414236D01*
X137189508Y-123435000D01*
X137330492Y-123435000D01*
X137541309Y-123414236D01*
X137811808Y-123332182D01*
X138061101Y-123198932D01*
X138279608Y-123019608D01*
X138458932Y-122801101D01*
X138530000Y-122668142D01*
X138601068Y-122801101D01*
X138780392Y-123019608D01*
X138998899Y-123198932D01*
X139248192Y-123332182D01*
X139518691Y-123414236D01*
X139729508Y-123435000D01*
X139870492Y-123435000D01*
X140081309Y-123414236D01*
X140351808Y-123332182D01*
X140601101Y-123198932D01*
X140819608Y-123019608D01*
X140998932Y-122801101D01*
X141070000Y-122668142D01*
X141141068Y-122801101D01*
X141320392Y-123019608D01*
X141538899Y-123198932D01*
X141788192Y-123332182D01*
X142058691Y-123414236D01*
X142269508Y-123435000D01*
X142370198Y-123435000D01*
X140065199Y-125740000D01*
X136212331Y-125740000D01*
X136174998Y-125736323D01*
X136137665Y-125740000D01*
X136026012Y-125750997D01*
X135882751Y-125794454D01*
X135750722Y-125865026D01*
X135634997Y-125959999D01*
X135611199Y-125988997D01*
X133083997Y-128516200D01*
X133054999Y-128539998D01*
X133031201Y-128568996D01*
X133031200Y-128568997D01*
X132960025Y-128655723D01*
X132889453Y-128787753D01*
X132845997Y-128931014D01*
X132831323Y-129079999D01*
X132835000Y-129117331D01*
X132834999Y-131057676D01*
X132831323Y-131094999D01*
X132834999Y-131132321D01*
X132834999Y-131132331D01*
X132845996Y-131243984D01*
X132888177Y-131383038D01*
X132889453Y-131387245D01*
X132960025Y-131519275D01*
X132986427Y-131551445D01*
X133054998Y-131635000D01*
X133084001Y-131658802D01*
X133682450Y-132257252D01*
X133658541Y-132500000D01*
X133684317Y-132761706D01*
X133760653Y-133013354D01*
X133884618Y-133245275D01*
X134051445Y-133448555D01*
X134254725Y-133615382D01*
X134486646Y-133739347D01*
X134738294Y-133815683D01*
X134934421Y-133835000D01*
X135065579Y-133835000D01*
X135261706Y-133815683D01*
X135513354Y-133739347D01*
X135745275Y-133615382D01*
X135948555Y-133448555D01*
X136115382Y-133245275D01*
X136239347Y-133013354D01*
X136265319Y-132927736D01*
X136316939Y-133052359D01*
X136463038Y-133271013D01*
X136648987Y-133456962D01*
X136867641Y-133603061D01*
X137110595Y-133703696D01*
X137368514Y-133755000D01*
X137631486Y-133755000D01*
X137889405Y-133703696D01*
X138132359Y-133603061D01*
X138351013Y-133456962D01*
X138536962Y-133271013D01*
X138683061Y-133052359D01*
X138748690Y-132893917D01*
X138760653Y-132933354D01*
X138884618Y-133165275D01*
X139051445Y-133368555D01*
X139254725Y-133535382D01*
X139486646Y-133659347D01*
X139738294Y-133735683D01*
X139934421Y-133755000D01*
X140065579Y-133755000D01*
X140261706Y-133735683D01*
X140513354Y-133659347D01*
X140745275Y-133535382D01*
X140948555Y-133368555D01*
X141115382Y-133165275D01*
X141175639Y-133052543D01*
X141228320Y-133179727D01*
X141385363Y-133414759D01*
X141585241Y-133614637D01*
X141785869Y-133748692D01*
X141758486Y-133763329D01*
X141686903Y-134007298D01*
X142500000Y-134820395D01*
X143313097Y-134007298D01*
X143241514Y-133763329D01*
X143212659Y-133749676D01*
X143414759Y-133614637D01*
X143614637Y-133414759D01*
X143771680Y-133179727D01*
X143804120Y-133101411D01*
X143816939Y-133132359D01*
X143963038Y-133351013D01*
X144148987Y-133536962D01*
X144367641Y-133683061D01*
X144610595Y-133783696D01*
X144868514Y-133835000D01*
X145131486Y-133835000D01*
X145389405Y-133783696D01*
X145632359Y-133683061D01*
X145851013Y-133536962D01*
X146036962Y-133351013D01*
X146183061Y-133132359D01*
X146250000Y-132970754D01*
X146316939Y-133132359D01*
X146463038Y-133351013D01*
X146648987Y-133536962D01*
X146867641Y-133683061D01*
X147110595Y-133783696D01*
X147368514Y-133835000D01*
X147631486Y-133835000D01*
X147889405Y-133783696D01*
X148132359Y-133683061D01*
X148351013Y-133536962D01*
X148536962Y-133351013D01*
X148683061Y-133132359D01*
X148748690Y-132973917D01*
X148760653Y-133013354D01*
X148884618Y-133245275D01*
X149051445Y-133448555D01*
X149254725Y-133615382D01*
X149486646Y-133739347D01*
X149738294Y-133815683D01*
X149934421Y-133835000D01*
X150065579Y-133835000D01*
X150261706Y-133815683D01*
X150513354Y-133739347D01*
X150745275Y-133615382D01*
X150948555Y-133448555D01*
X151115382Y-133245275D01*
X151239347Y-133013354D01*
X151262542Y-132936889D01*
X151384618Y-133165275D01*
X151551445Y-133368555D01*
X151754725Y-133535382D01*
X151986646Y-133659347D01*
X152238294Y-133735683D01*
X152434421Y-133755000D01*
X152565579Y-133755000D01*
X152761706Y-133735683D01*
X152865002Y-133704349D01*
X152865002Y-136211450D01*
X152631486Y-136165000D01*
X152368514Y-136165000D01*
X152110595Y-136216304D01*
X151867641Y-136316939D01*
X151648987Y-136463038D01*
X151463038Y-136648987D01*
X151316939Y-136867641D01*
X151234114Y-137067597D01*
X151208935Y-136998634D01*
X151155037Y-136897797D01*
X150921269Y-136838336D01*
X150179605Y-137580000D01*
X150193748Y-137594143D01*
X150014143Y-137773748D01*
X150000000Y-137759605D01*
X149985858Y-137773748D01*
X149806253Y-137594143D01*
X149820395Y-137580000D01*
X149078731Y-136838336D01*
X148844963Y-136897797D01*
X148750040Y-137101896D01*
X148739347Y-137066646D01*
X148615382Y-136834725D01*
X148470948Y-136658731D01*
X149258336Y-136658731D01*
X150000000Y-137400395D01*
X150741664Y-136658731D01*
X150682203Y-136424963D01*
X150443758Y-136314066D01*
X150188260Y-136251817D01*
X149925527Y-136240610D01*
X149665656Y-136280875D01*
X149418634Y-136371065D01*
X149317797Y-136424963D01*
X149258336Y-136658731D01*
X148470948Y-136658731D01*
X148448555Y-136631445D01*
X148245275Y-136464618D01*
X148013354Y-136340653D01*
X147761706Y-136264317D01*
X147565579Y-136245000D01*
X147434421Y-136245000D01*
X147238294Y-136264317D01*
X146986646Y-136340653D01*
X146754725Y-136464618D01*
X146551445Y-136631445D01*
X146384618Y-136834725D01*
X146260653Y-137066646D01*
X146250000Y-137101765D01*
X146239347Y-137066646D01*
X146115382Y-136834725D01*
X145948555Y-136631445D01*
X145745275Y-136464618D01*
X145513354Y-136340653D01*
X145261706Y-136264317D01*
X145065579Y-136245000D01*
X144934421Y-136245000D01*
X144738294Y-136264317D01*
X144486646Y-136340653D01*
X144254725Y-136464618D01*
X144051445Y-136631445D01*
X143884618Y-136834725D01*
X143760653Y-137066646D01*
X143684317Y-137318294D01*
X143658541Y-137580000D01*
X143684317Y-137841706D01*
X143760653Y-138093354D01*
X143884618Y-138325275D01*
X144051445Y-138528555D01*
X144254725Y-138695382D01*
X144486646Y-138819347D01*
X144738294Y-138895683D01*
X144934421Y-138915000D01*
X145065579Y-138915000D01*
X145261706Y-138895683D01*
X145513354Y-138819347D01*
X145745275Y-138695382D01*
X145948555Y-138528555D01*
X146115382Y-138325275D01*
X146239347Y-138093354D01*
X146250000Y-138058235D01*
X146260653Y-138093354D01*
X146384618Y-138325275D01*
X146551445Y-138528555D01*
X146754725Y-138695382D01*
X146986646Y-138819347D01*
X147238294Y-138895683D01*
X147434421Y-138915000D01*
X147565579Y-138915000D01*
X147742748Y-138897550D01*
X147961202Y-139116004D01*
X147985000Y-139145002D01*
X148100725Y-139239975D01*
X148232754Y-139310547D01*
X148329849Y-139340000D01*
X125660000Y-139340000D01*
X125660000Y-138501269D01*
X134258336Y-138501269D01*
X134317797Y-138735037D01*
X134556242Y-138845934D01*
X134811740Y-138908183D01*
X135074473Y-138919390D01*
X135334344Y-138879125D01*
X135581366Y-138788935D01*
X135682203Y-138735037D01*
X135741664Y-138501269D01*
X135000000Y-137759605D01*
X134258336Y-138501269D01*
X125660000Y-138501269D01*
X125660000Y-137654473D01*
X133660610Y-137654473D01*
X133700875Y-137914344D01*
X133791065Y-138161366D01*
X133844963Y-138262203D01*
X134078731Y-138321664D01*
X134820395Y-137580000D01*
X135179605Y-137580000D01*
X135921269Y-138321664D01*
X136155037Y-138262203D01*
X136265934Y-138023758D01*
X136266022Y-138023398D01*
X136384618Y-138245275D01*
X136551445Y-138448555D01*
X136754725Y-138615382D01*
X136986646Y-138739347D01*
X137238294Y-138815683D01*
X137434421Y-138835000D01*
X137565579Y-138835000D01*
X137761706Y-138815683D01*
X138013354Y-138739347D01*
X138245275Y-138615382D01*
X138448555Y-138448555D01*
X138470947Y-138421269D01*
X139258336Y-138421269D01*
X139317797Y-138655037D01*
X139556242Y-138765934D01*
X139811740Y-138828183D01*
X140074473Y-138839390D01*
X140334344Y-138799125D01*
X140581366Y-138708935D01*
X140682203Y-138655037D01*
X140741664Y-138421269D01*
X140000000Y-137679605D01*
X139258336Y-138421269D01*
X138470947Y-138421269D01*
X138615382Y-138245275D01*
X138739347Y-138013354D01*
X138751548Y-137973133D01*
X138791065Y-138081366D01*
X138844963Y-138182203D01*
X139078731Y-138241664D01*
X139820395Y-137500000D01*
X140179605Y-137500000D01*
X140921269Y-138241664D01*
X141155037Y-138182203D01*
X141265934Y-137943758D01*
X141328183Y-137688260D01*
X141339390Y-137425527D01*
X141299125Y-137165656D01*
X141208935Y-136918634D01*
X141155037Y-136817797D01*
X140921269Y-136758336D01*
X140179605Y-137500000D01*
X139820395Y-137500000D01*
X139078731Y-136758336D01*
X138844963Y-136817797D01*
X138750040Y-137021896D01*
X138739347Y-136986646D01*
X138615382Y-136754725D01*
X138470948Y-136578731D01*
X139258336Y-136578731D01*
X140000000Y-137320395D01*
X140741664Y-136578731D01*
X140682203Y-136344963D01*
X140443758Y-136234066D01*
X140188260Y-136171817D01*
X139925527Y-136160610D01*
X139665656Y-136200875D01*
X139418634Y-136291065D01*
X139317797Y-136344963D01*
X139258336Y-136578731D01*
X138470948Y-136578731D01*
X138448555Y-136551445D01*
X138245275Y-136384618D01*
X138013354Y-136260653D01*
X137761706Y-136184317D01*
X137565579Y-136165000D01*
X137434421Y-136165000D01*
X137238294Y-136184317D01*
X136986646Y-136260653D01*
X136754725Y-136384618D01*
X136551445Y-136551445D01*
X136384618Y-136754725D01*
X136260653Y-136986646D01*
X136235197Y-137070563D01*
X136208935Y-136998634D01*
X136155037Y-136897797D01*
X135921269Y-136838336D01*
X135179605Y-137580000D01*
X134820395Y-137580000D01*
X134078731Y-136838336D01*
X133844963Y-136897797D01*
X133734066Y-137136242D01*
X133671817Y-137391740D01*
X133660610Y-137654473D01*
X125660000Y-137654473D01*
X125660000Y-136658731D01*
X134258336Y-136658731D01*
X135000000Y-137400395D01*
X135741664Y-136658731D01*
X135682203Y-136424963D01*
X135443758Y-136314066D01*
X135188260Y-136251817D01*
X134925527Y-136240610D01*
X134665656Y-136280875D01*
X134418634Y-136371065D01*
X134317797Y-136424963D01*
X134258336Y-136658731D01*
X125660000Y-136658731D01*
X125660000Y-135992702D01*
X141686903Y-135992702D01*
X141758486Y-136236671D01*
X142013996Y-136357571D01*
X142288184Y-136426300D01*
X142570512Y-136440217D01*
X142850130Y-136398787D01*
X143116292Y-136303603D01*
X143241514Y-136236671D01*
X143313097Y-135992702D01*
X142500000Y-135179605D01*
X141686903Y-135992702D01*
X125660000Y-135992702D01*
X125660000Y-135070512D01*
X141059783Y-135070512D01*
X141101213Y-135350130D01*
X141196397Y-135616292D01*
X141263329Y-135741514D01*
X141507298Y-135813097D01*
X142320395Y-135000000D01*
X142679605Y-135000000D01*
X143492702Y-135813097D01*
X143736671Y-135741514D01*
X143857571Y-135486004D01*
X143926300Y-135211816D01*
X143940217Y-134929488D01*
X143898787Y-134649870D01*
X143803603Y-134383708D01*
X143736671Y-134258486D01*
X143492702Y-134186903D01*
X142679605Y-135000000D01*
X142320395Y-135000000D01*
X141507298Y-134186903D01*
X141263329Y-134258486D01*
X141142429Y-134513996D01*
X141073700Y-134788184D01*
X141059783Y-135070512D01*
X125660000Y-135070512D01*
X125660000Y-118868514D01*
X133585000Y-118868514D01*
X133585000Y-119131486D01*
X133636304Y-119389405D01*
X133736939Y-119632359D01*
X133883038Y-119851013D01*
X134068987Y-120036962D01*
X134287641Y-120183061D01*
X134530595Y-120283696D01*
X134788514Y-120335000D01*
X135051486Y-120335000D01*
X135309405Y-120283696D01*
X135552359Y-120183061D01*
X135771013Y-120036962D01*
X135956962Y-119851013D01*
X136103061Y-119632359D01*
X136203696Y-119389405D01*
X136255000Y-119131486D01*
X136255000Y-118868514D01*
X136203696Y-118610595D01*
X136103061Y-118367641D01*
X135956962Y-118148987D01*
X135771013Y-117963038D01*
X135552359Y-117816939D01*
X135309405Y-117716304D01*
X135051486Y-117665000D01*
X134788514Y-117665000D01*
X134530595Y-117716304D01*
X134287641Y-117816939D01*
X134068987Y-117963038D01*
X133883038Y-118148987D01*
X133736939Y-118367641D01*
X133636304Y-118610595D01*
X133585000Y-118868514D01*
X125660000Y-118868514D01*
X125660000Y-111019608D01*
X125759159Y-110920449D01*
X125903135Y-111225770D01*
X126260892Y-111406597D01*
X126647053Y-111514155D01*
X127046777Y-111544310D01*
X127444704Y-111495904D01*
X127825540Y-111370795D01*
X128096865Y-111225770D01*
X128240842Y-110920447D01*
X127000000Y-109679605D01*
X126985858Y-109693748D01*
X126806253Y-109514143D01*
X126820395Y-109500000D01*
X126806253Y-109485858D01*
X126985858Y-109306253D01*
X127000000Y-109320395D01*
X127014143Y-109306253D01*
X127193748Y-109485858D01*
X127179605Y-109500000D01*
X128420447Y-110740842D01*
X128725770Y-110596865D01*
X128906597Y-110239108D01*
X129014155Y-109852947D01*
X129040527Y-109503364D01*
X129199570Y-109535000D01*
X129600430Y-109535000D01*
X129993587Y-109456796D01*
X130363934Y-109303393D01*
X130697237Y-109080687D01*
X130980687Y-108797237D01*
X131203393Y-108463934D01*
X131240000Y-108375557D01*
X131240000Y-110599088D01*
X131236324Y-110636410D01*
X131240000Y-110673732D01*
X131240000Y-110673742D01*
X131250997Y-110785395D01*
X131280530Y-110882753D01*
X131294454Y-110928656D01*
X131365026Y-111060686D01*
X131404871Y-111109236D01*
X131459999Y-111176411D01*
X131489003Y-111200214D01*
X137749799Y-117461011D01*
X137773598Y-117490010D01*
X137889323Y-117584983D01*
X138021352Y-117655555D01*
X138164613Y-117699012D01*
X138276266Y-117710009D01*
X138276275Y-117710009D01*
X138313598Y-117713685D01*
X138350921Y-117710009D01*
X139653598Y-117710009D01*
X139486646Y-117760653D01*
X139254725Y-117884618D01*
X139051445Y-118051445D01*
X138884618Y-118254725D01*
X138760653Y-118486646D01*
X138684317Y-118738294D01*
X138658541Y-119000000D01*
X138684317Y-119261706D01*
X138760653Y-119513354D01*
X138884618Y-119745275D01*
X139051445Y-119948555D01*
X139254725Y-120115382D01*
X139486646Y-120239347D01*
X139738294Y-120315683D01*
X139934421Y-120335000D01*
X140065579Y-120335000D01*
X140261706Y-120315683D01*
X140513354Y-120239347D01*
X140745275Y-120115382D01*
X140948555Y-119948555D01*
X141115382Y-119745275D01*
X141194308Y-119597615D01*
X141228320Y-119679727D01*
X141385363Y-119914759D01*
X141585241Y-120114637D01*
X141820273Y-120271680D01*
X142081426Y-120379853D01*
X142358665Y-120435000D01*
X142641335Y-120435000D01*
X142918574Y-120379853D01*
X143179727Y-120271680D01*
X143414759Y-120114637D01*
X143614637Y-119914759D01*
X143771680Y-119679727D01*
X143804120Y-119601411D01*
X143816939Y-119632359D01*
X143963038Y-119851013D01*
X144148987Y-120036962D01*
X144367641Y-120183061D01*
X144610595Y-120283696D01*
X144868514Y-120335000D01*
X145131486Y-120335000D01*
X145389405Y-120283696D01*
X145632359Y-120183061D01*
X145851013Y-120036962D01*
X146036962Y-119851013D01*
X146183061Y-119632359D01*
X146250000Y-119470754D01*
X146316939Y-119632359D01*
X146463038Y-119851013D01*
X146648987Y-120036962D01*
X146867641Y-120183061D01*
X147110595Y-120283696D01*
X147368514Y-120335000D01*
X147631486Y-120335000D01*
X147889405Y-120283696D01*
X148132359Y-120183061D01*
X148351013Y-120036962D01*
X148536962Y-119851013D01*
X148683061Y-119632359D01*
X148783696Y-119389405D01*
X148835000Y-119131486D01*
X148835000Y-118868514D01*
X148783696Y-118610595D01*
X148683061Y-118367641D01*
X148536962Y-118148987D01*
X148351013Y-117963038D01*
X148132359Y-117816939D01*
X147889405Y-117716304D01*
X147631486Y-117665000D01*
X147368514Y-117665000D01*
X147110595Y-117716304D01*
X146867641Y-117816939D01*
X146648987Y-117963038D01*
X146463038Y-118148987D01*
X146316939Y-118367641D01*
X146250000Y-118529246D01*
X146183061Y-118367641D01*
X146036962Y-118148987D01*
X145851013Y-117963038D01*
X145632359Y-117816939D01*
X145389405Y-117716304D01*
X145131486Y-117665000D01*
X144868514Y-117665000D01*
X144610595Y-117716304D01*
X144367641Y-117816939D01*
X144148987Y-117963038D01*
X143963038Y-118148987D01*
X143816939Y-118367641D01*
X143804120Y-118398589D01*
X143771680Y-118320273D01*
X143614637Y-118085241D01*
X143414759Y-117885363D01*
X143212173Y-117750000D01*
X143414759Y-117614637D01*
X143614637Y-117414759D01*
X143771680Y-117179727D01*
X143879853Y-116918574D01*
X143935000Y-116641335D01*
X143935000Y-116358665D01*
X143879853Y-116081426D01*
X143771680Y-115820273D01*
X143614637Y-115585241D01*
X143414759Y-115385363D01*
X143179727Y-115228320D01*
X142918574Y-115120147D01*
X142641335Y-115065000D01*
X142358665Y-115065000D01*
X142081426Y-115120147D01*
X141820273Y-115228320D01*
X141585241Y-115385363D01*
X141385363Y-115585241D01*
X141281957Y-115740000D01*
X138814802Y-115740000D01*
X133934999Y-110860198D01*
X133934999Y-109302680D01*
X133936066Y-109303393D01*
X134306413Y-109456796D01*
X134699570Y-109535000D01*
X135100430Y-109535000D01*
X135493587Y-109456796D01*
X135863934Y-109303393D01*
X136197237Y-109080687D01*
X136480687Y-108797237D01*
X136703393Y-108463934D01*
X136856796Y-108093587D01*
X136935000Y-107700430D01*
X136935000Y-107299570D01*
X136856796Y-106906413D01*
X136703393Y-106536066D01*
X136480687Y-106202763D01*
X136197237Y-105919313D01*
X135863934Y-105696607D01*
X135493587Y-105543204D01*
X135100430Y-105465000D01*
X134699570Y-105465000D01*
X134306413Y-105543204D01*
X133936066Y-105696607D01*
X133934999Y-105697320D01*
X133934999Y-101898061D01*
X137465000Y-101898061D01*
X137465000Y-102101939D01*
X137504774Y-102301898D01*
X137582795Y-102490256D01*
X137696063Y-102659774D01*
X137740000Y-102703711D01*
X137740001Y-107382668D01*
X137736324Y-107420000D01*
X137750998Y-107568985D01*
X137794454Y-107712246D01*
X137865026Y-107844276D01*
X137930681Y-107924276D01*
X137960000Y-107960001D01*
X137988998Y-107983799D01*
X143682450Y-113677252D01*
X143658541Y-113920000D01*
X143684317Y-114181706D01*
X143760653Y-114433354D01*
X143884618Y-114665275D01*
X144051445Y-114868555D01*
X144254725Y-115035382D01*
X144486646Y-115159347D01*
X144738294Y-115235683D01*
X144934421Y-115255000D01*
X145065579Y-115255000D01*
X145261706Y-115235683D01*
X145513354Y-115159347D01*
X145745275Y-115035382D01*
X145948555Y-114868555D01*
X146115382Y-114665275D01*
X146239347Y-114433354D01*
X146254652Y-114382899D01*
X146297147Y-114499123D01*
X146433241Y-114722660D01*
X146610330Y-114915351D01*
X146821608Y-115069792D01*
X147058956Y-115180047D01*
X147166671Y-115212716D01*
X147373000Y-115089374D01*
X147373000Y-114047000D01*
X147627000Y-114047000D01*
X147627000Y-115089374D01*
X147833329Y-115212716D01*
X147941044Y-115180047D01*
X148178392Y-115069792D01*
X148389670Y-114915351D01*
X148566759Y-114722660D01*
X148702853Y-114499123D01*
X148792722Y-114253330D01*
X148670201Y-114047000D01*
X147627000Y-114047000D01*
X147373000Y-114047000D01*
X147353000Y-114047000D01*
X147353000Y-113793000D01*
X147373000Y-113793000D01*
X147373000Y-112750626D01*
X147627000Y-112750626D01*
X147627000Y-113793000D01*
X148670201Y-113793000D01*
X148792722Y-113586670D01*
X148702853Y-113340877D01*
X148566759Y-113117340D01*
X148389670Y-112924649D01*
X148178392Y-112770208D01*
X147941044Y-112659953D01*
X147833329Y-112627284D01*
X147627000Y-112750626D01*
X147373000Y-112750626D01*
X147166671Y-112627284D01*
X147058956Y-112659953D01*
X146821608Y-112770208D01*
X146610330Y-112924649D01*
X146433241Y-113117340D01*
X146297147Y-113340877D01*
X146254652Y-113457101D01*
X146239347Y-113406646D01*
X146115382Y-113174725D01*
X145948555Y-112971445D01*
X145745275Y-112804618D01*
X145513354Y-112680653D01*
X145261706Y-112604317D01*
X145065579Y-112585000D01*
X144934421Y-112585000D01*
X144757252Y-112602450D01*
X139260000Y-107105199D01*
X139260000Y-102703711D01*
X139303937Y-102659774D01*
X139417205Y-102490256D01*
X139495226Y-102301898D01*
X139535000Y-102101939D01*
X139535000Y-101898061D01*
X139495226Y-101698102D01*
X139417205Y-101509744D01*
X139303937Y-101340226D01*
X139159774Y-101196063D01*
X138990256Y-101082795D01*
X138801898Y-101004774D01*
X138601939Y-100965000D01*
X138398061Y-100965000D01*
X138198102Y-101004774D01*
X138009744Y-101082795D01*
X137840226Y-101196063D01*
X137696063Y-101340226D01*
X137582795Y-101509744D01*
X137504774Y-101698102D01*
X137465000Y-101898061D01*
X133934999Y-101898061D01*
X133934999Y-99235862D01*
X134036066Y-99303393D01*
X134406413Y-99456796D01*
X134799570Y-99535000D01*
X135200430Y-99535000D01*
X135593587Y-99456796D01*
X135963934Y-99303393D01*
X136297237Y-99080687D01*
X136580687Y-98797237D01*
X136803393Y-98463934D01*
X136956796Y-98093587D01*
X137035000Y-97700430D01*
X137035000Y-97299570D01*
X136956796Y-96906413D01*
X136803393Y-96536066D01*
X136580687Y-96202763D01*
X136297237Y-95919313D01*
X135963934Y-95696607D01*
X135593587Y-95543204D01*
X135200430Y-95465000D01*
X134799570Y-95465000D01*
X134406413Y-95543204D01*
X134036066Y-95696607D01*
X133934999Y-95764138D01*
X133934999Y-86439322D01*
X133938675Y-86401997D01*
X133937460Y-86389664D01*
X134051445Y-86528555D01*
X134254725Y-86695382D01*
X134486646Y-86819347D01*
X134738294Y-86895683D01*
X134934421Y-86915000D01*
X135065579Y-86915000D01*
X135261706Y-86895683D01*
X135513354Y-86819347D01*
X135745275Y-86695382D01*
X135948555Y-86528555D01*
X136115382Y-86325275D01*
X136239347Y-86093354D01*
X136315683Y-85841706D01*
X136341459Y-85580000D01*
X136315683Y-85318294D01*
X136239347Y-85066646D01*
X136115382Y-84834725D01*
X135948555Y-84631445D01*
X135745275Y-84464618D01*
X135513354Y-84340653D01*
X135261706Y-84264317D01*
X135065579Y-84245000D01*
X134934421Y-84245000D01*
X134757252Y-84262450D01*
X133260000Y-82765199D01*
X133260000Y-80368514D01*
X133665000Y-80368514D01*
X133665000Y-80631486D01*
X133716304Y-80889405D01*
X133816939Y-81132359D01*
X133963038Y-81351013D01*
X134148987Y-81536962D01*
X134367641Y-81683061D01*
X134610595Y-81783696D01*
X134868514Y-81835000D01*
X135131486Y-81835000D01*
X135389405Y-81783696D01*
X135632359Y-81683061D01*
X135851013Y-81536962D01*
X136036962Y-81351013D01*
X136183061Y-81132359D01*
X136283696Y-80889405D01*
X136335000Y-80631486D01*
X136335000Y-80368514D01*
X136283696Y-80110595D01*
X136183061Y-79867641D01*
X136036962Y-79648987D01*
X135851013Y-79463038D01*
X135632359Y-79316939D01*
X135389405Y-79216304D01*
X135131486Y-79165000D01*
X134868514Y-79165000D01*
X134610595Y-79216304D01*
X134367641Y-79316939D01*
X134148987Y-79463038D01*
X133963038Y-79648987D01*
X133816939Y-79867641D01*
X133716304Y-80110595D01*
X133665000Y-80368514D01*
X133260000Y-80368514D01*
X133260000Y-77368514D01*
X133665000Y-77368514D01*
X133665000Y-77631486D01*
X133716304Y-77889405D01*
X133816939Y-78132359D01*
X133963038Y-78351013D01*
X134148987Y-78536962D01*
X134367641Y-78683061D01*
X134610595Y-78783696D01*
X134868514Y-78835000D01*
X135131486Y-78835000D01*
X135389405Y-78783696D01*
X135632359Y-78683061D01*
X135851013Y-78536962D01*
X136036962Y-78351013D01*
X136183061Y-78132359D01*
X136283696Y-77889405D01*
X136335000Y-77631486D01*
X136335000Y-77368514D01*
X136283696Y-77110595D01*
X136183061Y-76867641D01*
X136036962Y-76648987D01*
X135851013Y-76463038D01*
X135632359Y-76316939D01*
X135389405Y-76216304D01*
X135131486Y-76165000D01*
X134868514Y-76165000D01*
X134610595Y-76216304D01*
X134367641Y-76316939D01*
X134148987Y-76463038D01*
X133963038Y-76648987D01*
X133816939Y-76867641D01*
X133716304Y-77110595D01*
X133665000Y-77368514D01*
X133260000Y-77368514D01*
X133260000Y-72420000D01*
X133658541Y-72420000D01*
X133684317Y-72681706D01*
X133760653Y-72933354D01*
X133884618Y-73165275D01*
X134051445Y-73368555D01*
X134254725Y-73535382D01*
X134486646Y-73659347D01*
X134738294Y-73735683D01*
X134934421Y-73755000D01*
X135065579Y-73755000D01*
X135261706Y-73735683D01*
X135513354Y-73659347D01*
X135745275Y-73535382D01*
X135948555Y-73368555D01*
X136115382Y-73165275D01*
X136239347Y-72933354D01*
X136315683Y-72681706D01*
X136341459Y-72420000D01*
X136315683Y-72158294D01*
X136239347Y-71906646D01*
X136115382Y-71674725D01*
X135948555Y-71471445D01*
X135745275Y-71304618D01*
X135513354Y-71180653D01*
X135261706Y-71104317D01*
X135065579Y-71085000D01*
X134934421Y-71085000D01*
X134738294Y-71104317D01*
X134486646Y-71180653D01*
X134254725Y-71304618D01*
X134051445Y-71471445D01*
X133884618Y-71674725D01*
X133760653Y-71906646D01*
X133684317Y-72158294D01*
X133658541Y-72420000D01*
X133260000Y-72420000D01*
X133260000Y-64377799D01*
X133940398Y-63697401D01*
X134043038Y-63851013D01*
X134228987Y-64036962D01*
X134447641Y-64183061D01*
X134690595Y-64283696D01*
X134948514Y-64335000D01*
X135211486Y-64335000D01*
X135469405Y-64283696D01*
X135712359Y-64183061D01*
X135931013Y-64036962D01*
X136116962Y-63851013D01*
X136263061Y-63632359D01*
X136363696Y-63389405D01*
X136415000Y-63131486D01*
X136415000Y-62868514D01*
X136363696Y-62610595D01*
X136263061Y-62367641D01*
X136116962Y-62148987D01*
X135931013Y-61963038D01*
X135777401Y-61860398D01*
X144952810Y-52684990D01*
X146336928Y-52684990D01*
X146336928Y-53750000D01*
G36*
X130465002Y-105360197D02*
G01*
X130289002Y-105536197D01*
X130288996Y-105536202D01*
X130197521Y-105627677D01*
X129993587Y-105543204D01*
X129600430Y-105465000D01*
X129199570Y-105465000D01*
X128806413Y-105543204D01*
X128436066Y-105696607D01*
X128102763Y-105919313D01*
X127819313Y-106202763D01*
X127596607Y-106536066D01*
X127443204Y-106906413D01*
X127365000Y-107299570D01*
X127365000Y-107489202D01*
X127352947Y-107485845D01*
X126953223Y-107455690D01*
X126555296Y-107504096D01*
X126174460Y-107629205D01*
X125903135Y-107774230D01*
X125759159Y-108079551D01*
X125660000Y-107980392D01*
X125660000Y-100950980D01*
X125744314Y-101035294D01*
X125859159Y-100920449D01*
X126003135Y-101225770D01*
X126360892Y-101406597D01*
X126747053Y-101514155D01*
X127146777Y-101544310D01*
X127544704Y-101495904D01*
X127925540Y-101370795D01*
X128196865Y-101225770D01*
X128340842Y-100920447D01*
X127100000Y-99679605D01*
X127085858Y-99693748D01*
X126906253Y-99514143D01*
X126920395Y-99500000D01*
X126906253Y-99485858D01*
X127085858Y-99306253D01*
X127100000Y-99320395D01*
X127114143Y-99306253D01*
X127293748Y-99485858D01*
X127279605Y-99500000D01*
X128520447Y-100740842D01*
X128825770Y-100596865D01*
X129006597Y-100239108D01*
X129114155Y-99852947D01*
X129140527Y-99503364D01*
X129299570Y-99535000D01*
X129700430Y-99535000D01*
X130093587Y-99456796D01*
X130463934Y-99303393D01*
X130465001Y-99302680D01*
X130465002Y-105360197D01*
X130465002Y-105360197D01*
G37*
X130465002Y-105360197D02*
X130289002Y-105536197D01*
X130288996Y-105536202D01*
X130197521Y-105627677D01*
X129993587Y-105543204D01*
X129600430Y-105465000D01*
X129199570Y-105465000D01*
X128806413Y-105543204D01*
X128436066Y-105696607D01*
X128102763Y-105919313D01*
X127819313Y-106202763D01*
X127596607Y-106536066D01*
X127443204Y-106906413D01*
X127365000Y-107299570D01*
X127365000Y-107489202D01*
X127352947Y-107485845D01*
X126953223Y-107455690D01*
X126555296Y-107504096D01*
X126174460Y-107629205D01*
X125903135Y-107774230D01*
X125759159Y-108079551D01*
X125660000Y-107980392D01*
X125660000Y-100950980D01*
X125744314Y-101035294D01*
X125859159Y-100920449D01*
X126003135Y-101225770D01*
X126360892Y-101406597D01*
X126747053Y-101514155D01*
X127146777Y-101544310D01*
X127544704Y-101495904D01*
X127925540Y-101370795D01*
X128196865Y-101225770D01*
X128340842Y-100920447D01*
X127100000Y-99679605D01*
X127085858Y-99693748D01*
X126906253Y-99514143D01*
X126920395Y-99500000D01*
X126906253Y-99485858D01*
X127085858Y-99306253D01*
X127100000Y-99320395D01*
X127114143Y-99306253D01*
X127293748Y-99485858D01*
X127279605Y-99500000D01*
X128520447Y-100740842D01*
X128825770Y-100596865D01*
X129006597Y-100239108D01*
X129114155Y-99852947D01*
X129140527Y-99503364D01*
X129299570Y-99535000D01*
X129700430Y-99535000D01*
X130093587Y-99456796D01*
X130463934Y-99303393D01*
X130465001Y-99302680D01*
X130465002Y-105360197D01*
G36*
X151920000Y-98978000D02*
G01*
X151940000Y-98978000D01*
X151940000Y-99232000D01*
X151920000Y-99232000D01*
X151920000Y-101518000D01*
X151940000Y-101518000D01*
X151940000Y-101772000D01*
X151920000Y-101772000D01*
X151920000Y-104058000D01*
X151940000Y-104058000D01*
X151940000Y-104312000D01*
X151920000Y-104312000D01*
X151920000Y-104332000D01*
X151666000Y-104332000D01*
X151666000Y-104312000D01*
X151646000Y-104312000D01*
X151646000Y-104058000D01*
X151666000Y-104058000D01*
X151666000Y-101772000D01*
X151646000Y-101772000D01*
X151646000Y-101518000D01*
X151666000Y-101518000D01*
X151666000Y-99232000D01*
X151646000Y-99232000D01*
X151646000Y-98978000D01*
X151666000Y-98978000D01*
X151666000Y-98958000D01*
X151920000Y-98958000D01*
X151920000Y-98978000D01*
X151920000Y-98978000D01*
G37*
X151920000Y-98978000D02*
X151940000Y-98978000D01*
X151940000Y-99232000D01*
X151920000Y-99232000D01*
X151920000Y-101518000D01*
X151940000Y-101518000D01*
X151940000Y-101772000D01*
X151920000Y-101772000D01*
X151920000Y-104058000D01*
X151940000Y-104058000D01*
X151940000Y-104312000D01*
X151920000Y-104312000D01*
X151920000Y-104332000D01*
X151666000Y-104332000D01*
X151666000Y-104312000D01*
X151646000Y-104312000D01*
X151646000Y-104058000D01*
X151666000Y-104058000D01*
X151666000Y-101772000D01*
X151646000Y-101772000D01*
X151646000Y-101518000D01*
X151666000Y-101518000D01*
X151666000Y-99232000D01*
X151646000Y-99232000D01*
X151646000Y-98978000D01*
X151666000Y-98978000D01*
X151666000Y-98958000D01*
X151920000Y-98958000D01*
X151920000Y-98978000D01*
G36*
X132414999Y-86716799D02*
G01*
X132414999Y-96551622D01*
X132301898Y-96504774D01*
X132101939Y-96465000D01*
X131956406Y-96465000D01*
X131930547Y-96379752D01*
X131859975Y-96247723D01*
X131765002Y-96131998D01*
X131736005Y-96108201D01*
X129034999Y-93407196D01*
X129034999Y-92965394D01*
X129264642Y-93024365D01*
X129566553Y-93040991D01*
X129865907Y-92998397D01*
X130151199Y-92898222D01*
X130300792Y-92818261D01*
X130384475Y-92564080D01*
X129500000Y-91679605D01*
X129485858Y-91693748D01*
X129306253Y-91514143D01*
X129320395Y-91500000D01*
X129679605Y-91500000D01*
X130564080Y-92384475D01*
X130818261Y-92300792D01*
X130949158Y-92028225D01*
X131024365Y-91735358D01*
X131040991Y-91433447D01*
X130998397Y-91134093D01*
X130898222Y-90848801D01*
X130818261Y-90699208D01*
X130564080Y-90615525D01*
X129679605Y-91500000D01*
X129320395Y-91500000D01*
X129306253Y-91485858D01*
X129485858Y-91306253D01*
X129500000Y-91320395D01*
X130384475Y-90435920D01*
X130335690Y-90287738D01*
X130478505Y-90192312D01*
X130692312Y-89978505D01*
X130860299Y-89727095D01*
X130976011Y-89447743D01*
X131035000Y-89151184D01*
X131035000Y-88848816D01*
X130976011Y-88552257D01*
X130860299Y-88272905D01*
X130692312Y-88021495D01*
X130478505Y-87807688D01*
X130392169Y-87750000D01*
X130478505Y-87692312D01*
X130692312Y-87478505D01*
X130860299Y-87227095D01*
X130976011Y-86947743D01*
X131035000Y-86651184D01*
X131035000Y-86348816D01*
X130976011Y-86052257D01*
X130860299Y-85772905D01*
X130692312Y-85521495D01*
X130478505Y-85307688D01*
X130227095Y-85139701D01*
X129947743Y-85023989D01*
X129651184Y-84965000D01*
X129348816Y-84965000D01*
X129052257Y-85023989D01*
X128772905Y-85139701D01*
X128521495Y-85307688D01*
X128307688Y-85521495D01*
X128139701Y-85772905D01*
X128023989Y-86052257D01*
X127965000Y-86348816D01*
X127965000Y-86651184D01*
X128016269Y-86908930D01*
X127764002Y-87161197D01*
X127734998Y-87185000D01*
X127700452Y-87227095D01*
X127640025Y-87300725D01*
X127569454Y-87432754D01*
X127569453Y-87432755D01*
X127525996Y-87576016D01*
X127514999Y-87687669D01*
X127514999Y-87687679D01*
X127511323Y-87725001D01*
X127514999Y-87762324D01*
X127515000Y-93684665D01*
X127511323Y-93721997D01*
X127525997Y-93870982D01*
X127569453Y-94014243D01*
X127640025Y-94146273D01*
X127711200Y-94232999D01*
X127734999Y-94261998D01*
X127763997Y-94285796D01*
X129002326Y-95524126D01*
X128906413Y-95543204D01*
X128536066Y-95696607D01*
X128202763Y-95919313D01*
X127919313Y-96202763D01*
X127696607Y-96536066D01*
X127543204Y-96906413D01*
X127465000Y-97299570D01*
X127465000Y-97489202D01*
X127452947Y-97485845D01*
X127053223Y-97455690D01*
X126655296Y-97504096D01*
X126274460Y-97629205D01*
X126003135Y-97774230D01*
X125859159Y-98079551D01*
X125744314Y-97964706D01*
X125660000Y-98049020D01*
X125660000Y-82797475D01*
X125807688Y-83018505D01*
X126021495Y-83232312D01*
X126272905Y-83400299D01*
X126552257Y-83516011D01*
X126848816Y-83575000D01*
X127151184Y-83575000D01*
X127447743Y-83516011D01*
X127727095Y-83400299D01*
X127978505Y-83232312D01*
X128192312Y-83018505D01*
X128360299Y-82767095D01*
X128391052Y-82692851D01*
X132414999Y-86716799D01*
X132414999Y-86716799D01*
G37*
X132414999Y-86716799D02*
X132414999Y-96551622D01*
X132301898Y-96504774D01*
X132101939Y-96465000D01*
X131956406Y-96465000D01*
X131930547Y-96379752D01*
X131859975Y-96247723D01*
X131765002Y-96131998D01*
X131736005Y-96108201D01*
X129034999Y-93407196D01*
X129034999Y-92965394D01*
X129264642Y-93024365D01*
X129566553Y-93040991D01*
X129865907Y-92998397D01*
X130151199Y-92898222D01*
X130300792Y-92818261D01*
X130384475Y-92564080D01*
X129500000Y-91679605D01*
X129485858Y-91693748D01*
X129306253Y-91514143D01*
X129320395Y-91500000D01*
X129679605Y-91500000D01*
X130564080Y-92384475D01*
X130818261Y-92300792D01*
X130949158Y-92028225D01*
X131024365Y-91735358D01*
X131040991Y-91433447D01*
X130998397Y-91134093D01*
X130898222Y-90848801D01*
X130818261Y-90699208D01*
X130564080Y-90615525D01*
X129679605Y-91500000D01*
X129320395Y-91500000D01*
X129306253Y-91485858D01*
X129485858Y-91306253D01*
X129500000Y-91320395D01*
X130384475Y-90435920D01*
X130335690Y-90287738D01*
X130478505Y-90192312D01*
X130692312Y-89978505D01*
X130860299Y-89727095D01*
X130976011Y-89447743D01*
X131035000Y-89151184D01*
X131035000Y-88848816D01*
X130976011Y-88552257D01*
X130860299Y-88272905D01*
X130692312Y-88021495D01*
X130478505Y-87807688D01*
X130392169Y-87750000D01*
X130478505Y-87692312D01*
X130692312Y-87478505D01*
X130860299Y-87227095D01*
X130976011Y-86947743D01*
X131035000Y-86651184D01*
X131035000Y-86348816D01*
X130976011Y-86052257D01*
X130860299Y-85772905D01*
X130692312Y-85521495D01*
X130478505Y-85307688D01*
X130227095Y-85139701D01*
X129947743Y-85023989D01*
X129651184Y-84965000D01*
X129348816Y-84965000D01*
X129052257Y-85023989D01*
X128772905Y-85139701D01*
X128521495Y-85307688D01*
X128307688Y-85521495D01*
X128139701Y-85772905D01*
X128023989Y-86052257D01*
X127965000Y-86348816D01*
X127965000Y-86651184D01*
X128016269Y-86908930D01*
X127764002Y-87161197D01*
X127734998Y-87185000D01*
X127700452Y-87227095D01*
X127640025Y-87300725D01*
X127569454Y-87432754D01*
X127569453Y-87432755D01*
X127525996Y-87576016D01*
X127514999Y-87687669D01*
X127514999Y-87687679D01*
X127511323Y-87725001D01*
X127514999Y-87762324D01*
X127515000Y-93684665D01*
X127511323Y-93721997D01*
X127525997Y-93870982D01*
X127569453Y-94014243D01*
X127640025Y-94146273D01*
X127711200Y-94232999D01*
X127734999Y-94261998D01*
X127763997Y-94285796D01*
X129002326Y-95524126D01*
X128906413Y-95543204D01*
X128536066Y-95696607D01*
X128202763Y-95919313D01*
X127919313Y-96202763D01*
X127696607Y-96536066D01*
X127543204Y-96906413D01*
X127465000Y-97299570D01*
X127465000Y-97489202D01*
X127452947Y-97485845D01*
X127053223Y-97455690D01*
X126655296Y-97504096D01*
X126274460Y-97629205D01*
X126003135Y-97774230D01*
X125859159Y-98079551D01*
X125744314Y-97964706D01*
X125660000Y-98049020D01*
X125660000Y-82797475D01*
X125807688Y-83018505D01*
X126021495Y-83232312D01*
X126272905Y-83400299D01*
X126552257Y-83516011D01*
X126848816Y-83575000D01*
X127151184Y-83575000D01*
X127447743Y-83516011D01*
X127727095Y-83400299D01*
X127978505Y-83232312D01*
X128192312Y-83018505D01*
X128360299Y-82767095D01*
X128391052Y-82692851D01*
X132414999Y-86716799D01*
G36*
X154340000Y-90363919D02*
G01*
X154330547Y-90332754D01*
X154259975Y-90200725D01*
X154244394Y-90181739D01*
X154188800Y-90113997D01*
X154188796Y-90113993D01*
X154165002Y-90085000D01*
X154136010Y-90061207D01*
X149103804Y-85029003D01*
X149080001Y-84999999D01*
X148964276Y-84905026D01*
X148832247Y-84834454D01*
X148688986Y-84790997D01*
X148577333Y-84780000D01*
X148577322Y-84780000D01*
X148540000Y-84776324D01*
X148502678Y-84780000D01*
X146100901Y-84780000D01*
X146078932Y-84738899D01*
X145989670Y-84630133D01*
X151590133Y-79029670D01*
X151698899Y-79118932D01*
X151831858Y-79190000D01*
X151698899Y-79261068D01*
X151480392Y-79440392D01*
X151301068Y-79658899D01*
X151167818Y-79908192D01*
X151085764Y-80178691D01*
X151058057Y-80460000D01*
X151085764Y-80741309D01*
X151167818Y-81011808D01*
X151301068Y-81261101D01*
X151480392Y-81479608D01*
X151698899Y-81658932D01*
X151831858Y-81730000D01*
X151698899Y-81801068D01*
X151480392Y-81980392D01*
X151301068Y-82198899D01*
X151167818Y-82448192D01*
X151085764Y-82718691D01*
X151058057Y-83000000D01*
X151085764Y-83281309D01*
X151167818Y-83551808D01*
X151301068Y-83801101D01*
X151480392Y-84019608D01*
X151698899Y-84198932D01*
X151831858Y-84270000D01*
X151698899Y-84341068D01*
X151480392Y-84520392D01*
X151301068Y-84738899D01*
X151167818Y-84988192D01*
X151085764Y-85258691D01*
X151058057Y-85540000D01*
X151085764Y-85821309D01*
X151167818Y-86091808D01*
X151301068Y-86341101D01*
X151480392Y-86559608D01*
X151698899Y-86738932D01*
X151948192Y-86872182D01*
X152218691Y-86954236D01*
X152429508Y-86975000D01*
X152570492Y-86975000D01*
X152781309Y-86954236D01*
X153051808Y-86872182D01*
X153301101Y-86738932D01*
X153519608Y-86559608D01*
X153698932Y-86341101D01*
X153832182Y-86091808D01*
X153914236Y-85821309D01*
X153941943Y-85540000D01*
X153914236Y-85258691D01*
X153832182Y-84988192D01*
X153698932Y-84738899D01*
X153519608Y-84520392D01*
X153301101Y-84341068D01*
X153168142Y-84270000D01*
X153301101Y-84198932D01*
X153519608Y-84019608D01*
X153698932Y-83801101D01*
X153832182Y-83551808D01*
X153914236Y-83281309D01*
X153941943Y-83000000D01*
X153914236Y-82718691D01*
X153832182Y-82448192D01*
X153698932Y-82198899D01*
X153519608Y-81980392D01*
X153301101Y-81801068D01*
X153168142Y-81730000D01*
X153301101Y-81658932D01*
X153519608Y-81479608D01*
X153698932Y-81261101D01*
X153832182Y-81011808D01*
X153914236Y-80741309D01*
X153941943Y-80460000D01*
X153914236Y-80178691D01*
X153832182Y-79908192D01*
X153698932Y-79658899D01*
X153519608Y-79440392D01*
X153301101Y-79261068D01*
X153168142Y-79190000D01*
X153301101Y-79118932D01*
X153519608Y-78939608D01*
X153698932Y-78721101D01*
X153832182Y-78471808D01*
X153914236Y-78201309D01*
X153941943Y-77920000D01*
X153914236Y-77638691D01*
X153832182Y-77368192D01*
X153698932Y-77118899D01*
X153519608Y-76900392D01*
X153301101Y-76721068D01*
X153163318Y-76647421D01*
X153355131Y-76532385D01*
X153563519Y-76343414D01*
X153731037Y-76117420D01*
X153851246Y-75863087D01*
X153891904Y-75729039D01*
X153769915Y-75507000D01*
X152627000Y-75507000D01*
X152627000Y-75527000D01*
X152373000Y-75527000D01*
X152373000Y-75507000D01*
X151230085Y-75507000D01*
X151108096Y-75729039D01*
X151148754Y-75863087D01*
X151268963Y-76117420D01*
X151436481Y-76343414D01*
X151644869Y-76532385D01*
X151836682Y-76647421D01*
X151698899Y-76721068D01*
X151480392Y-76900392D01*
X151301068Y-77118899D01*
X151216889Y-77276387D01*
X151200726Y-77285026D01*
X151085001Y-77379999D01*
X151061203Y-77408997D01*
X149035000Y-79435200D01*
X149035000Y-79398061D01*
X148995226Y-79198102D01*
X148917205Y-79009744D01*
X148803937Y-78840226D01*
X148659774Y-78696063D01*
X148490256Y-78582795D01*
X148301898Y-78504774D01*
X148101939Y-78465000D01*
X147898061Y-78465000D01*
X147698102Y-78504774D01*
X147509744Y-78582795D01*
X147340226Y-78696063D01*
X147296289Y-78740000D01*
X146774803Y-78740000D01*
X146280708Y-78245906D01*
X146281054Y-78244765D01*
X146340226Y-78303937D01*
X146509744Y-78417205D01*
X146698102Y-78495226D01*
X146898061Y-78535000D01*
X147101939Y-78535000D01*
X147301898Y-78495226D01*
X147490256Y-78417205D01*
X147659774Y-78303937D01*
X147803937Y-78159774D01*
X147917205Y-77990256D01*
X147995226Y-77801898D01*
X148035000Y-77601939D01*
X148035000Y-77398061D01*
X147995226Y-77198102D01*
X147917205Y-77009744D01*
X147803937Y-76840226D01*
X147760000Y-76796289D01*
X147760000Y-76114801D01*
X151060598Y-72814204D01*
X151058057Y-72840000D01*
X151085764Y-73121309D01*
X151167818Y-73391808D01*
X151301068Y-73641101D01*
X151480392Y-73859608D01*
X151698899Y-74038932D01*
X151836682Y-74112579D01*
X151644869Y-74227615D01*
X151436481Y-74416586D01*
X151268963Y-74642580D01*
X151148754Y-74896913D01*
X151108096Y-75030961D01*
X151230085Y-75253000D01*
X152373000Y-75253000D01*
X152373000Y-75233000D01*
X152627000Y-75233000D01*
X152627000Y-75253000D01*
X153769915Y-75253000D01*
X153891904Y-75030961D01*
X153851246Y-74896913D01*
X153731037Y-74642580D01*
X153563519Y-74416586D01*
X153355131Y-74227615D01*
X153163318Y-74112579D01*
X153301101Y-74038932D01*
X153519608Y-73859608D01*
X153698932Y-73641101D01*
X153832182Y-73391808D01*
X153914236Y-73121309D01*
X153941943Y-72840000D01*
X153914236Y-72558691D01*
X153832182Y-72288192D01*
X153698932Y-72038899D01*
X153519608Y-71820392D01*
X153301101Y-71641068D01*
X153168142Y-71570000D01*
X153301101Y-71498932D01*
X153519608Y-71319608D01*
X153698932Y-71101101D01*
X153832182Y-70851808D01*
X153914236Y-70581309D01*
X153941943Y-70300000D01*
X153914236Y-70018691D01*
X153832182Y-69748192D01*
X153698932Y-69498899D01*
X153519608Y-69280392D01*
X153301101Y-69101068D01*
X153051808Y-68967818D01*
X152781309Y-68885764D01*
X152570492Y-68865000D01*
X152429508Y-68865000D01*
X152218691Y-68885764D01*
X151948192Y-68967818D01*
X151698899Y-69101068D01*
X151480392Y-69280392D01*
X151301068Y-69498899D01*
X151167818Y-69748192D01*
X151085764Y-70018691D01*
X151058057Y-70300000D01*
X151085764Y-70581309D01*
X151099292Y-70625906D01*
X148013085Y-73712114D01*
X148035000Y-73601939D01*
X148035000Y-73398061D01*
X147995226Y-73198102D01*
X147917205Y-73009744D01*
X147803937Y-72840226D01*
X147760000Y-72796289D01*
X147760000Y-65314801D01*
X151401014Y-61673788D01*
X151430011Y-61649991D01*
X151496099Y-61569463D01*
X151524984Y-61534267D01*
X151595556Y-61402237D01*
X151595556Y-61402236D01*
X151639013Y-61258976D01*
X151650010Y-61147323D01*
X151650010Y-61147313D01*
X151653686Y-61109990D01*
X151650010Y-61072667D01*
X151650010Y-56652332D01*
X151653686Y-56615009D01*
X151650010Y-56577686D01*
X151650010Y-56577677D01*
X151639013Y-56466024D01*
X151595556Y-56322763D01*
X151567313Y-56269925D01*
X151524984Y-56190733D01*
X151453809Y-56104007D01*
X151430011Y-56075009D01*
X151401013Y-56051211D01*
X149676831Y-54327029D01*
X149812601Y-54368215D01*
X150040000Y-54390612D01*
X150267400Y-54368215D01*
X150486060Y-54301885D01*
X150687579Y-54194171D01*
X150864212Y-54049212D01*
X151009171Y-53872579D01*
X151098238Y-53705945D01*
X151740000Y-54347707D01*
X151740001Y-65781956D01*
X151585241Y-65885363D01*
X151385363Y-66085241D01*
X151250000Y-66287827D01*
X151114637Y-66085241D01*
X150914759Y-65885363D01*
X150679727Y-65728320D01*
X150418574Y-65620147D01*
X150141335Y-65565000D01*
X149858665Y-65565000D01*
X149581426Y-65620147D01*
X149320273Y-65728320D01*
X149085241Y-65885363D01*
X148885363Y-66085241D01*
X148728320Y-66320273D01*
X148620147Y-66581426D01*
X148565000Y-66858665D01*
X148565000Y-67141335D01*
X148620147Y-67418574D01*
X148728320Y-67679727D01*
X148885363Y-67914759D01*
X149085241Y-68114637D01*
X149320273Y-68271680D01*
X149581426Y-68379853D01*
X149858665Y-68435000D01*
X150141335Y-68435000D01*
X150418574Y-68379853D01*
X150679727Y-68271680D01*
X150914759Y-68114637D01*
X151114637Y-67914759D01*
X151250000Y-67712173D01*
X151385363Y-67914759D01*
X151585241Y-68114637D01*
X151820273Y-68271680D01*
X152081426Y-68379853D01*
X152358665Y-68435000D01*
X152641335Y-68435000D01*
X152918574Y-68379853D01*
X153179727Y-68271680D01*
X153414759Y-68114637D01*
X153614637Y-67914759D01*
X153771680Y-67679727D01*
X153879853Y-67418574D01*
X153935000Y-67141335D01*
X153935000Y-66858665D01*
X153879853Y-66581426D01*
X153771680Y-66320273D01*
X153614637Y-66085241D01*
X153414759Y-65885363D01*
X153260000Y-65781957D01*
X153260000Y-54070227D01*
X153263676Y-54032904D01*
X153260000Y-53995581D01*
X153260000Y-53995572D01*
X153249003Y-53883919D01*
X153205546Y-53740658D01*
X153134974Y-53608629D01*
X153040001Y-53492904D01*
X153011004Y-53469107D01*
X145030899Y-45489003D01*
X145007096Y-45459999D01*
X144891371Y-45365026D01*
X144759342Y-45294454D01*
X144616081Y-45250997D01*
X144504428Y-45240000D01*
X144504417Y-45240000D01*
X144467095Y-45236324D01*
X144429773Y-45240000D01*
X139683298Y-45240000D01*
X139528555Y-45051445D01*
X139325275Y-44884618D01*
X139093354Y-44760653D01*
X138965741Y-44721942D01*
X139001366Y-44708935D01*
X139102203Y-44655037D01*
X139161664Y-44421269D01*
X138420000Y-43679605D01*
X137678336Y-44421269D01*
X137737797Y-44655037D01*
X137976242Y-44765934D01*
X138031554Y-44779410D01*
X137834725Y-44884618D01*
X137631445Y-45051445D01*
X137464618Y-45254725D01*
X137340653Y-45486646D01*
X137264317Y-45738294D01*
X137238541Y-46000000D01*
X137264317Y-46261706D01*
X137340653Y-46513354D01*
X137464618Y-46745275D01*
X137631445Y-46948555D01*
X137834725Y-47115382D01*
X138066646Y-47239347D01*
X138318294Y-47315683D01*
X138514421Y-47335000D01*
X138645579Y-47335000D01*
X138841706Y-47315683D01*
X139093354Y-47239347D01*
X139325275Y-47115382D01*
X139528555Y-46948555D01*
X139683298Y-46760000D01*
X144152294Y-46760000D01*
X148557283Y-51164990D01*
X144675341Y-51164990D01*
X144638008Y-51161313D01*
X144600675Y-51164990D01*
X144489022Y-51175987D01*
X144345761Y-51219444D01*
X144213732Y-51290016D01*
X144098007Y-51384989D01*
X144074209Y-51413987D01*
X131988998Y-63499199D01*
X131960000Y-63522997D01*
X131936202Y-63551995D01*
X131936201Y-63551996D01*
X131865026Y-63638722D01*
X131794454Y-63770752D01*
X131770108Y-63851013D01*
X131755249Y-63900000D01*
X131750998Y-63914013D01*
X131736324Y-64062998D01*
X131740001Y-64100331D01*
X131740000Y-83042678D01*
X131736324Y-83080000D01*
X131740000Y-83117322D01*
X131740000Y-83117332D01*
X131750997Y-83228985D01*
X131794454Y-83372246D01*
X131865026Y-83504276D01*
X131874657Y-83516011D01*
X131959999Y-83620001D01*
X131989003Y-83643804D01*
X133682450Y-85337252D01*
X133658541Y-85580000D01*
X133683750Y-85835946D01*
X128490079Y-80642276D01*
X128525812Y-80524482D01*
X128538072Y-80400000D01*
X128538072Y-78600000D01*
X128525812Y-78475518D01*
X128489502Y-78355820D01*
X128430537Y-78245506D01*
X128351185Y-78148815D01*
X128254494Y-78069463D01*
X128144180Y-78010498D01*
X128024482Y-77974188D01*
X127900000Y-77961928D01*
X126100000Y-77961928D01*
X125975518Y-77974188D01*
X125855820Y-78010498D01*
X125745506Y-78069463D01*
X125660000Y-78139636D01*
X125660000Y-76064080D01*
X128615525Y-76064080D01*
X128699208Y-76318261D01*
X128971775Y-76449158D01*
X129264642Y-76524365D01*
X129566553Y-76540991D01*
X129865907Y-76498397D01*
X130151199Y-76398222D01*
X130300792Y-76318261D01*
X130384475Y-76064080D01*
X129500000Y-75179605D01*
X128615525Y-76064080D01*
X125660000Y-76064080D01*
X125660000Y-75066553D01*
X127959009Y-75066553D01*
X128001603Y-75365907D01*
X128101778Y-75651199D01*
X128181739Y-75800792D01*
X128435920Y-75884475D01*
X129320395Y-75000000D01*
X129679605Y-75000000D01*
X130564080Y-75884475D01*
X130818261Y-75800792D01*
X130949158Y-75528225D01*
X131024365Y-75235358D01*
X131040991Y-74933447D01*
X130998397Y-74634093D01*
X130898222Y-74348801D01*
X130818261Y-74199208D01*
X130564080Y-74115525D01*
X129679605Y-75000000D01*
X129320395Y-75000000D01*
X128435920Y-74115525D01*
X128181739Y-74199208D01*
X128050842Y-74471775D01*
X127975635Y-74764642D01*
X127959009Y-75066553D01*
X125660000Y-75066553D01*
X125660000Y-66297475D01*
X125807688Y-66518505D01*
X126021495Y-66732312D01*
X126272905Y-66900299D01*
X126552257Y-67016011D01*
X126848816Y-67075000D01*
X127151184Y-67075000D01*
X127447743Y-67016011D01*
X127727095Y-66900299D01*
X127978505Y-66732312D01*
X128192312Y-66518505D01*
X128215000Y-66484550D01*
X128215000Y-68164875D01*
X128211323Y-68202207D01*
X128225997Y-68351192D01*
X128269453Y-68494453D01*
X128340025Y-68626483D01*
X128392050Y-68689875D01*
X128434999Y-68742208D01*
X128463997Y-68766006D01*
X128513587Y-68815596D01*
X128307688Y-69021495D01*
X128139701Y-69272905D01*
X128023989Y-69552257D01*
X127965000Y-69848816D01*
X127965000Y-70151184D01*
X128023989Y-70447743D01*
X128139701Y-70727095D01*
X128307688Y-70978505D01*
X128521495Y-71192312D01*
X128607831Y-71250000D01*
X128521495Y-71307688D01*
X128307688Y-71521495D01*
X128139701Y-71772905D01*
X128023989Y-72052257D01*
X127965000Y-72348816D01*
X127965000Y-72651184D01*
X128023989Y-72947743D01*
X128139701Y-73227095D01*
X128307688Y-73478505D01*
X128521495Y-73692312D01*
X128664310Y-73787738D01*
X128615525Y-73935920D01*
X129500000Y-74820395D01*
X130384475Y-73935920D01*
X130335690Y-73787738D01*
X130478505Y-73692312D01*
X130692312Y-73478505D01*
X130860299Y-73227095D01*
X130976011Y-72947743D01*
X131035000Y-72651184D01*
X131035000Y-72348816D01*
X130976011Y-72052257D01*
X130860299Y-71772905D01*
X130692312Y-71521495D01*
X130478505Y-71307688D01*
X130392169Y-71250000D01*
X130478505Y-71192312D01*
X130692312Y-70978505D01*
X130860299Y-70727095D01*
X130976011Y-70447743D01*
X131035000Y-70151184D01*
X131035000Y-69848816D01*
X130976011Y-69552257D01*
X130860299Y-69272905D01*
X130692312Y-69021495D01*
X130478505Y-68807688D01*
X130257028Y-68659702D01*
X130249003Y-68578222D01*
X130205546Y-68434961D01*
X130134974Y-68302932D01*
X130063799Y-68216205D01*
X130040001Y-68187207D01*
X130011003Y-68163410D01*
X129734999Y-67887406D01*
X129734999Y-64314683D01*
X129738294Y-64315683D01*
X129934421Y-64335000D01*
X130065579Y-64335000D01*
X130261706Y-64315683D01*
X130513354Y-64239347D01*
X130745275Y-64115382D01*
X130948555Y-63948555D01*
X131115382Y-63745275D01*
X131239347Y-63513354D01*
X131315683Y-63261706D01*
X131341459Y-63000000D01*
X131315683Y-62738294D01*
X131239347Y-62486646D01*
X131115382Y-62254725D01*
X130948555Y-62051445D01*
X130745275Y-61884618D01*
X130513354Y-61760653D01*
X130261706Y-61684317D01*
X130065579Y-61665000D01*
X129934421Y-61665000D01*
X129738294Y-61684317D01*
X129734999Y-61685317D01*
X129734999Y-57219700D01*
X129910997Y-57043702D01*
X129940001Y-57019899D01*
X130034974Y-56904174D01*
X130105546Y-56772145D01*
X130149003Y-56628884D01*
X130160000Y-56517231D01*
X130160000Y-56517222D01*
X130163676Y-56479899D01*
X130160000Y-56442576D01*
X130160000Y-56387865D01*
X130363934Y-56303393D01*
X130697237Y-56080687D01*
X130980687Y-55797237D01*
X131203393Y-55463934D01*
X131356796Y-55093587D01*
X131435000Y-54700430D01*
X131435000Y-54299570D01*
X132865000Y-54299570D01*
X132865000Y-54700430D01*
X132943204Y-55093587D01*
X133096607Y-55463934D01*
X133319313Y-55797237D01*
X133602763Y-56080687D01*
X133936066Y-56303393D01*
X134306413Y-56456796D01*
X134699570Y-56535000D01*
X135100430Y-56535000D01*
X135493587Y-56456796D01*
X135863934Y-56303393D01*
X136197237Y-56080687D01*
X136480687Y-55797237D01*
X136703393Y-55463934D01*
X136856796Y-55093587D01*
X136935000Y-54700430D01*
X136935000Y-54299570D01*
X136856796Y-53906413D01*
X136703393Y-53536066D01*
X136480687Y-53202763D01*
X136197237Y-52919313D01*
X135863934Y-52696607D01*
X135493587Y-52543204D01*
X135100430Y-52465000D01*
X134699570Y-52465000D01*
X134306413Y-52543204D01*
X133936066Y-52696607D01*
X133602763Y-52919313D01*
X133319313Y-53202763D01*
X133096607Y-53536066D01*
X132943204Y-53906413D01*
X132865000Y-54299570D01*
X131435000Y-54299570D01*
X131356796Y-53906413D01*
X131203393Y-53536066D01*
X130980687Y-53202763D01*
X130697237Y-52919313D01*
X130363934Y-52696607D01*
X129993587Y-52543204D01*
X129600430Y-52465000D01*
X129199570Y-52465000D01*
X128806413Y-52543204D01*
X128436066Y-52696607D01*
X128102763Y-52919313D01*
X127819313Y-53202763D01*
X127596607Y-53536066D01*
X127443204Y-53906413D01*
X127365000Y-54299570D01*
X127365000Y-54489202D01*
X127352947Y-54485845D01*
X126953223Y-54455690D01*
X126555296Y-54504096D01*
X126174460Y-54629205D01*
X125903135Y-54774230D01*
X125759159Y-55079551D01*
X125660000Y-54980392D01*
X125660000Y-43348816D01*
X127965000Y-43348816D01*
X127965000Y-43651184D01*
X128023989Y-43947743D01*
X128139701Y-44227095D01*
X128307688Y-44478505D01*
X128521495Y-44692312D01*
X128607831Y-44750000D01*
X128521495Y-44807688D01*
X128307688Y-45021495D01*
X128139701Y-45272905D01*
X128023989Y-45552257D01*
X127965000Y-45848816D01*
X127965000Y-46151184D01*
X128023989Y-46447743D01*
X128139701Y-46727095D01*
X128307688Y-46978505D01*
X128521495Y-47192312D01*
X128607831Y-47250000D01*
X128521495Y-47307688D01*
X128307688Y-47521495D01*
X128139701Y-47772905D01*
X128023989Y-48052257D01*
X127965000Y-48348816D01*
X127965000Y-48651184D01*
X128023989Y-48947743D01*
X128139701Y-49227095D01*
X128307688Y-49478505D01*
X128521495Y-49692312D01*
X128772905Y-49860299D01*
X129052257Y-49976011D01*
X129348816Y-50035000D01*
X129651184Y-50035000D01*
X129947743Y-49976011D01*
X130227095Y-49860299D01*
X130478505Y-49692312D01*
X130692312Y-49478505D01*
X130860299Y-49227095D01*
X130976011Y-48947743D01*
X131035000Y-48651184D01*
X131035000Y-48348816D01*
X130976011Y-48052257D01*
X130860299Y-47772905D01*
X130692312Y-47521495D01*
X130478505Y-47307688D01*
X130392169Y-47250000D01*
X130478505Y-47192312D01*
X130692312Y-46978505D01*
X130860299Y-46727095D01*
X130976011Y-46447743D01*
X131035000Y-46151184D01*
X131035000Y-45848816D01*
X130976011Y-45552257D01*
X130860299Y-45272905D01*
X130692312Y-45021495D01*
X130478505Y-44807688D01*
X130392169Y-44750000D01*
X130478505Y-44692312D01*
X130692312Y-44478505D01*
X130860299Y-44227095D01*
X130976011Y-43947743D01*
X131035000Y-43651184D01*
X131035000Y-43358665D01*
X132065000Y-43358665D01*
X132065000Y-43641335D01*
X132120147Y-43918574D01*
X132228320Y-44179727D01*
X132385363Y-44414759D01*
X132585241Y-44614637D01*
X132820273Y-44771680D01*
X132898589Y-44804120D01*
X132867641Y-44816939D01*
X132648987Y-44963038D01*
X132463038Y-45148987D01*
X132316939Y-45367641D01*
X132216304Y-45610595D01*
X132165000Y-45868514D01*
X132165000Y-46131486D01*
X132216304Y-46389405D01*
X132316939Y-46632359D01*
X132463038Y-46851013D01*
X132648987Y-47036962D01*
X132867641Y-47183061D01*
X132898589Y-47195880D01*
X132820273Y-47228320D01*
X132585241Y-47385363D01*
X132385363Y-47585241D01*
X132228320Y-47820273D01*
X132120147Y-48081426D01*
X132065000Y-48358665D01*
X132065000Y-48641335D01*
X132120147Y-48918574D01*
X132228320Y-49179727D01*
X132385363Y-49414759D01*
X132585241Y-49614637D01*
X132820273Y-49771680D01*
X133081426Y-49879853D01*
X133358665Y-49935000D01*
X133641335Y-49935000D01*
X133918574Y-49879853D01*
X134179727Y-49771680D01*
X134414759Y-49614637D01*
X134536694Y-49492702D01*
X135186903Y-49492702D01*
X135258486Y-49736671D01*
X135513996Y-49857571D01*
X135788184Y-49926300D01*
X136070512Y-49940217D01*
X136350130Y-49898787D01*
X136616292Y-49803603D01*
X136741514Y-49736671D01*
X136813097Y-49492702D01*
X136000000Y-48679605D01*
X135186903Y-49492702D01*
X134536694Y-49492702D01*
X134614637Y-49414759D01*
X134748692Y-49214131D01*
X134763329Y-49241514D01*
X135007298Y-49313097D01*
X135820395Y-48500000D01*
X136179605Y-48500000D01*
X136992702Y-49313097D01*
X137236671Y-49241514D01*
X137357571Y-48986004D01*
X137426300Y-48711816D01*
X137440217Y-48429488D01*
X137398787Y-48149870D01*
X137303603Y-47883708D01*
X137236671Y-47758486D01*
X136992702Y-47686903D01*
X136179605Y-48500000D01*
X135820395Y-48500000D01*
X135007298Y-47686903D01*
X134763329Y-47758486D01*
X134749676Y-47787341D01*
X134614637Y-47585241D01*
X134536694Y-47507298D01*
X135186903Y-47507298D01*
X136000000Y-48320395D01*
X136813097Y-47507298D01*
X136741514Y-47263329D01*
X136486004Y-47142429D01*
X136211816Y-47073700D01*
X135929488Y-47059783D01*
X135649870Y-47101213D01*
X135383708Y-47196397D01*
X135258486Y-47263329D01*
X135186903Y-47507298D01*
X134536694Y-47507298D01*
X134414759Y-47385363D01*
X134179727Y-47228320D01*
X134101411Y-47195880D01*
X134132359Y-47183061D01*
X134351013Y-47036962D01*
X134536962Y-46851013D01*
X134683061Y-46632359D01*
X134783696Y-46389405D01*
X134835000Y-46131486D01*
X134835000Y-45868514D01*
X134783696Y-45610595D01*
X134683061Y-45367641D01*
X134536962Y-45148987D01*
X134351013Y-44963038D01*
X134132359Y-44816939D01*
X134101411Y-44804120D01*
X134179727Y-44771680D01*
X134414759Y-44614637D01*
X134536694Y-44492702D01*
X135186903Y-44492702D01*
X135258486Y-44736671D01*
X135513996Y-44857571D01*
X135788184Y-44926300D01*
X136070512Y-44940217D01*
X136350130Y-44898787D01*
X136616292Y-44803603D01*
X136741514Y-44736671D01*
X136813097Y-44492702D01*
X136000000Y-43679605D01*
X135186903Y-44492702D01*
X134536694Y-44492702D01*
X134614637Y-44414759D01*
X134748692Y-44214131D01*
X134763329Y-44241514D01*
X135007298Y-44313097D01*
X135820395Y-43500000D01*
X136179605Y-43500000D01*
X136992702Y-44313097D01*
X137236671Y-44241514D01*
X137264842Y-44181977D01*
X137264963Y-44182203D01*
X137498731Y-44241664D01*
X138240395Y-43500000D01*
X138599605Y-43500000D01*
X139341269Y-44241664D01*
X139575037Y-44182203D01*
X139685934Y-43943758D01*
X139748183Y-43688260D01*
X139756213Y-43500000D01*
X142158541Y-43500000D01*
X142184317Y-43761706D01*
X142260653Y-44013354D01*
X142384618Y-44245275D01*
X142551445Y-44448555D01*
X142754725Y-44615382D01*
X142986646Y-44739347D01*
X143238294Y-44815683D01*
X143434421Y-44835000D01*
X143565579Y-44835000D01*
X143761706Y-44815683D01*
X144013354Y-44739347D01*
X144245275Y-44615382D01*
X144448555Y-44448555D01*
X144615382Y-44245275D01*
X144739347Y-44013354D01*
X144815683Y-43761706D01*
X144841459Y-43500000D01*
X144815683Y-43238294D01*
X144739347Y-42986646D01*
X144615382Y-42754725D01*
X144448555Y-42551445D01*
X144245275Y-42384618D01*
X144013354Y-42260653D01*
X143761706Y-42184317D01*
X143565579Y-42165000D01*
X143434421Y-42165000D01*
X143238294Y-42184317D01*
X142986646Y-42260653D01*
X142754725Y-42384618D01*
X142551445Y-42551445D01*
X142384618Y-42754725D01*
X142260653Y-42986646D01*
X142184317Y-43238294D01*
X142158541Y-43500000D01*
X139756213Y-43500000D01*
X139759390Y-43425527D01*
X139719125Y-43165656D01*
X139628935Y-42918634D01*
X139575037Y-42817797D01*
X139341269Y-42758336D01*
X138599605Y-43500000D01*
X138240395Y-43500000D01*
X137498731Y-42758336D01*
X137267965Y-42817033D01*
X137236671Y-42758486D01*
X136992702Y-42686903D01*
X136179605Y-43500000D01*
X135820395Y-43500000D01*
X135007298Y-42686903D01*
X134763329Y-42758486D01*
X134749676Y-42787341D01*
X134614637Y-42585241D01*
X134536694Y-42507298D01*
X135186903Y-42507298D01*
X136000000Y-43320395D01*
X136741664Y-42578731D01*
X137678336Y-42578731D01*
X138420000Y-43320395D01*
X139161664Y-42578731D01*
X139102203Y-42344963D01*
X138863758Y-42234066D01*
X138608260Y-42171817D01*
X138345527Y-42160610D01*
X138085656Y-42200875D01*
X137838634Y-42291065D01*
X137737797Y-42344963D01*
X137678336Y-42578731D01*
X136741664Y-42578731D01*
X136813097Y-42507298D01*
X136741514Y-42263329D01*
X136486004Y-42142429D01*
X136211816Y-42073700D01*
X135929488Y-42059783D01*
X135649870Y-42101213D01*
X135383708Y-42196397D01*
X135258486Y-42263329D01*
X135186903Y-42507298D01*
X134536694Y-42507298D01*
X134414759Y-42385363D01*
X134179727Y-42228320D01*
X133918574Y-42120147D01*
X133641335Y-42065000D01*
X133358665Y-42065000D01*
X133081426Y-42120147D01*
X132820273Y-42228320D01*
X132585241Y-42385363D01*
X132385363Y-42585241D01*
X132228320Y-42820273D01*
X132120147Y-43081426D01*
X132065000Y-43358665D01*
X131035000Y-43358665D01*
X131035000Y-43348816D01*
X130976011Y-43052257D01*
X130860299Y-42772905D01*
X130692312Y-42521495D01*
X130478505Y-42307688D01*
X130227095Y-42139701D01*
X129947743Y-42023989D01*
X129651184Y-41965000D01*
X129348816Y-41965000D01*
X129052257Y-42023989D01*
X128772905Y-42139701D01*
X128521495Y-42307688D01*
X128307688Y-42521495D01*
X128139701Y-42772905D01*
X128023989Y-43052257D01*
X127965000Y-43348816D01*
X125660000Y-43348816D01*
X125660000Y-40660000D01*
X154340001Y-40660000D01*
X154340000Y-90363919D01*
X154340000Y-90363919D01*
G37*
X154340000Y-90363919D02*
X154330547Y-90332754D01*
X154259975Y-90200725D01*
X154244394Y-90181739D01*
X154188800Y-90113997D01*
X154188796Y-90113993D01*
X154165002Y-90085000D01*
X154136010Y-90061207D01*
X149103804Y-85029003D01*
X149080001Y-84999999D01*
X148964276Y-84905026D01*
X148832247Y-84834454D01*
X148688986Y-84790997D01*
X148577333Y-84780000D01*
X148577322Y-84780000D01*
X148540000Y-84776324D01*
X148502678Y-84780000D01*
X146100901Y-84780000D01*
X146078932Y-84738899D01*
X145989670Y-84630133D01*
X151590133Y-79029670D01*
X151698899Y-79118932D01*
X151831858Y-79190000D01*
X151698899Y-79261068D01*
X151480392Y-79440392D01*
X151301068Y-79658899D01*
X151167818Y-79908192D01*
X151085764Y-80178691D01*
X151058057Y-80460000D01*
X151085764Y-80741309D01*
X151167818Y-81011808D01*
X151301068Y-81261101D01*
X151480392Y-81479608D01*
X151698899Y-81658932D01*
X151831858Y-81730000D01*
X151698899Y-81801068D01*
X151480392Y-81980392D01*
X151301068Y-82198899D01*
X151167818Y-82448192D01*
X151085764Y-82718691D01*
X151058057Y-83000000D01*
X151085764Y-83281309D01*
X151167818Y-83551808D01*
X151301068Y-83801101D01*
X151480392Y-84019608D01*
X151698899Y-84198932D01*
X151831858Y-84270000D01*
X151698899Y-84341068D01*
X151480392Y-84520392D01*
X151301068Y-84738899D01*
X151167818Y-84988192D01*
X151085764Y-85258691D01*
X151058057Y-85540000D01*
X151085764Y-85821309D01*
X151167818Y-86091808D01*
X151301068Y-86341101D01*
X151480392Y-86559608D01*
X151698899Y-86738932D01*
X151948192Y-86872182D01*
X152218691Y-86954236D01*
X152429508Y-86975000D01*
X152570492Y-86975000D01*
X152781309Y-86954236D01*
X153051808Y-86872182D01*
X153301101Y-86738932D01*
X153519608Y-86559608D01*
X153698932Y-86341101D01*
X153832182Y-86091808D01*
X153914236Y-85821309D01*
X153941943Y-85540000D01*
X153914236Y-85258691D01*
X153832182Y-84988192D01*
X153698932Y-84738899D01*
X153519608Y-84520392D01*
X153301101Y-84341068D01*
X153168142Y-84270000D01*
X153301101Y-84198932D01*
X153519608Y-84019608D01*
X153698932Y-83801101D01*
X153832182Y-83551808D01*
X153914236Y-83281309D01*
X153941943Y-83000000D01*
X153914236Y-82718691D01*
X153832182Y-82448192D01*
X153698932Y-82198899D01*
X153519608Y-81980392D01*
X153301101Y-81801068D01*
X153168142Y-81730000D01*
X153301101Y-81658932D01*
X153519608Y-81479608D01*
X153698932Y-81261101D01*
X153832182Y-81011808D01*
X153914236Y-80741309D01*
X153941943Y-80460000D01*
X153914236Y-80178691D01*
X153832182Y-79908192D01*
X153698932Y-79658899D01*
X153519608Y-79440392D01*
X153301101Y-79261068D01*
X153168142Y-79190000D01*
X153301101Y-79118932D01*
X153519608Y-78939608D01*
X153698932Y-78721101D01*
X153832182Y-78471808D01*
X153914236Y-78201309D01*
X153941943Y-77920000D01*
X153914236Y-77638691D01*
X153832182Y-77368192D01*
X153698932Y-77118899D01*
X153519608Y-76900392D01*
X153301101Y-76721068D01*
X153163318Y-76647421D01*
X153355131Y-76532385D01*
X153563519Y-76343414D01*
X153731037Y-76117420D01*
X153851246Y-75863087D01*
X153891904Y-75729039D01*
X153769915Y-75507000D01*
X152627000Y-75507000D01*
X152627000Y-75527000D01*
X152373000Y-75527000D01*
X152373000Y-75507000D01*
X151230085Y-75507000D01*
X151108096Y-75729039D01*
X151148754Y-75863087D01*
X151268963Y-76117420D01*
X151436481Y-76343414D01*
X151644869Y-76532385D01*
X151836682Y-76647421D01*
X151698899Y-76721068D01*
X151480392Y-76900392D01*
X151301068Y-77118899D01*
X151216889Y-77276387D01*
X151200726Y-77285026D01*
X151085001Y-77379999D01*
X151061203Y-77408997D01*
X149035000Y-79435200D01*
X149035000Y-79398061D01*
X148995226Y-79198102D01*
X148917205Y-79009744D01*
X148803937Y-78840226D01*
X148659774Y-78696063D01*
X148490256Y-78582795D01*
X148301898Y-78504774D01*
X148101939Y-78465000D01*
X147898061Y-78465000D01*
X147698102Y-78504774D01*
X147509744Y-78582795D01*
X147340226Y-78696063D01*
X147296289Y-78740000D01*
X146774803Y-78740000D01*
X146280708Y-78245906D01*
X146281054Y-78244765D01*
X146340226Y-78303937D01*
X146509744Y-78417205D01*
X146698102Y-78495226D01*
X146898061Y-78535000D01*
X147101939Y-78535000D01*
X147301898Y-78495226D01*
X147490256Y-78417205D01*
X147659774Y-78303937D01*
X147803937Y-78159774D01*
X147917205Y-77990256D01*
X147995226Y-77801898D01*
X148035000Y-77601939D01*
X148035000Y-77398061D01*
X147995226Y-77198102D01*
X147917205Y-77009744D01*
X147803937Y-76840226D01*
X147760000Y-76796289D01*
X147760000Y-76114801D01*
X151060598Y-72814204D01*
X151058057Y-72840000D01*
X151085764Y-73121309D01*
X151167818Y-73391808D01*
X151301068Y-73641101D01*
X151480392Y-73859608D01*
X151698899Y-74038932D01*
X151836682Y-74112579D01*
X151644869Y-74227615D01*
X151436481Y-74416586D01*
X151268963Y-74642580D01*
X151148754Y-74896913D01*
X151108096Y-75030961D01*
X151230085Y-75253000D01*
X152373000Y-75253000D01*
X152373000Y-75233000D01*
X152627000Y-75233000D01*
X152627000Y-75253000D01*
X153769915Y-75253000D01*
X153891904Y-75030961D01*
X153851246Y-74896913D01*
X153731037Y-74642580D01*
X153563519Y-74416586D01*
X153355131Y-74227615D01*
X153163318Y-74112579D01*
X153301101Y-74038932D01*
X153519608Y-73859608D01*
X153698932Y-73641101D01*
X153832182Y-73391808D01*
X153914236Y-73121309D01*
X153941943Y-72840000D01*
X153914236Y-72558691D01*
X153832182Y-72288192D01*
X153698932Y-72038899D01*
X153519608Y-71820392D01*
X153301101Y-71641068D01*
X153168142Y-71570000D01*
X153301101Y-71498932D01*
X153519608Y-71319608D01*
X153698932Y-71101101D01*
X153832182Y-70851808D01*
X153914236Y-70581309D01*
X153941943Y-70300000D01*
X153914236Y-70018691D01*
X153832182Y-69748192D01*
X153698932Y-69498899D01*
X153519608Y-69280392D01*
X153301101Y-69101068D01*
X153051808Y-68967818D01*
X152781309Y-68885764D01*
X152570492Y-68865000D01*
X152429508Y-68865000D01*
X152218691Y-68885764D01*
X151948192Y-68967818D01*
X151698899Y-69101068D01*
X151480392Y-69280392D01*
X151301068Y-69498899D01*
X151167818Y-69748192D01*
X151085764Y-70018691D01*
X151058057Y-70300000D01*
X151085764Y-70581309D01*
X151099292Y-70625906D01*
X148013085Y-73712114D01*
X148035000Y-73601939D01*
X148035000Y-73398061D01*
X147995226Y-73198102D01*
X147917205Y-73009744D01*
X147803937Y-72840226D01*
X147760000Y-72796289D01*
X147760000Y-65314801D01*
X151401014Y-61673788D01*
X151430011Y-61649991D01*
X151496099Y-61569463D01*
X151524984Y-61534267D01*
X151595556Y-61402237D01*
X151595556Y-61402236D01*
X151639013Y-61258976D01*
X151650010Y-61147323D01*
X151650010Y-61147313D01*
X151653686Y-61109990D01*
X151650010Y-61072667D01*
X151650010Y-56652332D01*
X151653686Y-56615009D01*
X151650010Y-56577686D01*
X151650010Y-56577677D01*
X151639013Y-56466024D01*
X151595556Y-56322763D01*
X151567313Y-56269925D01*
X151524984Y-56190733D01*
X151453809Y-56104007D01*
X151430011Y-56075009D01*
X151401013Y-56051211D01*
X149676831Y-54327029D01*
X149812601Y-54368215D01*
X150040000Y-54390612D01*
X150267400Y-54368215D01*
X150486060Y-54301885D01*
X150687579Y-54194171D01*
X150864212Y-54049212D01*
X151009171Y-53872579D01*
X151098238Y-53705945D01*
X151740000Y-54347707D01*
X151740001Y-65781956D01*
X151585241Y-65885363D01*
X151385363Y-66085241D01*
X151250000Y-66287827D01*
X151114637Y-66085241D01*
X150914759Y-65885363D01*
X150679727Y-65728320D01*
X150418574Y-65620147D01*
X150141335Y-65565000D01*
X149858665Y-65565000D01*
X149581426Y-65620147D01*
X149320273Y-65728320D01*
X149085241Y-65885363D01*
X148885363Y-66085241D01*
X148728320Y-66320273D01*
X148620147Y-66581426D01*
X148565000Y-66858665D01*
X148565000Y-67141335D01*
X148620147Y-67418574D01*
X148728320Y-67679727D01*
X148885363Y-67914759D01*
X149085241Y-68114637D01*
X149320273Y-68271680D01*
X149581426Y-68379853D01*
X149858665Y-68435000D01*
X150141335Y-68435000D01*
X150418574Y-68379853D01*
X150679727Y-68271680D01*
X150914759Y-68114637D01*
X151114637Y-67914759D01*
X151250000Y-67712173D01*
X151385363Y-67914759D01*
X151585241Y-68114637D01*
X151820273Y-68271680D01*
X152081426Y-68379853D01*
X152358665Y-68435000D01*
X152641335Y-68435000D01*
X152918574Y-68379853D01*
X153179727Y-68271680D01*
X153414759Y-68114637D01*
X153614637Y-67914759D01*
X153771680Y-67679727D01*
X153879853Y-67418574D01*
X153935000Y-67141335D01*
X153935000Y-66858665D01*
X153879853Y-66581426D01*
X153771680Y-66320273D01*
X153614637Y-66085241D01*
X153414759Y-65885363D01*
X153260000Y-65781957D01*
X153260000Y-54070227D01*
X153263676Y-54032904D01*
X153260000Y-53995581D01*
X153260000Y-53995572D01*
X153249003Y-53883919D01*
X153205546Y-53740658D01*
X153134974Y-53608629D01*
X153040001Y-53492904D01*
X153011004Y-53469107D01*
X145030899Y-45489003D01*
X145007096Y-45459999D01*
X144891371Y-45365026D01*
X144759342Y-45294454D01*
X144616081Y-45250997D01*
X144504428Y-45240000D01*
X144504417Y-45240000D01*
X144467095Y-45236324D01*
X144429773Y-45240000D01*
X139683298Y-45240000D01*
X139528555Y-45051445D01*
X139325275Y-44884618D01*
X139093354Y-44760653D01*
X138965741Y-44721942D01*
X139001366Y-44708935D01*
X139102203Y-44655037D01*
X139161664Y-44421269D01*
X138420000Y-43679605D01*
X137678336Y-44421269D01*
X137737797Y-44655037D01*
X137976242Y-44765934D01*
X138031554Y-44779410D01*
X137834725Y-44884618D01*
X137631445Y-45051445D01*
X137464618Y-45254725D01*
X137340653Y-45486646D01*
X137264317Y-45738294D01*
X137238541Y-46000000D01*
X137264317Y-46261706D01*
X137340653Y-46513354D01*
X137464618Y-46745275D01*
X137631445Y-46948555D01*
X137834725Y-47115382D01*
X138066646Y-47239347D01*
X138318294Y-47315683D01*
X138514421Y-47335000D01*
X138645579Y-47335000D01*
X138841706Y-47315683D01*
X139093354Y-47239347D01*
X139325275Y-47115382D01*
X139528555Y-46948555D01*
X139683298Y-46760000D01*
X144152294Y-46760000D01*
X148557283Y-51164990D01*
X144675341Y-51164990D01*
X144638008Y-51161313D01*
X144600675Y-51164990D01*
X144489022Y-51175987D01*
X144345761Y-51219444D01*
X144213732Y-51290016D01*
X144098007Y-51384989D01*
X144074209Y-51413987D01*
X131988998Y-63499199D01*
X131960000Y-63522997D01*
X131936202Y-63551995D01*
X131936201Y-63551996D01*
X131865026Y-63638722D01*
X131794454Y-63770752D01*
X131770108Y-63851013D01*
X131755249Y-63900000D01*
X131750998Y-63914013D01*
X131736324Y-64062998D01*
X131740001Y-64100331D01*
X131740000Y-83042678D01*
X131736324Y-83080000D01*
X131740000Y-83117322D01*
X131740000Y-83117332D01*
X131750997Y-83228985D01*
X131794454Y-83372246D01*
X131865026Y-83504276D01*
X131874657Y-83516011D01*
X131959999Y-83620001D01*
X131989003Y-83643804D01*
X133682450Y-85337252D01*
X133658541Y-85580000D01*
X133683750Y-85835946D01*
X128490079Y-80642276D01*
X128525812Y-80524482D01*
X128538072Y-80400000D01*
X128538072Y-78600000D01*
X128525812Y-78475518D01*
X128489502Y-78355820D01*
X128430537Y-78245506D01*
X128351185Y-78148815D01*
X128254494Y-78069463D01*
X128144180Y-78010498D01*
X128024482Y-77974188D01*
X127900000Y-77961928D01*
X126100000Y-77961928D01*
X125975518Y-77974188D01*
X125855820Y-78010498D01*
X125745506Y-78069463D01*
X125660000Y-78139636D01*
X125660000Y-76064080D01*
X128615525Y-76064080D01*
X128699208Y-76318261D01*
X128971775Y-76449158D01*
X129264642Y-76524365D01*
X129566553Y-76540991D01*
X129865907Y-76498397D01*
X130151199Y-76398222D01*
X130300792Y-76318261D01*
X130384475Y-76064080D01*
X129500000Y-75179605D01*
X128615525Y-76064080D01*
X125660000Y-76064080D01*
X125660000Y-75066553D01*
X127959009Y-75066553D01*
X128001603Y-75365907D01*
X128101778Y-75651199D01*
X128181739Y-75800792D01*
X128435920Y-75884475D01*
X129320395Y-75000000D01*
X129679605Y-75000000D01*
X130564080Y-75884475D01*
X130818261Y-75800792D01*
X130949158Y-75528225D01*
X131024365Y-75235358D01*
X131040991Y-74933447D01*
X130998397Y-74634093D01*
X130898222Y-74348801D01*
X130818261Y-74199208D01*
X130564080Y-74115525D01*
X129679605Y-75000000D01*
X129320395Y-75000000D01*
X128435920Y-74115525D01*
X128181739Y-74199208D01*
X128050842Y-74471775D01*
X127975635Y-74764642D01*
X127959009Y-75066553D01*
X125660000Y-75066553D01*
X125660000Y-66297475D01*
X125807688Y-66518505D01*
X126021495Y-66732312D01*
X126272905Y-66900299D01*
X126552257Y-67016011D01*
X126848816Y-67075000D01*
X127151184Y-67075000D01*
X127447743Y-67016011D01*
X127727095Y-66900299D01*
X127978505Y-66732312D01*
X128192312Y-66518505D01*
X128215000Y-66484550D01*
X128215000Y-68164875D01*
X128211323Y-68202207D01*
X128225997Y-68351192D01*
X128269453Y-68494453D01*
X128340025Y-68626483D01*
X128392050Y-68689875D01*
X128434999Y-68742208D01*
X128463997Y-68766006D01*
X128513587Y-68815596D01*
X128307688Y-69021495D01*
X128139701Y-69272905D01*
X128023989Y-69552257D01*
X127965000Y-69848816D01*
X127965000Y-70151184D01*
X128023989Y-70447743D01*
X128139701Y-70727095D01*
X128307688Y-70978505D01*
X128521495Y-71192312D01*
X128607831Y-71250000D01*
X128521495Y-71307688D01*
X128307688Y-71521495D01*
X128139701Y-71772905D01*
X128023989Y-72052257D01*
X127965000Y-72348816D01*
X127965000Y-72651184D01*
X128023989Y-72947743D01*
X128139701Y-73227095D01*
X128307688Y-73478505D01*
X128521495Y-73692312D01*
X128664310Y-73787738D01*
X128615525Y-73935920D01*
X129500000Y-74820395D01*
X130384475Y-73935920D01*
X130335690Y-73787738D01*
X130478505Y-73692312D01*
X130692312Y-73478505D01*
X130860299Y-73227095D01*
X130976011Y-72947743D01*
X131035000Y-72651184D01*
X131035000Y-72348816D01*
X130976011Y-72052257D01*
X130860299Y-71772905D01*
X130692312Y-71521495D01*
X130478505Y-71307688D01*
X130392169Y-71250000D01*
X130478505Y-71192312D01*
X130692312Y-70978505D01*
X130860299Y-70727095D01*
X130976011Y-70447743D01*
X131035000Y-70151184D01*
X131035000Y-69848816D01*
X130976011Y-69552257D01*
X130860299Y-69272905D01*
X130692312Y-69021495D01*
X130478505Y-68807688D01*
X130257028Y-68659702D01*
X130249003Y-68578222D01*
X130205546Y-68434961D01*
X130134974Y-68302932D01*
X130063799Y-68216205D01*
X130040001Y-68187207D01*
X130011003Y-68163410D01*
X129734999Y-67887406D01*
X129734999Y-64314683D01*
X129738294Y-64315683D01*
X129934421Y-64335000D01*
X130065579Y-64335000D01*
X130261706Y-64315683D01*
X130513354Y-64239347D01*
X130745275Y-64115382D01*
X130948555Y-63948555D01*
X131115382Y-63745275D01*
X131239347Y-63513354D01*
X131315683Y-63261706D01*
X131341459Y-63000000D01*
X131315683Y-62738294D01*
X131239347Y-62486646D01*
X131115382Y-62254725D01*
X130948555Y-62051445D01*
X130745275Y-61884618D01*
X130513354Y-61760653D01*
X130261706Y-61684317D01*
X130065579Y-61665000D01*
X129934421Y-61665000D01*
X129738294Y-61684317D01*
X129734999Y-61685317D01*
X129734999Y-57219700D01*
X129910997Y-57043702D01*
X129940001Y-57019899D01*
X130034974Y-56904174D01*
X130105546Y-56772145D01*
X130149003Y-56628884D01*
X130160000Y-56517231D01*
X130160000Y-56517222D01*
X130163676Y-56479899D01*
X130160000Y-56442576D01*
X130160000Y-56387865D01*
X130363934Y-56303393D01*
X130697237Y-56080687D01*
X130980687Y-55797237D01*
X131203393Y-55463934D01*
X131356796Y-55093587D01*
X131435000Y-54700430D01*
X131435000Y-54299570D01*
X132865000Y-54299570D01*
X132865000Y-54700430D01*
X132943204Y-55093587D01*
X133096607Y-55463934D01*
X133319313Y-55797237D01*
X133602763Y-56080687D01*
X133936066Y-56303393D01*
X134306413Y-56456796D01*
X134699570Y-56535000D01*
X135100430Y-56535000D01*
X135493587Y-56456796D01*
X135863934Y-56303393D01*
X136197237Y-56080687D01*
X136480687Y-55797237D01*
X136703393Y-55463934D01*
X136856796Y-55093587D01*
X136935000Y-54700430D01*
X136935000Y-54299570D01*
X136856796Y-53906413D01*
X136703393Y-53536066D01*
X136480687Y-53202763D01*
X136197237Y-52919313D01*
X135863934Y-52696607D01*
X135493587Y-52543204D01*
X135100430Y-52465000D01*
X134699570Y-52465000D01*
X134306413Y-52543204D01*
X133936066Y-52696607D01*
X133602763Y-52919313D01*
X133319313Y-53202763D01*
X133096607Y-53536066D01*
X132943204Y-53906413D01*
X132865000Y-54299570D01*
X131435000Y-54299570D01*
X131356796Y-53906413D01*
X131203393Y-53536066D01*
X130980687Y-53202763D01*
X130697237Y-52919313D01*
X130363934Y-52696607D01*
X129993587Y-52543204D01*
X129600430Y-52465000D01*
X129199570Y-52465000D01*
X128806413Y-52543204D01*
X128436066Y-52696607D01*
X128102763Y-52919313D01*
X127819313Y-53202763D01*
X127596607Y-53536066D01*
X127443204Y-53906413D01*
X127365000Y-54299570D01*
X127365000Y-54489202D01*
X127352947Y-54485845D01*
X126953223Y-54455690D01*
X126555296Y-54504096D01*
X126174460Y-54629205D01*
X125903135Y-54774230D01*
X125759159Y-55079551D01*
X125660000Y-54980392D01*
X125660000Y-43348816D01*
X127965000Y-43348816D01*
X127965000Y-43651184D01*
X128023989Y-43947743D01*
X128139701Y-44227095D01*
X128307688Y-44478505D01*
X128521495Y-44692312D01*
X128607831Y-44750000D01*
X128521495Y-44807688D01*
X128307688Y-45021495D01*
X128139701Y-45272905D01*
X128023989Y-45552257D01*
X127965000Y-45848816D01*
X127965000Y-46151184D01*
X128023989Y-46447743D01*
X128139701Y-46727095D01*
X128307688Y-46978505D01*
X128521495Y-47192312D01*
X128607831Y-47250000D01*
X128521495Y-47307688D01*
X128307688Y-47521495D01*
X128139701Y-47772905D01*
X128023989Y-48052257D01*
X127965000Y-48348816D01*
X127965000Y-48651184D01*
X128023989Y-48947743D01*
X128139701Y-49227095D01*
X128307688Y-49478505D01*
X128521495Y-49692312D01*
X128772905Y-49860299D01*
X129052257Y-49976011D01*
X129348816Y-50035000D01*
X129651184Y-50035000D01*
X129947743Y-49976011D01*
X130227095Y-49860299D01*
X130478505Y-49692312D01*
X130692312Y-49478505D01*
X130860299Y-49227095D01*
X130976011Y-48947743D01*
X131035000Y-48651184D01*
X131035000Y-48348816D01*
X130976011Y-48052257D01*
X130860299Y-47772905D01*
X130692312Y-47521495D01*
X130478505Y-47307688D01*
X130392169Y-47250000D01*
X130478505Y-47192312D01*
X130692312Y-46978505D01*
X130860299Y-46727095D01*
X130976011Y-46447743D01*
X131035000Y-46151184D01*
X131035000Y-45848816D01*
X130976011Y-45552257D01*
X130860299Y-45272905D01*
X130692312Y-45021495D01*
X130478505Y-44807688D01*
X130392169Y-44750000D01*
X130478505Y-44692312D01*
X130692312Y-44478505D01*
X130860299Y-44227095D01*
X130976011Y-43947743D01*
X131035000Y-43651184D01*
X131035000Y-43358665D01*
X132065000Y-43358665D01*
X132065000Y-43641335D01*
X132120147Y-43918574D01*
X132228320Y-44179727D01*
X132385363Y-44414759D01*
X132585241Y-44614637D01*
X132820273Y-44771680D01*
X132898589Y-44804120D01*
X132867641Y-44816939D01*
X132648987Y-44963038D01*
X132463038Y-45148987D01*
X132316939Y-45367641D01*
X132216304Y-45610595D01*
X132165000Y-45868514D01*
X132165000Y-46131486D01*
X132216304Y-46389405D01*
X132316939Y-46632359D01*
X132463038Y-46851013D01*
X132648987Y-47036962D01*
X132867641Y-47183061D01*
X132898589Y-47195880D01*
X132820273Y-47228320D01*
X132585241Y-47385363D01*
X132385363Y-47585241D01*
X132228320Y-47820273D01*
X132120147Y-48081426D01*
X132065000Y-48358665D01*
X132065000Y-48641335D01*
X132120147Y-48918574D01*
X132228320Y-49179727D01*
X132385363Y-49414759D01*
X132585241Y-49614637D01*
X132820273Y-49771680D01*
X133081426Y-49879853D01*
X133358665Y-49935000D01*
X133641335Y-49935000D01*
X133918574Y-49879853D01*
X134179727Y-49771680D01*
X134414759Y-49614637D01*
X134536694Y-49492702D01*
X135186903Y-49492702D01*
X135258486Y-49736671D01*
X135513996Y-49857571D01*
X135788184Y-49926300D01*
X136070512Y-49940217D01*
X136350130Y-49898787D01*
X136616292Y-49803603D01*
X136741514Y-49736671D01*
X136813097Y-49492702D01*
X136000000Y-48679605D01*
X135186903Y-49492702D01*
X134536694Y-49492702D01*
X134614637Y-49414759D01*
X134748692Y-49214131D01*
X134763329Y-49241514D01*
X135007298Y-49313097D01*
X135820395Y-48500000D01*
X136179605Y-48500000D01*
X136992702Y-49313097D01*
X137236671Y-49241514D01*
X137357571Y-48986004D01*
X137426300Y-48711816D01*
X137440217Y-48429488D01*
X137398787Y-48149870D01*
X137303603Y-47883708D01*
X137236671Y-47758486D01*
X136992702Y-47686903D01*
X136179605Y-48500000D01*
X135820395Y-48500000D01*
X135007298Y-47686903D01*
X134763329Y-47758486D01*
X134749676Y-47787341D01*
X134614637Y-47585241D01*
X134536694Y-47507298D01*
X135186903Y-47507298D01*
X136000000Y-48320395D01*
X136813097Y-47507298D01*
X136741514Y-47263329D01*
X136486004Y-47142429D01*
X136211816Y-47073700D01*
X135929488Y-47059783D01*
X135649870Y-47101213D01*
X135383708Y-47196397D01*
X135258486Y-47263329D01*
X135186903Y-47507298D01*
X134536694Y-47507298D01*
X134414759Y-47385363D01*
X134179727Y-47228320D01*
X134101411Y-47195880D01*
X134132359Y-47183061D01*
X134351013Y-47036962D01*
X134536962Y-46851013D01*
X134683061Y-46632359D01*
X134783696Y-46389405D01*
X134835000Y-46131486D01*
X134835000Y-45868514D01*
X134783696Y-45610595D01*
X134683061Y-45367641D01*
X134536962Y-45148987D01*
X134351013Y-44963038D01*
X134132359Y-44816939D01*
X134101411Y-44804120D01*
X134179727Y-44771680D01*
X134414759Y-44614637D01*
X134536694Y-44492702D01*
X135186903Y-44492702D01*
X135258486Y-44736671D01*
X135513996Y-44857571D01*
X135788184Y-44926300D01*
X136070512Y-44940217D01*
X136350130Y-44898787D01*
X136616292Y-44803603D01*
X136741514Y-44736671D01*
X136813097Y-44492702D01*
X136000000Y-43679605D01*
X135186903Y-44492702D01*
X134536694Y-44492702D01*
X134614637Y-44414759D01*
X134748692Y-44214131D01*
X134763329Y-44241514D01*
X135007298Y-44313097D01*
X135820395Y-43500000D01*
X136179605Y-43500000D01*
X136992702Y-44313097D01*
X137236671Y-44241514D01*
X137264842Y-44181977D01*
X137264963Y-44182203D01*
X137498731Y-44241664D01*
X138240395Y-43500000D01*
X138599605Y-43500000D01*
X139341269Y-44241664D01*
X139575037Y-44182203D01*
X139685934Y-43943758D01*
X139748183Y-43688260D01*
X139756213Y-43500000D01*
X142158541Y-43500000D01*
X142184317Y-43761706D01*
X142260653Y-44013354D01*
X142384618Y-44245275D01*
X142551445Y-44448555D01*
X142754725Y-44615382D01*
X142986646Y-44739347D01*
X143238294Y-44815683D01*
X143434421Y-44835000D01*
X143565579Y-44835000D01*
X143761706Y-44815683D01*
X144013354Y-44739347D01*
X144245275Y-44615382D01*
X144448555Y-44448555D01*
X144615382Y-44245275D01*
X144739347Y-44013354D01*
X144815683Y-43761706D01*
X144841459Y-43500000D01*
X144815683Y-43238294D01*
X144739347Y-42986646D01*
X144615382Y-42754725D01*
X144448555Y-42551445D01*
X144245275Y-42384618D01*
X144013354Y-42260653D01*
X143761706Y-42184317D01*
X143565579Y-42165000D01*
X143434421Y-42165000D01*
X143238294Y-42184317D01*
X142986646Y-42260653D01*
X142754725Y-42384618D01*
X142551445Y-42551445D01*
X142384618Y-42754725D01*
X142260653Y-42986646D01*
X142184317Y-43238294D01*
X142158541Y-43500000D01*
X139756213Y-43500000D01*
X139759390Y-43425527D01*
X139719125Y-43165656D01*
X139628935Y-42918634D01*
X139575037Y-42817797D01*
X139341269Y-42758336D01*
X138599605Y-43500000D01*
X138240395Y-43500000D01*
X137498731Y-42758336D01*
X137267965Y-42817033D01*
X137236671Y-42758486D01*
X136992702Y-42686903D01*
X136179605Y-43500000D01*
X135820395Y-43500000D01*
X135007298Y-42686903D01*
X134763329Y-42758486D01*
X134749676Y-42787341D01*
X134614637Y-42585241D01*
X134536694Y-42507298D01*
X135186903Y-42507298D01*
X136000000Y-43320395D01*
X136741664Y-42578731D01*
X137678336Y-42578731D01*
X138420000Y-43320395D01*
X139161664Y-42578731D01*
X139102203Y-42344963D01*
X138863758Y-42234066D01*
X138608260Y-42171817D01*
X138345527Y-42160610D01*
X138085656Y-42200875D01*
X137838634Y-42291065D01*
X137737797Y-42344963D01*
X137678336Y-42578731D01*
X136741664Y-42578731D01*
X136813097Y-42507298D01*
X136741514Y-42263329D01*
X136486004Y-42142429D01*
X136211816Y-42073700D01*
X135929488Y-42059783D01*
X135649870Y-42101213D01*
X135383708Y-42196397D01*
X135258486Y-42263329D01*
X135186903Y-42507298D01*
X134536694Y-42507298D01*
X134414759Y-42385363D01*
X134179727Y-42228320D01*
X133918574Y-42120147D01*
X133641335Y-42065000D01*
X133358665Y-42065000D01*
X133081426Y-42120147D01*
X132820273Y-42228320D01*
X132585241Y-42385363D01*
X132385363Y-42585241D01*
X132228320Y-42820273D01*
X132120147Y-43081426D01*
X132065000Y-43358665D01*
X131035000Y-43358665D01*
X131035000Y-43348816D01*
X130976011Y-43052257D01*
X130860299Y-42772905D01*
X130692312Y-42521495D01*
X130478505Y-42307688D01*
X130227095Y-42139701D01*
X129947743Y-42023989D01*
X129651184Y-41965000D01*
X129348816Y-41965000D01*
X129052257Y-42023989D01*
X128772905Y-42139701D01*
X128521495Y-42307688D01*
X128307688Y-42521495D01*
X128139701Y-42772905D01*
X128023989Y-43052257D01*
X127965000Y-43348816D01*
X125660000Y-43348816D01*
X125660000Y-40660000D01*
X154340001Y-40660000D01*
X154340000Y-90363919D01*
G36*
X127193748Y-56485858D02*
G01*
X127179605Y-56500000D01*
X127193748Y-56514143D01*
X127014143Y-56693748D01*
X127000000Y-56679605D01*
X126985858Y-56693748D01*
X126806253Y-56514143D01*
X126820395Y-56500000D01*
X126806253Y-56485858D01*
X126985858Y-56306253D01*
X127000000Y-56320395D01*
X127014143Y-56306253D01*
X127193748Y-56485858D01*
X127193748Y-56485858D01*
G37*
X127193748Y-56485858D02*
X127179605Y-56500000D01*
X127193748Y-56514143D01*
X127014143Y-56693748D01*
X127000000Y-56679605D01*
X126985858Y-56693748D01*
X126806253Y-56514143D01*
X126820395Y-56500000D01*
X126806253Y-56485858D01*
X126985858Y-56306253D01*
X127000000Y-56320395D01*
X127014143Y-56306253D01*
X127193748Y-56485858D01*
M02*
