G04 #@! TF.GenerationSoftware,KiCad,Pcbnew,5.1.2-f72e74a~84~ubuntu18.04.1*
G04 #@! TF.CreationDate,2019-05-18T13:16:44+02:00*
G04 #@! TF.ProjectId,lpf,6c70662e-6b69-4636-9164-5f7063625858,0.1*
G04 #@! TF.SameCoordinates,Original*
G04 #@! TF.FileFunction,Soldermask,Bot*
G04 #@! TF.FilePolarity,Negative*
%FSLAX46Y46*%
G04 Gerber Fmt 4.6, Leading zero omitted, Abs format (unit mm)*
G04 Created by KiCad (PCBNEW 5.1.2-f72e74a~84~ubuntu18.04.1) date 2019-05-18 13:16:44*
%MOMM*%
%LPD*%
G04 APERTURE LIST*
%ADD10C,0.100000*%
G04 APERTURE END LIST*
D10*
G36*
X150219059Y-136857860D02*
G01*
X150279294Y-136882810D01*
X150355732Y-136914472D01*
X150478735Y-136996660D01*
X150583340Y-137101265D01*
X150665528Y-137224268D01*
X150722140Y-137360941D01*
X150751000Y-137506033D01*
X150751000Y-137653967D01*
X150722140Y-137799059D01*
X150665528Y-137935732D01*
X150583340Y-138058735D01*
X150478735Y-138163340D01*
X150355732Y-138245528D01*
X150355731Y-138245529D01*
X150355730Y-138245529D01*
X150219059Y-138302140D01*
X150073968Y-138331000D01*
X149926032Y-138331000D01*
X149780941Y-138302140D01*
X149644270Y-138245529D01*
X149644269Y-138245529D01*
X149644268Y-138245528D01*
X149521265Y-138163340D01*
X149416660Y-138058735D01*
X149334472Y-137935732D01*
X149277860Y-137799059D01*
X149249000Y-137653967D01*
X149249000Y-137506033D01*
X149277860Y-137360941D01*
X149334472Y-137224268D01*
X149416660Y-137101265D01*
X149521265Y-136996660D01*
X149644268Y-136914472D01*
X149720707Y-136882810D01*
X149780941Y-136857860D01*
X149926032Y-136829000D01*
X150073968Y-136829000D01*
X150219059Y-136857860D01*
X150219059Y-136857860D01*
G37*
G36*
X147573665Y-136832622D02*
G01*
X147647222Y-136839867D01*
X147788786Y-136882810D01*
X147919252Y-136952546D01*
X147949040Y-136976992D01*
X148033607Y-137046393D01*
X148103008Y-137130960D01*
X148127454Y-137160748D01*
X148197190Y-137291214D01*
X148240133Y-137432778D01*
X148254633Y-137580000D01*
X148240133Y-137727222D01*
X148197190Y-137868786D01*
X148127454Y-137999252D01*
X148103008Y-138029040D01*
X148033607Y-138113607D01*
X147973004Y-138163341D01*
X147919252Y-138207454D01*
X147788786Y-138277190D01*
X147647222Y-138320133D01*
X147573665Y-138327378D01*
X147536888Y-138331000D01*
X147463112Y-138331000D01*
X147426335Y-138327378D01*
X147352778Y-138320133D01*
X147211214Y-138277190D01*
X147080748Y-138207454D01*
X147026996Y-138163341D01*
X146966393Y-138113607D01*
X146896992Y-138029040D01*
X146872546Y-137999252D01*
X146802810Y-137868786D01*
X146759867Y-137727222D01*
X146745367Y-137580000D01*
X146759867Y-137432778D01*
X146802810Y-137291214D01*
X146872546Y-137160748D01*
X146896992Y-137130960D01*
X146966393Y-137046393D01*
X147050960Y-136976992D01*
X147080748Y-136952546D01*
X147211214Y-136882810D01*
X147352778Y-136839867D01*
X147426335Y-136832622D01*
X147463112Y-136829000D01*
X147536888Y-136829000D01*
X147573665Y-136832622D01*
X147573665Y-136832622D01*
G37*
G36*
X145073665Y-136832622D02*
G01*
X145147222Y-136839867D01*
X145288786Y-136882810D01*
X145419252Y-136952546D01*
X145449040Y-136976992D01*
X145533607Y-137046393D01*
X145603008Y-137130960D01*
X145627454Y-137160748D01*
X145697190Y-137291214D01*
X145740133Y-137432778D01*
X145754633Y-137580000D01*
X145740133Y-137727222D01*
X145697190Y-137868786D01*
X145627454Y-137999252D01*
X145603008Y-138029040D01*
X145533607Y-138113607D01*
X145473004Y-138163341D01*
X145419252Y-138207454D01*
X145288786Y-138277190D01*
X145147222Y-138320133D01*
X145073665Y-138327378D01*
X145036888Y-138331000D01*
X144963112Y-138331000D01*
X144926335Y-138327378D01*
X144852778Y-138320133D01*
X144711214Y-138277190D01*
X144580748Y-138207454D01*
X144526996Y-138163341D01*
X144466393Y-138113607D01*
X144396992Y-138029040D01*
X144372546Y-137999252D01*
X144302810Y-137868786D01*
X144259867Y-137727222D01*
X144245367Y-137580000D01*
X144259867Y-137432778D01*
X144302810Y-137291214D01*
X144372546Y-137160748D01*
X144396992Y-137130960D01*
X144466393Y-137046393D01*
X144550960Y-136976992D01*
X144580748Y-136952546D01*
X144711214Y-136882810D01*
X144852778Y-136839867D01*
X144926335Y-136832622D01*
X144963112Y-136829000D01*
X145036888Y-136829000D01*
X145073665Y-136832622D01*
X145073665Y-136832622D01*
G37*
G36*
X135219059Y-136857860D02*
G01*
X135279294Y-136882810D01*
X135355732Y-136914472D01*
X135478735Y-136996660D01*
X135583340Y-137101265D01*
X135665528Y-137224268D01*
X135722140Y-137360941D01*
X135751000Y-137506033D01*
X135751000Y-137653967D01*
X135722140Y-137799059D01*
X135665528Y-137935732D01*
X135583340Y-138058735D01*
X135478735Y-138163340D01*
X135355732Y-138245528D01*
X135355731Y-138245529D01*
X135355730Y-138245529D01*
X135219059Y-138302140D01*
X135073968Y-138331000D01*
X134926032Y-138331000D01*
X134780941Y-138302140D01*
X134644270Y-138245529D01*
X134644269Y-138245529D01*
X134644268Y-138245528D01*
X134521265Y-138163340D01*
X134416660Y-138058735D01*
X134334472Y-137935732D01*
X134277860Y-137799059D01*
X134249000Y-137653967D01*
X134249000Y-137506033D01*
X134277860Y-137360941D01*
X134334472Y-137224268D01*
X134416660Y-137101265D01*
X134521265Y-136996660D01*
X134644268Y-136914472D01*
X134720707Y-136882810D01*
X134780941Y-136857860D01*
X134926032Y-136829000D01*
X135073968Y-136829000D01*
X135219059Y-136857860D01*
X135219059Y-136857860D01*
G37*
G36*
X140219059Y-136777860D02*
G01*
X140342522Y-136829000D01*
X140355732Y-136834472D01*
X140478735Y-136916660D01*
X140583340Y-137021265D01*
X140665528Y-137144268D01*
X140722140Y-137280941D01*
X140751000Y-137426033D01*
X140751000Y-137573967D01*
X140722140Y-137719059D01*
X140665528Y-137855732D01*
X140583340Y-137978735D01*
X140478735Y-138083340D01*
X140355732Y-138165528D01*
X140355731Y-138165529D01*
X140355730Y-138165529D01*
X140219059Y-138222140D01*
X140073968Y-138251000D01*
X139926032Y-138251000D01*
X139780941Y-138222140D01*
X139644270Y-138165529D01*
X139644269Y-138165529D01*
X139644268Y-138165528D01*
X139521265Y-138083340D01*
X139416660Y-137978735D01*
X139334472Y-137855732D01*
X139277860Y-137719059D01*
X139249000Y-137573967D01*
X139249000Y-137426033D01*
X139277860Y-137280941D01*
X139334472Y-137144268D01*
X139416660Y-137021265D01*
X139521265Y-136916660D01*
X139644268Y-136834472D01*
X139657479Y-136829000D01*
X139780941Y-136777860D01*
X139926032Y-136749000D01*
X140073968Y-136749000D01*
X140219059Y-136777860D01*
X140219059Y-136777860D01*
G37*
G36*
X152719059Y-136777860D02*
G01*
X152842522Y-136829000D01*
X152855732Y-136834472D01*
X152978735Y-136916660D01*
X153083340Y-137021265D01*
X153165528Y-137144268D01*
X153222140Y-137280941D01*
X153251000Y-137426033D01*
X153251000Y-137573967D01*
X153222140Y-137719059D01*
X153165528Y-137855732D01*
X153083340Y-137978735D01*
X152978735Y-138083340D01*
X152855732Y-138165528D01*
X152855731Y-138165529D01*
X152855730Y-138165529D01*
X152719059Y-138222140D01*
X152573968Y-138251000D01*
X152426032Y-138251000D01*
X152280941Y-138222140D01*
X152144270Y-138165529D01*
X152144269Y-138165529D01*
X152144268Y-138165528D01*
X152021265Y-138083340D01*
X151916660Y-137978735D01*
X151834472Y-137855732D01*
X151777860Y-137719059D01*
X151749000Y-137573967D01*
X151749000Y-137426033D01*
X151777860Y-137280941D01*
X151834472Y-137144268D01*
X151916660Y-137021265D01*
X152021265Y-136916660D01*
X152144268Y-136834472D01*
X152157479Y-136829000D01*
X152280941Y-136777860D01*
X152426032Y-136749000D01*
X152573968Y-136749000D01*
X152719059Y-136777860D01*
X152719059Y-136777860D01*
G37*
G36*
X137573665Y-136752622D02*
G01*
X137647222Y-136759867D01*
X137788786Y-136802810D01*
X137919252Y-136872546D01*
X137949040Y-136896992D01*
X138033607Y-136966393D01*
X138099260Y-137046393D01*
X138127454Y-137080748D01*
X138197190Y-137211214D01*
X138240133Y-137352778D01*
X138254633Y-137500000D01*
X138240133Y-137647222D01*
X138197190Y-137788786D01*
X138127454Y-137919252D01*
X138113931Y-137935730D01*
X138033607Y-138033607D01*
X137973004Y-138083341D01*
X137919252Y-138127454D01*
X137788786Y-138197190D01*
X137647222Y-138240133D01*
X137592445Y-138245528D01*
X137536888Y-138251000D01*
X137463112Y-138251000D01*
X137407555Y-138245528D01*
X137352778Y-138240133D01*
X137211214Y-138197190D01*
X137080748Y-138127454D01*
X137026996Y-138083341D01*
X136966393Y-138033607D01*
X136886069Y-137935730D01*
X136872546Y-137919252D01*
X136802810Y-137788786D01*
X136759867Y-137647222D01*
X136745367Y-137500000D01*
X136759867Y-137352778D01*
X136802810Y-137211214D01*
X136872546Y-137080748D01*
X136900740Y-137046393D01*
X136966393Y-136966393D01*
X137050960Y-136896992D01*
X137080748Y-136872546D01*
X137211214Y-136802810D01*
X137352778Y-136759867D01*
X137426335Y-136752622D01*
X137463112Y-136749000D01*
X137536888Y-136749000D01*
X137573665Y-136752622D01*
X137573665Y-136752622D01*
G37*
G36*
X142748228Y-134181703D02*
G01*
X142903100Y-134245853D01*
X143042481Y-134338985D01*
X143161015Y-134457519D01*
X143254147Y-134596900D01*
X143318297Y-134751772D01*
X143351000Y-134916184D01*
X143351000Y-135083816D01*
X143318297Y-135248228D01*
X143254147Y-135403100D01*
X143161015Y-135542481D01*
X143042481Y-135661015D01*
X142903100Y-135754147D01*
X142748228Y-135818297D01*
X142583816Y-135851000D01*
X142416184Y-135851000D01*
X142251772Y-135818297D01*
X142096900Y-135754147D01*
X141957519Y-135661015D01*
X141838985Y-135542481D01*
X141745853Y-135403100D01*
X141681703Y-135248228D01*
X141649000Y-135083816D01*
X141649000Y-134916184D01*
X141681703Y-134751772D01*
X141745853Y-134596900D01*
X141838985Y-134457519D01*
X141957519Y-134338985D01*
X142096900Y-134245853D01*
X142251772Y-134181703D01*
X142416184Y-134149000D01*
X142583816Y-134149000D01*
X142748228Y-134181703D01*
X142748228Y-134181703D01*
G37*
G36*
X142748228Y-131681703D02*
G01*
X142903100Y-131745853D01*
X143042481Y-131838985D01*
X143161015Y-131957519D01*
X143254147Y-132096900D01*
X143318297Y-132251772D01*
X143351000Y-132416184D01*
X143351000Y-132583816D01*
X143318297Y-132748228D01*
X143254147Y-132903100D01*
X143161015Y-133042481D01*
X143042481Y-133161015D01*
X142903100Y-133254147D01*
X142748228Y-133318297D01*
X142583816Y-133351000D01*
X142416184Y-133351000D01*
X142251772Y-133318297D01*
X142096900Y-133254147D01*
X141957519Y-133161015D01*
X141838985Y-133042481D01*
X141745853Y-132903100D01*
X141681703Y-132748228D01*
X141649000Y-132583816D01*
X141649000Y-132416184D01*
X141681703Y-132251772D01*
X141745853Y-132096900D01*
X141838985Y-131957519D01*
X141957519Y-131838985D01*
X142096900Y-131745853D01*
X142251772Y-131681703D01*
X142416184Y-131649000D01*
X142583816Y-131649000D01*
X142748228Y-131681703D01*
X142748228Y-131681703D01*
G37*
G36*
X147719059Y-131777860D02*
G01*
X147779294Y-131802810D01*
X147855732Y-131834472D01*
X147978735Y-131916660D01*
X148083340Y-132021265D01*
X148165528Y-132144268D01*
X148222140Y-132280941D01*
X148251000Y-132426033D01*
X148251000Y-132573967D01*
X148222140Y-132719059D01*
X148165528Y-132855732D01*
X148083340Y-132978735D01*
X147978735Y-133083340D01*
X147855732Y-133165528D01*
X147855731Y-133165529D01*
X147855730Y-133165529D01*
X147719059Y-133222140D01*
X147573968Y-133251000D01*
X147426032Y-133251000D01*
X147280941Y-133222140D01*
X147144270Y-133165529D01*
X147144269Y-133165529D01*
X147144268Y-133165528D01*
X147021265Y-133083340D01*
X146916660Y-132978735D01*
X146834472Y-132855732D01*
X146777860Y-132719059D01*
X146749000Y-132573967D01*
X146749000Y-132426033D01*
X146777860Y-132280941D01*
X146834472Y-132144268D01*
X146916660Y-132021265D01*
X147021265Y-131916660D01*
X147144268Y-131834472D01*
X147220707Y-131802810D01*
X147280941Y-131777860D01*
X147426032Y-131749000D01*
X147573968Y-131749000D01*
X147719059Y-131777860D01*
X147719059Y-131777860D01*
G37*
G36*
X150073665Y-131752622D02*
G01*
X150147222Y-131759867D01*
X150288786Y-131802810D01*
X150419252Y-131872546D01*
X150449040Y-131896992D01*
X150533607Y-131966393D01*
X150603008Y-132050960D01*
X150627454Y-132080748D01*
X150697190Y-132211214D01*
X150740133Y-132352778D01*
X150754633Y-132500000D01*
X150740133Y-132647222D01*
X150697190Y-132788786D01*
X150627454Y-132919252D01*
X150603008Y-132949040D01*
X150533607Y-133033607D01*
X150473004Y-133083341D01*
X150419252Y-133127454D01*
X150288786Y-133197190D01*
X150147222Y-133240133D01*
X150073665Y-133247378D01*
X150036888Y-133251000D01*
X149963112Y-133251000D01*
X149926335Y-133247378D01*
X149852778Y-133240133D01*
X149711214Y-133197190D01*
X149580748Y-133127454D01*
X149526996Y-133083341D01*
X149466393Y-133033607D01*
X149396992Y-132949040D01*
X149372546Y-132919252D01*
X149302810Y-132788786D01*
X149259867Y-132647222D01*
X149245367Y-132500000D01*
X149259867Y-132352778D01*
X149302810Y-132211214D01*
X149372546Y-132080748D01*
X149396992Y-132050960D01*
X149466393Y-131966393D01*
X149550960Y-131896992D01*
X149580748Y-131872546D01*
X149711214Y-131802810D01*
X149852778Y-131759867D01*
X149926335Y-131752622D01*
X149963112Y-131749000D01*
X150036888Y-131749000D01*
X150073665Y-131752622D01*
X150073665Y-131752622D01*
G37*
G36*
X135073665Y-131752622D02*
G01*
X135147222Y-131759867D01*
X135288786Y-131802810D01*
X135419252Y-131872546D01*
X135449040Y-131896992D01*
X135533607Y-131966393D01*
X135603008Y-132050960D01*
X135627454Y-132080748D01*
X135697190Y-132211214D01*
X135740133Y-132352778D01*
X135754633Y-132500000D01*
X135740133Y-132647222D01*
X135697190Y-132788786D01*
X135627454Y-132919252D01*
X135603008Y-132949040D01*
X135533607Y-133033607D01*
X135473004Y-133083341D01*
X135419252Y-133127454D01*
X135288786Y-133197190D01*
X135147222Y-133240133D01*
X135073665Y-133247378D01*
X135036888Y-133251000D01*
X134963112Y-133251000D01*
X134926335Y-133247378D01*
X134852778Y-133240133D01*
X134711214Y-133197190D01*
X134580748Y-133127454D01*
X134526996Y-133083341D01*
X134466393Y-133033607D01*
X134396992Y-132949040D01*
X134372546Y-132919252D01*
X134302810Y-132788786D01*
X134259867Y-132647222D01*
X134245367Y-132500000D01*
X134259867Y-132352778D01*
X134302810Y-132211214D01*
X134372546Y-132080748D01*
X134396992Y-132050960D01*
X134466393Y-131966393D01*
X134550960Y-131896992D01*
X134580748Y-131872546D01*
X134711214Y-131802810D01*
X134852778Y-131759867D01*
X134926335Y-131752622D01*
X134963112Y-131749000D01*
X135036888Y-131749000D01*
X135073665Y-131752622D01*
X135073665Y-131752622D01*
G37*
G36*
X145219059Y-131777860D02*
G01*
X145279294Y-131802810D01*
X145355732Y-131834472D01*
X145478735Y-131916660D01*
X145583340Y-132021265D01*
X145665528Y-132144268D01*
X145722140Y-132280941D01*
X145751000Y-132426033D01*
X145751000Y-132573967D01*
X145722140Y-132719059D01*
X145665528Y-132855732D01*
X145583340Y-132978735D01*
X145478735Y-133083340D01*
X145355732Y-133165528D01*
X145355731Y-133165529D01*
X145355730Y-133165529D01*
X145219059Y-133222140D01*
X145073968Y-133251000D01*
X144926032Y-133251000D01*
X144780941Y-133222140D01*
X144644270Y-133165529D01*
X144644269Y-133165529D01*
X144644268Y-133165528D01*
X144521265Y-133083340D01*
X144416660Y-132978735D01*
X144334472Y-132855732D01*
X144277860Y-132719059D01*
X144249000Y-132573967D01*
X144249000Y-132426033D01*
X144277860Y-132280941D01*
X144334472Y-132144268D01*
X144416660Y-132021265D01*
X144521265Y-131916660D01*
X144644268Y-131834472D01*
X144720707Y-131802810D01*
X144780941Y-131777860D01*
X144926032Y-131749000D01*
X145073968Y-131749000D01*
X145219059Y-131777860D01*
X145219059Y-131777860D01*
G37*
G36*
X152573665Y-131672622D02*
G01*
X152647222Y-131679867D01*
X152788786Y-131722810D01*
X152919252Y-131792546D01*
X152949040Y-131816992D01*
X153033607Y-131886393D01*
X153091977Y-131957519D01*
X153127454Y-132000748D01*
X153197190Y-132131214D01*
X153240133Y-132272778D01*
X153254633Y-132420000D01*
X153240133Y-132567222D01*
X153197190Y-132708786D01*
X153127454Y-132839252D01*
X153113931Y-132855730D01*
X153033607Y-132953607D01*
X152973004Y-133003341D01*
X152919252Y-133047454D01*
X152788786Y-133117190D01*
X152647222Y-133160133D01*
X152592445Y-133165528D01*
X152536888Y-133171000D01*
X152463112Y-133171000D01*
X152407555Y-133165528D01*
X152352778Y-133160133D01*
X152211214Y-133117190D01*
X152080748Y-133047454D01*
X152026996Y-133003341D01*
X151966393Y-132953607D01*
X151886069Y-132855730D01*
X151872546Y-132839252D01*
X151802810Y-132708786D01*
X151759867Y-132567222D01*
X151745367Y-132420000D01*
X151759867Y-132272778D01*
X151802810Y-132131214D01*
X151872546Y-132000748D01*
X151908023Y-131957519D01*
X151966393Y-131886393D01*
X152050960Y-131816992D01*
X152080748Y-131792546D01*
X152211214Y-131722810D01*
X152352778Y-131679867D01*
X152426335Y-131672622D01*
X152463112Y-131669000D01*
X152536888Y-131669000D01*
X152573665Y-131672622D01*
X152573665Y-131672622D01*
G37*
G36*
X140073665Y-131672622D02*
G01*
X140147222Y-131679867D01*
X140288786Y-131722810D01*
X140419252Y-131792546D01*
X140449040Y-131816992D01*
X140533607Y-131886393D01*
X140591977Y-131957519D01*
X140627454Y-132000748D01*
X140697190Y-132131214D01*
X140740133Y-132272778D01*
X140754633Y-132420000D01*
X140740133Y-132567222D01*
X140697190Y-132708786D01*
X140627454Y-132839252D01*
X140613931Y-132855730D01*
X140533607Y-132953607D01*
X140473004Y-133003341D01*
X140419252Y-133047454D01*
X140288786Y-133117190D01*
X140147222Y-133160133D01*
X140092445Y-133165528D01*
X140036888Y-133171000D01*
X139963112Y-133171000D01*
X139907555Y-133165528D01*
X139852778Y-133160133D01*
X139711214Y-133117190D01*
X139580748Y-133047454D01*
X139526996Y-133003341D01*
X139466393Y-132953607D01*
X139386069Y-132855730D01*
X139372546Y-132839252D01*
X139302810Y-132708786D01*
X139259867Y-132567222D01*
X139245367Y-132420000D01*
X139259867Y-132272778D01*
X139302810Y-132131214D01*
X139372546Y-132000748D01*
X139408023Y-131957519D01*
X139466393Y-131886393D01*
X139550960Y-131816992D01*
X139580748Y-131792546D01*
X139711214Y-131722810D01*
X139852778Y-131679867D01*
X139926335Y-131672622D01*
X139963112Y-131669000D01*
X140036888Y-131669000D01*
X140073665Y-131672622D01*
X140073665Y-131672622D01*
G37*
G36*
X137719059Y-131697860D02*
G01*
X137842522Y-131749000D01*
X137855732Y-131754472D01*
X137978735Y-131836660D01*
X138083340Y-131941265D01*
X138165528Y-132064268D01*
X138165529Y-132064270D01*
X138222140Y-132200941D01*
X138251000Y-132346032D01*
X138251000Y-132493968D01*
X138233128Y-132583816D01*
X138222140Y-132639059D01*
X138165528Y-132775732D01*
X138083340Y-132898735D01*
X137978735Y-133003340D01*
X137855732Y-133085528D01*
X137855731Y-133085529D01*
X137855730Y-133085529D01*
X137719059Y-133142140D01*
X137573968Y-133171000D01*
X137426032Y-133171000D01*
X137280941Y-133142140D01*
X137144270Y-133085529D01*
X137144269Y-133085529D01*
X137144268Y-133085528D01*
X137021265Y-133003340D01*
X136916660Y-132898735D01*
X136834472Y-132775732D01*
X136777860Y-132639059D01*
X136766872Y-132583816D01*
X136749000Y-132493968D01*
X136749000Y-132346032D01*
X136777860Y-132200941D01*
X136834471Y-132064270D01*
X136834472Y-132064268D01*
X136916660Y-131941265D01*
X137021265Y-131836660D01*
X137144268Y-131754472D01*
X137157479Y-131749000D01*
X137280941Y-131697860D01*
X137426032Y-131669000D01*
X137573968Y-131669000D01*
X137719059Y-131697860D01*
X137719059Y-131697860D01*
G37*
G36*
X150126823Y-128781313D02*
G01*
X150287242Y-128829976D01*
X150419906Y-128900886D01*
X150435078Y-128908996D01*
X150564659Y-129015341D01*
X150671004Y-129144922D01*
X150671005Y-129144924D01*
X150750024Y-129292758D01*
X150798687Y-129453177D01*
X150815117Y-129620000D01*
X150798687Y-129786823D01*
X150750024Y-129947242D01*
X150679114Y-130079906D01*
X150671004Y-130095078D01*
X150564659Y-130224659D01*
X150435078Y-130331004D01*
X150435076Y-130331005D01*
X150287242Y-130410024D01*
X150126823Y-130458687D01*
X150001804Y-130471000D01*
X149918196Y-130471000D01*
X149793177Y-130458687D01*
X149632758Y-130410024D01*
X149484924Y-130331005D01*
X149484922Y-130331004D01*
X149355341Y-130224659D01*
X149248996Y-130095078D01*
X149240886Y-130079906D01*
X149169976Y-129947242D01*
X149121313Y-129786823D01*
X149104883Y-129620000D01*
X149121313Y-129453177D01*
X149169976Y-129292758D01*
X149248995Y-129144924D01*
X149248996Y-129144922D01*
X149355341Y-129015341D01*
X149484922Y-128908996D01*
X149500094Y-128900886D01*
X149632758Y-128829976D01*
X149793177Y-128781313D01*
X149918196Y-128769000D01*
X150001804Y-128769000D01*
X150126823Y-128781313D01*
X150126823Y-128781313D01*
G37*
G36*
X134886823Y-128781313D02*
G01*
X135047242Y-128829976D01*
X135179906Y-128900886D01*
X135195078Y-128908996D01*
X135324659Y-129015341D01*
X135431004Y-129144922D01*
X135431005Y-129144924D01*
X135510024Y-129292758D01*
X135558687Y-129453177D01*
X135575117Y-129620000D01*
X135558687Y-129786823D01*
X135510024Y-129947242D01*
X135439114Y-130079906D01*
X135431004Y-130095078D01*
X135324659Y-130224659D01*
X135195078Y-130331004D01*
X135195076Y-130331005D01*
X135047242Y-130410024D01*
X134886823Y-130458687D01*
X134761804Y-130471000D01*
X134678196Y-130471000D01*
X134553177Y-130458687D01*
X134392758Y-130410024D01*
X134244924Y-130331005D01*
X134244922Y-130331004D01*
X134115341Y-130224659D01*
X134008996Y-130095078D01*
X134000886Y-130079906D01*
X133929976Y-129947242D01*
X133881313Y-129786823D01*
X133864883Y-129620000D01*
X133881313Y-129453177D01*
X133929976Y-129292758D01*
X134008995Y-129144924D01*
X134008996Y-129144922D01*
X134115341Y-129015341D01*
X134244922Y-128908996D01*
X134260094Y-128900886D01*
X134392758Y-128829976D01*
X134553177Y-128781313D01*
X134678196Y-128769000D01*
X134761804Y-128769000D01*
X134886823Y-128781313D01*
X134886823Y-128781313D01*
G37*
G36*
X137426823Y-128781313D02*
G01*
X137587242Y-128829976D01*
X137719906Y-128900886D01*
X137735078Y-128908996D01*
X137864659Y-129015341D01*
X137971004Y-129144922D01*
X137971005Y-129144924D01*
X138050024Y-129292758D01*
X138098687Y-129453177D01*
X138115117Y-129620000D01*
X138098687Y-129786823D01*
X138050024Y-129947242D01*
X137979114Y-130079906D01*
X137971004Y-130095078D01*
X137864659Y-130224659D01*
X137735078Y-130331004D01*
X137735076Y-130331005D01*
X137587242Y-130410024D01*
X137426823Y-130458687D01*
X137301804Y-130471000D01*
X137218196Y-130471000D01*
X137093177Y-130458687D01*
X136932758Y-130410024D01*
X136784924Y-130331005D01*
X136784922Y-130331004D01*
X136655341Y-130224659D01*
X136548996Y-130095078D01*
X136540886Y-130079906D01*
X136469976Y-129947242D01*
X136421313Y-129786823D01*
X136404883Y-129620000D01*
X136421313Y-129453177D01*
X136469976Y-129292758D01*
X136548995Y-129144924D01*
X136548996Y-129144922D01*
X136655341Y-129015341D01*
X136784922Y-128908996D01*
X136800094Y-128900886D01*
X136932758Y-128829976D01*
X137093177Y-128781313D01*
X137218196Y-128769000D01*
X137301804Y-128769000D01*
X137426823Y-128781313D01*
X137426823Y-128781313D01*
G37*
G36*
X139966823Y-128781313D02*
G01*
X140127242Y-128829976D01*
X140259906Y-128900886D01*
X140275078Y-128908996D01*
X140404659Y-129015341D01*
X140511004Y-129144922D01*
X140511005Y-129144924D01*
X140590024Y-129292758D01*
X140638687Y-129453177D01*
X140655117Y-129620000D01*
X140638687Y-129786823D01*
X140590024Y-129947242D01*
X140519114Y-130079906D01*
X140511004Y-130095078D01*
X140404659Y-130224659D01*
X140275078Y-130331004D01*
X140275076Y-130331005D01*
X140127242Y-130410024D01*
X139966823Y-130458687D01*
X139841804Y-130471000D01*
X139758196Y-130471000D01*
X139633177Y-130458687D01*
X139472758Y-130410024D01*
X139324924Y-130331005D01*
X139324922Y-130331004D01*
X139195341Y-130224659D01*
X139088996Y-130095078D01*
X139080886Y-130079906D01*
X139009976Y-129947242D01*
X138961313Y-129786823D01*
X138944883Y-129620000D01*
X138961313Y-129453177D01*
X139009976Y-129292758D01*
X139088995Y-129144924D01*
X139088996Y-129144922D01*
X139195341Y-129015341D01*
X139324922Y-128908996D01*
X139340094Y-128900886D01*
X139472758Y-128829976D01*
X139633177Y-128781313D01*
X139758196Y-128769000D01*
X139841804Y-128769000D01*
X139966823Y-128781313D01*
X139966823Y-128781313D01*
G37*
G36*
X142506823Y-128781313D02*
G01*
X142667242Y-128829976D01*
X142799906Y-128900886D01*
X142815078Y-128908996D01*
X142944659Y-129015341D01*
X143051004Y-129144922D01*
X143051005Y-129144924D01*
X143130024Y-129292758D01*
X143178687Y-129453177D01*
X143195117Y-129620000D01*
X143178687Y-129786823D01*
X143130024Y-129947242D01*
X143059114Y-130079906D01*
X143051004Y-130095078D01*
X142944659Y-130224659D01*
X142815078Y-130331004D01*
X142815076Y-130331005D01*
X142667242Y-130410024D01*
X142506823Y-130458687D01*
X142381804Y-130471000D01*
X142298196Y-130471000D01*
X142173177Y-130458687D01*
X142012758Y-130410024D01*
X141864924Y-130331005D01*
X141864922Y-130331004D01*
X141735341Y-130224659D01*
X141628996Y-130095078D01*
X141620886Y-130079906D01*
X141549976Y-129947242D01*
X141501313Y-129786823D01*
X141484883Y-129620000D01*
X141501313Y-129453177D01*
X141549976Y-129292758D01*
X141628995Y-129144924D01*
X141628996Y-129144922D01*
X141735341Y-129015341D01*
X141864922Y-128908996D01*
X141880094Y-128900886D01*
X142012758Y-128829976D01*
X142173177Y-128781313D01*
X142298196Y-128769000D01*
X142381804Y-128769000D01*
X142506823Y-128781313D01*
X142506823Y-128781313D01*
G37*
G36*
X145046823Y-128781313D02*
G01*
X145207242Y-128829976D01*
X145339906Y-128900886D01*
X145355078Y-128908996D01*
X145484659Y-129015341D01*
X145591004Y-129144922D01*
X145591005Y-129144924D01*
X145670024Y-129292758D01*
X145718687Y-129453177D01*
X145735117Y-129620000D01*
X145718687Y-129786823D01*
X145670024Y-129947242D01*
X145599114Y-130079906D01*
X145591004Y-130095078D01*
X145484659Y-130224659D01*
X145355078Y-130331004D01*
X145355076Y-130331005D01*
X145207242Y-130410024D01*
X145046823Y-130458687D01*
X144921804Y-130471000D01*
X144838196Y-130471000D01*
X144713177Y-130458687D01*
X144552758Y-130410024D01*
X144404924Y-130331005D01*
X144404922Y-130331004D01*
X144275341Y-130224659D01*
X144168996Y-130095078D01*
X144160886Y-130079906D01*
X144089976Y-129947242D01*
X144041313Y-129786823D01*
X144024883Y-129620000D01*
X144041313Y-129453177D01*
X144089976Y-129292758D01*
X144168995Y-129144924D01*
X144168996Y-129144922D01*
X144275341Y-129015341D01*
X144404922Y-128908996D01*
X144420094Y-128900886D01*
X144552758Y-128829976D01*
X144713177Y-128781313D01*
X144838196Y-128769000D01*
X144921804Y-128769000D01*
X145046823Y-128781313D01*
X145046823Y-128781313D01*
G37*
G36*
X147586823Y-128781313D02*
G01*
X147747242Y-128829976D01*
X147879906Y-128900886D01*
X147895078Y-128908996D01*
X148024659Y-129015341D01*
X148131004Y-129144922D01*
X148131005Y-129144924D01*
X148210024Y-129292758D01*
X148258687Y-129453177D01*
X148275117Y-129620000D01*
X148258687Y-129786823D01*
X148210024Y-129947242D01*
X148139114Y-130079906D01*
X148131004Y-130095078D01*
X148024659Y-130224659D01*
X147895078Y-130331004D01*
X147895076Y-130331005D01*
X147747242Y-130410024D01*
X147586823Y-130458687D01*
X147461804Y-130471000D01*
X147378196Y-130471000D01*
X147253177Y-130458687D01*
X147092758Y-130410024D01*
X146944924Y-130331005D01*
X146944922Y-130331004D01*
X146815341Y-130224659D01*
X146708996Y-130095078D01*
X146700886Y-130079906D01*
X146629976Y-129947242D01*
X146581313Y-129786823D01*
X146564883Y-129620000D01*
X146581313Y-129453177D01*
X146629976Y-129292758D01*
X146708995Y-129144924D01*
X146708996Y-129144922D01*
X146815341Y-129015341D01*
X146944922Y-128908996D01*
X146960094Y-128900886D01*
X147092758Y-128829976D01*
X147253177Y-128781313D01*
X147378196Y-128769000D01*
X147461804Y-128769000D01*
X147586823Y-128781313D01*
X147586823Y-128781313D01*
G37*
G36*
X152666823Y-128781313D02*
G01*
X152827242Y-128829976D01*
X152959906Y-128900886D01*
X152975078Y-128908996D01*
X153104659Y-129015341D01*
X153211004Y-129144922D01*
X153211005Y-129144924D01*
X153290024Y-129292758D01*
X153338687Y-129453177D01*
X153355117Y-129620000D01*
X153338687Y-129786823D01*
X153290024Y-129947242D01*
X153219114Y-130079906D01*
X153211004Y-130095078D01*
X153104659Y-130224659D01*
X152975078Y-130331004D01*
X152975076Y-130331005D01*
X152827242Y-130410024D01*
X152666823Y-130458687D01*
X152541804Y-130471000D01*
X152458196Y-130471000D01*
X152333177Y-130458687D01*
X152172758Y-130410024D01*
X152024924Y-130331005D01*
X152024922Y-130331004D01*
X151895341Y-130224659D01*
X151788996Y-130095078D01*
X151780886Y-130079906D01*
X151709976Y-129947242D01*
X151661313Y-129786823D01*
X151644883Y-129620000D01*
X151661313Y-129453177D01*
X151709976Y-129292758D01*
X151788995Y-129144924D01*
X151788996Y-129144922D01*
X151895341Y-129015341D01*
X152024922Y-128908996D01*
X152040094Y-128900886D01*
X152172758Y-128829976D01*
X152333177Y-128781313D01*
X152458196Y-128769000D01*
X152541804Y-128769000D01*
X152666823Y-128781313D01*
X152666823Y-128781313D01*
G37*
G36*
X150126823Y-121161313D02*
G01*
X150287242Y-121209976D01*
X150419906Y-121280886D01*
X150435078Y-121288996D01*
X150564659Y-121395341D01*
X150671004Y-121524922D01*
X150671005Y-121524924D01*
X150750024Y-121672758D01*
X150798687Y-121833177D01*
X150815117Y-122000000D01*
X150798687Y-122166823D01*
X150750024Y-122327242D01*
X150679114Y-122459906D01*
X150671004Y-122475078D01*
X150564659Y-122604659D01*
X150435078Y-122711004D01*
X150435076Y-122711005D01*
X150287242Y-122790024D01*
X150126823Y-122838687D01*
X150001804Y-122851000D01*
X149918196Y-122851000D01*
X149793177Y-122838687D01*
X149632758Y-122790024D01*
X149484924Y-122711005D01*
X149484922Y-122711004D01*
X149355341Y-122604659D01*
X149248996Y-122475078D01*
X149240886Y-122459906D01*
X149169976Y-122327242D01*
X149121313Y-122166823D01*
X149104883Y-122000000D01*
X149121313Y-121833177D01*
X149169976Y-121672758D01*
X149248995Y-121524924D01*
X149248996Y-121524922D01*
X149355341Y-121395341D01*
X149484922Y-121288996D01*
X149500094Y-121280886D01*
X149632758Y-121209976D01*
X149793177Y-121161313D01*
X149918196Y-121149000D01*
X150001804Y-121149000D01*
X150126823Y-121161313D01*
X150126823Y-121161313D01*
G37*
G36*
X147586823Y-121161313D02*
G01*
X147747242Y-121209976D01*
X147879906Y-121280886D01*
X147895078Y-121288996D01*
X148024659Y-121395341D01*
X148131004Y-121524922D01*
X148131005Y-121524924D01*
X148210024Y-121672758D01*
X148258687Y-121833177D01*
X148275117Y-122000000D01*
X148258687Y-122166823D01*
X148210024Y-122327242D01*
X148139114Y-122459906D01*
X148131004Y-122475078D01*
X148024659Y-122604659D01*
X147895078Y-122711004D01*
X147895076Y-122711005D01*
X147747242Y-122790024D01*
X147586823Y-122838687D01*
X147461804Y-122851000D01*
X147378196Y-122851000D01*
X147253177Y-122838687D01*
X147092758Y-122790024D01*
X146944924Y-122711005D01*
X146944922Y-122711004D01*
X146815341Y-122604659D01*
X146708996Y-122475078D01*
X146700886Y-122459906D01*
X146629976Y-122327242D01*
X146581313Y-122166823D01*
X146564883Y-122000000D01*
X146581313Y-121833177D01*
X146629976Y-121672758D01*
X146708995Y-121524924D01*
X146708996Y-121524922D01*
X146815341Y-121395341D01*
X146944922Y-121288996D01*
X146960094Y-121280886D01*
X147092758Y-121209976D01*
X147253177Y-121161313D01*
X147378196Y-121149000D01*
X147461804Y-121149000D01*
X147586823Y-121161313D01*
X147586823Y-121161313D01*
G37*
G36*
X145046823Y-121161313D02*
G01*
X145207242Y-121209976D01*
X145339906Y-121280886D01*
X145355078Y-121288996D01*
X145484659Y-121395341D01*
X145591004Y-121524922D01*
X145591005Y-121524924D01*
X145670024Y-121672758D01*
X145718687Y-121833177D01*
X145735117Y-122000000D01*
X145718687Y-122166823D01*
X145670024Y-122327242D01*
X145599114Y-122459906D01*
X145591004Y-122475078D01*
X145484659Y-122604659D01*
X145355078Y-122711004D01*
X145355076Y-122711005D01*
X145207242Y-122790024D01*
X145046823Y-122838687D01*
X144921804Y-122851000D01*
X144838196Y-122851000D01*
X144713177Y-122838687D01*
X144552758Y-122790024D01*
X144404924Y-122711005D01*
X144404922Y-122711004D01*
X144275341Y-122604659D01*
X144168996Y-122475078D01*
X144160886Y-122459906D01*
X144089976Y-122327242D01*
X144041313Y-122166823D01*
X144024883Y-122000000D01*
X144041313Y-121833177D01*
X144089976Y-121672758D01*
X144168995Y-121524924D01*
X144168996Y-121524922D01*
X144275341Y-121395341D01*
X144404922Y-121288996D01*
X144420094Y-121280886D01*
X144552758Y-121209976D01*
X144713177Y-121161313D01*
X144838196Y-121149000D01*
X144921804Y-121149000D01*
X145046823Y-121161313D01*
X145046823Y-121161313D01*
G37*
G36*
X142506823Y-121161313D02*
G01*
X142667242Y-121209976D01*
X142799906Y-121280886D01*
X142815078Y-121288996D01*
X142944659Y-121395341D01*
X143051004Y-121524922D01*
X143051005Y-121524924D01*
X143130024Y-121672758D01*
X143178687Y-121833177D01*
X143195117Y-122000000D01*
X143178687Y-122166823D01*
X143130024Y-122327242D01*
X143059114Y-122459906D01*
X143051004Y-122475078D01*
X142944659Y-122604659D01*
X142815078Y-122711004D01*
X142815076Y-122711005D01*
X142667242Y-122790024D01*
X142506823Y-122838687D01*
X142381804Y-122851000D01*
X142298196Y-122851000D01*
X142173177Y-122838687D01*
X142012758Y-122790024D01*
X141864924Y-122711005D01*
X141864922Y-122711004D01*
X141735341Y-122604659D01*
X141628996Y-122475078D01*
X141620886Y-122459906D01*
X141549976Y-122327242D01*
X141501313Y-122166823D01*
X141484883Y-122000000D01*
X141501313Y-121833177D01*
X141549976Y-121672758D01*
X141628995Y-121524924D01*
X141628996Y-121524922D01*
X141735341Y-121395341D01*
X141864922Y-121288996D01*
X141880094Y-121280886D01*
X142012758Y-121209976D01*
X142173177Y-121161313D01*
X142298196Y-121149000D01*
X142381804Y-121149000D01*
X142506823Y-121161313D01*
X142506823Y-121161313D01*
G37*
G36*
X134886823Y-121161313D02*
G01*
X135047242Y-121209976D01*
X135179906Y-121280886D01*
X135195078Y-121288996D01*
X135324659Y-121395341D01*
X135431004Y-121524922D01*
X135431005Y-121524924D01*
X135510024Y-121672758D01*
X135558687Y-121833177D01*
X135575117Y-122000000D01*
X135558687Y-122166823D01*
X135510024Y-122327242D01*
X135439114Y-122459906D01*
X135431004Y-122475078D01*
X135324659Y-122604659D01*
X135195078Y-122711004D01*
X135195076Y-122711005D01*
X135047242Y-122790024D01*
X134886823Y-122838687D01*
X134761804Y-122851000D01*
X134678196Y-122851000D01*
X134553177Y-122838687D01*
X134392758Y-122790024D01*
X134244924Y-122711005D01*
X134244922Y-122711004D01*
X134115341Y-122604659D01*
X134008996Y-122475078D01*
X134000886Y-122459906D01*
X133929976Y-122327242D01*
X133881313Y-122166823D01*
X133864883Y-122000000D01*
X133881313Y-121833177D01*
X133929976Y-121672758D01*
X134008995Y-121524924D01*
X134008996Y-121524922D01*
X134115341Y-121395341D01*
X134244922Y-121288996D01*
X134260094Y-121280886D01*
X134392758Y-121209976D01*
X134553177Y-121161313D01*
X134678196Y-121149000D01*
X134761804Y-121149000D01*
X134886823Y-121161313D01*
X134886823Y-121161313D01*
G37*
G36*
X153351000Y-122851000D02*
G01*
X151649000Y-122851000D01*
X151649000Y-121149000D01*
X153351000Y-121149000D01*
X153351000Y-122851000D01*
X153351000Y-122851000D01*
G37*
G36*
X137426823Y-121161313D02*
G01*
X137587242Y-121209976D01*
X137719906Y-121280886D01*
X137735078Y-121288996D01*
X137864659Y-121395341D01*
X137971004Y-121524922D01*
X137971005Y-121524924D01*
X138050024Y-121672758D01*
X138098687Y-121833177D01*
X138115117Y-122000000D01*
X138098687Y-122166823D01*
X138050024Y-122327242D01*
X137979114Y-122459906D01*
X137971004Y-122475078D01*
X137864659Y-122604659D01*
X137735078Y-122711004D01*
X137735076Y-122711005D01*
X137587242Y-122790024D01*
X137426823Y-122838687D01*
X137301804Y-122851000D01*
X137218196Y-122851000D01*
X137093177Y-122838687D01*
X136932758Y-122790024D01*
X136784924Y-122711005D01*
X136784922Y-122711004D01*
X136655341Y-122604659D01*
X136548996Y-122475078D01*
X136540886Y-122459906D01*
X136469976Y-122327242D01*
X136421313Y-122166823D01*
X136404883Y-122000000D01*
X136421313Y-121833177D01*
X136469976Y-121672758D01*
X136548995Y-121524924D01*
X136548996Y-121524922D01*
X136655341Y-121395341D01*
X136784922Y-121288996D01*
X136800094Y-121280886D01*
X136932758Y-121209976D01*
X137093177Y-121161313D01*
X137218196Y-121149000D01*
X137301804Y-121149000D01*
X137426823Y-121161313D01*
X137426823Y-121161313D01*
G37*
G36*
X139966823Y-121161313D02*
G01*
X140127242Y-121209976D01*
X140259906Y-121280886D01*
X140275078Y-121288996D01*
X140404659Y-121395341D01*
X140511004Y-121524922D01*
X140511005Y-121524924D01*
X140590024Y-121672758D01*
X140638687Y-121833177D01*
X140655117Y-122000000D01*
X140638687Y-122166823D01*
X140590024Y-122327242D01*
X140519114Y-122459906D01*
X140511004Y-122475078D01*
X140404659Y-122604659D01*
X140275078Y-122711004D01*
X140275076Y-122711005D01*
X140127242Y-122790024D01*
X139966823Y-122838687D01*
X139841804Y-122851000D01*
X139758196Y-122851000D01*
X139633177Y-122838687D01*
X139472758Y-122790024D01*
X139324924Y-122711005D01*
X139324922Y-122711004D01*
X139195341Y-122604659D01*
X139088996Y-122475078D01*
X139080886Y-122459906D01*
X139009976Y-122327242D01*
X138961313Y-122166823D01*
X138944883Y-122000000D01*
X138961313Y-121833177D01*
X139009976Y-121672758D01*
X139088995Y-121524924D01*
X139088996Y-121524922D01*
X139195341Y-121395341D01*
X139324922Y-121288996D01*
X139340094Y-121280886D01*
X139472758Y-121209976D01*
X139633177Y-121161313D01*
X139758196Y-121149000D01*
X139841804Y-121149000D01*
X139966823Y-121161313D01*
X139966823Y-121161313D01*
G37*
G36*
X142748228Y-118181703D02*
G01*
X142903100Y-118245853D01*
X143042481Y-118338985D01*
X143161015Y-118457519D01*
X143254147Y-118596900D01*
X143318297Y-118751772D01*
X143351000Y-118916184D01*
X143351000Y-119083816D01*
X143318297Y-119248228D01*
X143254147Y-119403100D01*
X143161015Y-119542481D01*
X143042481Y-119661015D01*
X142903100Y-119754147D01*
X142748228Y-119818297D01*
X142583816Y-119851000D01*
X142416184Y-119851000D01*
X142251772Y-119818297D01*
X142096900Y-119754147D01*
X141957519Y-119661015D01*
X141838985Y-119542481D01*
X141745853Y-119403100D01*
X141681703Y-119248228D01*
X141649000Y-119083816D01*
X141649000Y-118916184D01*
X141681703Y-118751772D01*
X141745853Y-118596900D01*
X141838985Y-118457519D01*
X141957519Y-118338985D01*
X142096900Y-118245853D01*
X142251772Y-118181703D01*
X142416184Y-118149000D01*
X142583816Y-118149000D01*
X142748228Y-118181703D01*
X142748228Y-118181703D01*
G37*
G36*
X152573665Y-118332622D02*
G01*
X152647222Y-118339867D01*
X152788786Y-118382810D01*
X152919252Y-118452546D01*
X152949040Y-118476992D01*
X153033607Y-118546393D01*
X153075058Y-118596903D01*
X153127454Y-118660748D01*
X153197190Y-118791214D01*
X153240133Y-118932778D01*
X153254633Y-119080000D01*
X153240133Y-119227222D01*
X153197190Y-119368786D01*
X153127454Y-119499252D01*
X153103008Y-119529040D01*
X153033607Y-119613607D01*
X152970339Y-119665528D01*
X152919252Y-119707454D01*
X152788786Y-119777190D01*
X152647222Y-119820133D01*
X152573665Y-119827378D01*
X152536888Y-119831000D01*
X152463112Y-119831000D01*
X152426335Y-119827378D01*
X152352778Y-119820133D01*
X152211214Y-119777190D01*
X152080748Y-119707454D01*
X152029661Y-119665528D01*
X151966393Y-119613607D01*
X151896992Y-119529040D01*
X151872546Y-119499252D01*
X151802810Y-119368786D01*
X151759867Y-119227222D01*
X151745367Y-119080000D01*
X151759867Y-118932778D01*
X151802810Y-118791214D01*
X151872546Y-118660748D01*
X151924942Y-118596903D01*
X151966393Y-118546393D01*
X152050960Y-118476992D01*
X152080748Y-118452546D01*
X152211214Y-118382810D01*
X152352778Y-118339867D01*
X152426335Y-118332622D01*
X152463112Y-118329000D01*
X152536888Y-118329000D01*
X152573665Y-118332622D01*
X152573665Y-118332622D01*
G37*
G36*
X147719059Y-118277860D02*
G01*
X147842522Y-118329000D01*
X147855732Y-118334472D01*
X147978735Y-118416660D01*
X148083340Y-118521265D01*
X148165528Y-118644268D01*
X148222140Y-118780941D01*
X148251000Y-118926033D01*
X148251000Y-119073967D01*
X148222140Y-119219059D01*
X148165528Y-119355732D01*
X148083340Y-119478735D01*
X147978735Y-119583340D01*
X147855732Y-119665528D01*
X147855731Y-119665529D01*
X147855730Y-119665529D01*
X147719059Y-119722140D01*
X147573968Y-119751000D01*
X147426032Y-119751000D01*
X147280941Y-119722140D01*
X147144270Y-119665529D01*
X147144269Y-119665529D01*
X147144268Y-119665528D01*
X147021265Y-119583340D01*
X146916660Y-119478735D01*
X146834472Y-119355732D01*
X146777860Y-119219059D01*
X146749000Y-119073967D01*
X146749000Y-118926033D01*
X146777860Y-118780941D01*
X146834472Y-118644268D01*
X146916660Y-118521265D01*
X147021265Y-118416660D01*
X147144268Y-118334472D01*
X147157479Y-118329000D01*
X147280941Y-118277860D01*
X147426032Y-118249000D01*
X147573968Y-118249000D01*
X147719059Y-118277860D01*
X147719059Y-118277860D01*
G37*
G36*
X140073665Y-118252622D02*
G01*
X140147222Y-118259867D01*
X140288786Y-118302810D01*
X140419252Y-118372546D01*
X140449040Y-118396992D01*
X140533607Y-118466393D01*
X140599260Y-118546393D01*
X140627454Y-118580748D01*
X140697190Y-118711214D01*
X140740133Y-118852778D01*
X140754633Y-119000000D01*
X140740133Y-119147222D01*
X140697190Y-119288786D01*
X140627454Y-119419252D01*
X140603008Y-119449040D01*
X140533607Y-119533607D01*
X140473004Y-119583341D01*
X140419252Y-119627454D01*
X140288786Y-119697190D01*
X140147222Y-119740133D01*
X140073665Y-119747378D01*
X140036888Y-119751000D01*
X139963112Y-119751000D01*
X139926335Y-119747378D01*
X139852778Y-119740133D01*
X139711214Y-119697190D01*
X139580748Y-119627454D01*
X139526996Y-119583341D01*
X139466393Y-119533607D01*
X139396992Y-119449040D01*
X139372546Y-119419252D01*
X139302810Y-119288786D01*
X139259867Y-119147222D01*
X139245367Y-119000000D01*
X139259867Y-118852778D01*
X139302810Y-118711214D01*
X139372546Y-118580748D01*
X139400740Y-118546393D01*
X139466393Y-118466393D01*
X139550960Y-118396992D01*
X139580748Y-118372546D01*
X139711214Y-118302810D01*
X139852778Y-118259867D01*
X139926335Y-118252622D01*
X139963112Y-118249000D01*
X140036888Y-118249000D01*
X140073665Y-118252622D01*
X140073665Y-118252622D01*
G37*
G36*
X135139059Y-118277860D02*
G01*
X135262522Y-118329000D01*
X135275732Y-118334472D01*
X135398735Y-118416660D01*
X135503340Y-118521265D01*
X135585528Y-118644268D01*
X135642140Y-118780941D01*
X135671000Y-118926033D01*
X135671000Y-119073967D01*
X135642140Y-119219059D01*
X135585528Y-119355732D01*
X135503340Y-119478735D01*
X135398735Y-119583340D01*
X135275732Y-119665528D01*
X135275731Y-119665529D01*
X135275730Y-119665529D01*
X135139059Y-119722140D01*
X134993968Y-119751000D01*
X134846032Y-119751000D01*
X134700941Y-119722140D01*
X134564270Y-119665529D01*
X134564269Y-119665529D01*
X134564268Y-119665528D01*
X134441265Y-119583340D01*
X134336660Y-119478735D01*
X134254472Y-119355732D01*
X134197860Y-119219059D01*
X134169000Y-119073967D01*
X134169000Y-118926033D01*
X134197860Y-118780941D01*
X134254472Y-118644268D01*
X134336660Y-118521265D01*
X134441265Y-118416660D01*
X134564268Y-118334472D01*
X134577479Y-118329000D01*
X134700941Y-118277860D01*
X134846032Y-118249000D01*
X134993968Y-118249000D01*
X135139059Y-118277860D01*
X135139059Y-118277860D01*
G37*
G36*
X145219059Y-118277860D02*
G01*
X145342522Y-118329000D01*
X145355732Y-118334472D01*
X145478735Y-118416660D01*
X145583340Y-118521265D01*
X145665528Y-118644268D01*
X145722140Y-118780941D01*
X145751000Y-118926033D01*
X145751000Y-119073967D01*
X145722140Y-119219059D01*
X145665528Y-119355732D01*
X145583340Y-119478735D01*
X145478735Y-119583340D01*
X145355732Y-119665528D01*
X145355731Y-119665529D01*
X145355730Y-119665529D01*
X145219059Y-119722140D01*
X145073968Y-119751000D01*
X144926032Y-119751000D01*
X144780941Y-119722140D01*
X144644270Y-119665529D01*
X144644269Y-119665529D01*
X144644268Y-119665528D01*
X144521265Y-119583340D01*
X144416660Y-119478735D01*
X144334472Y-119355732D01*
X144277860Y-119219059D01*
X144249000Y-119073967D01*
X144249000Y-118926033D01*
X144277860Y-118780941D01*
X144334472Y-118644268D01*
X144416660Y-118521265D01*
X144521265Y-118416660D01*
X144644268Y-118334472D01*
X144657479Y-118329000D01*
X144780941Y-118277860D01*
X144926032Y-118249000D01*
X145073968Y-118249000D01*
X145219059Y-118277860D01*
X145219059Y-118277860D01*
G37*
G36*
X142748228Y-115681703D02*
G01*
X142903100Y-115745853D01*
X143042481Y-115838985D01*
X143161015Y-115957519D01*
X143254147Y-116096900D01*
X143318297Y-116251772D01*
X143351000Y-116416184D01*
X143351000Y-116583816D01*
X143318297Y-116748228D01*
X143254147Y-116903100D01*
X143161015Y-117042481D01*
X143042481Y-117161015D01*
X142903100Y-117254147D01*
X142748228Y-117318297D01*
X142583816Y-117351000D01*
X142416184Y-117351000D01*
X142251772Y-117318297D01*
X142096900Y-117254147D01*
X141957519Y-117161015D01*
X141838985Y-117042481D01*
X141745853Y-116903100D01*
X141681703Y-116748228D01*
X141649000Y-116583816D01*
X141649000Y-116416184D01*
X141681703Y-116251772D01*
X141745853Y-116096900D01*
X141838985Y-115957519D01*
X141957519Y-115838985D01*
X142096900Y-115745853D01*
X142251772Y-115681703D01*
X142416184Y-115649000D01*
X142583816Y-115649000D01*
X142748228Y-115681703D01*
X142748228Y-115681703D01*
G37*
G36*
X152719059Y-113277860D02*
G01*
X152855732Y-113334472D01*
X152978735Y-113416660D01*
X153083340Y-113521265D01*
X153165528Y-113644268D01*
X153222140Y-113780941D01*
X153251000Y-113926033D01*
X153251000Y-114073967D01*
X153222140Y-114219059D01*
X153165528Y-114355732D01*
X153083340Y-114478735D01*
X152978735Y-114583340D01*
X152855732Y-114665528D01*
X152855731Y-114665529D01*
X152855730Y-114665529D01*
X152719059Y-114722140D01*
X152573968Y-114751000D01*
X152426032Y-114751000D01*
X152280941Y-114722140D01*
X152144270Y-114665529D01*
X152144269Y-114665529D01*
X152144268Y-114665528D01*
X152021265Y-114583340D01*
X151916660Y-114478735D01*
X151834472Y-114355732D01*
X151777860Y-114219059D01*
X151749000Y-114073967D01*
X151749000Y-113926033D01*
X151777860Y-113780941D01*
X151834472Y-113644268D01*
X151916660Y-113521265D01*
X152021265Y-113416660D01*
X152144268Y-113334472D01*
X152280941Y-113277860D01*
X152426032Y-113249000D01*
X152573968Y-113249000D01*
X152719059Y-113277860D01*
X152719059Y-113277860D01*
G37*
G36*
X147573665Y-113172622D02*
G01*
X147647222Y-113179867D01*
X147788786Y-113222810D01*
X147919252Y-113292546D01*
X147949040Y-113316992D01*
X148033607Y-113386393D01*
X148103008Y-113470960D01*
X148127454Y-113500748D01*
X148197190Y-113631214D01*
X148240133Y-113772778D01*
X148254633Y-113920000D01*
X148240133Y-114067222D01*
X148197190Y-114208786D01*
X148127454Y-114339252D01*
X148113931Y-114355730D01*
X148033607Y-114453607D01*
X147949040Y-114523008D01*
X147919252Y-114547454D01*
X147788786Y-114617190D01*
X147647222Y-114660133D01*
X147592445Y-114665528D01*
X147536888Y-114671000D01*
X147463112Y-114671000D01*
X147407555Y-114665528D01*
X147352778Y-114660133D01*
X147211214Y-114617190D01*
X147080748Y-114547454D01*
X147050960Y-114523008D01*
X146966393Y-114453607D01*
X146886069Y-114355730D01*
X146872546Y-114339252D01*
X146802810Y-114208786D01*
X146759867Y-114067222D01*
X146745367Y-113920000D01*
X146759867Y-113772778D01*
X146802810Y-113631214D01*
X146872546Y-113500748D01*
X146896992Y-113470960D01*
X146966393Y-113386393D01*
X147050960Y-113316992D01*
X147080748Y-113292546D01*
X147211214Y-113222810D01*
X147352778Y-113179867D01*
X147426335Y-113172622D01*
X147463112Y-113169000D01*
X147536888Y-113169000D01*
X147573665Y-113172622D01*
X147573665Y-113172622D01*
G37*
G36*
X145073665Y-113172622D02*
G01*
X145147222Y-113179867D01*
X145288786Y-113222810D01*
X145419252Y-113292546D01*
X145449040Y-113316992D01*
X145533607Y-113386393D01*
X145603008Y-113470960D01*
X145627454Y-113500748D01*
X145697190Y-113631214D01*
X145740133Y-113772778D01*
X145754633Y-113920000D01*
X145740133Y-114067222D01*
X145697190Y-114208786D01*
X145627454Y-114339252D01*
X145613931Y-114355730D01*
X145533607Y-114453607D01*
X145449040Y-114523008D01*
X145419252Y-114547454D01*
X145288786Y-114617190D01*
X145147222Y-114660133D01*
X145092445Y-114665528D01*
X145036888Y-114671000D01*
X144963112Y-114671000D01*
X144907555Y-114665528D01*
X144852778Y-114660133D01*
X144711214Y-114617190D01*
X144580748Y-114547454D01*
X144550960Y-114523008D01*
X144466393Y-114453607D01*
X144386069Y-114355730D01*
X144372546Y-114339252D01*
X144302810Y-114208786D01*
X144259867Y-114067222D01*
X144245367Y-113920000D01*
X144259867Y-113772778D01*
X144302810Y-113631214D01*
X144372546Y-113500748D01*
X144396992Y-113470960D01*
X144466393Y-113386393D01*
X144550960Y-113316992D01*
X144580748Y-113292546D01*
X144711214Y-113222810D01*
X144852778Y-113179867D01*
X144926335Y-113172622D01*
X144963112Y-113169000D01*
X145036888Y-113169000D01*
X145073665Y-113172622D01*
X145073665Y-113172622D01*
G37*
G36*
X129823241Y-106104760D02*
G01*
X130087305Y-106214139D01*
X130324958Y-106372934D01*
X130527066Y-106575042D01*
X130685861Y-106812695D01*
X130795240Y-107076759D01*
X130851000Y-107357088D01*
X130851000Y-107642912D01*
X130795240Y-107923241D01*
X130685861Y-108187305D01*
X130527066Y-108424958D01*
X130324958Y-108627066D01*
X130087305Y-108785861D01*
X129823241Y-108895240D01*
X129542912Y-108951000D01*
X129257088Y-108951000D01*
X128976759Y-108895240D01*
X128712695Y-108785861D01*
X128475042Y-108627066D01*
X128428535Y-108580559D01*
X128409593Y-108565014D01*
X128387982Y-108553463D01*
X128364533Y-108546350D01*
X128340147Y-108543948D01*
X128315761Y-108546350D01*
X128292312Y-108553463D01*
X128270701Y-108565014D01*
X128251759Y-108580559D01*
X128236214Y-108599501D01*
X128224663Y-108621112D01*
X128217550Y-108644561D01*
X128215148Y-108668947D01*
X128217550Y-108693333D01*
X128224663Y-108716782D01*
X128236214Y-108738393D01*
X128285861Y-108812695D01*
X128395240Y-109076759D01*
X128451000Y-109357088D01*
X128451000Y-109642912D01*
X128395240Y-109923241D01*
X128285861Y-110187305D01*
X128127066Y-110424958D01*
X127924958Y-110627066D01*
X127687305Y-110785861D01*
X127423241Y-110895240D01*
X127142912Y-110951000D01*
X126857088Y-110951000D01*
X126576759Y-110895240D01*
X126312695Y-110785861D01*
X126075042Y-110627066D01*
X125872934Y-110424958D01*
X125714139Y-110187305D01*
X125604760Y-109923241D01*
X125549000Y-109642912D01*
X125549000Y-109357088D01*
X125604760Y-109076759D01*
X125714139Y-108812695D01*
X125872934Y-108575042D01*
X126075042Y-108372934D01*
X126312695Y-108214139D01*
X126576759Y-108104760D01*
X126857088Y-108049000D01*
X127142912Y-108049000D01*
X127423241Y-108104760D01*
X127687305Y-108214139D01*
X127924958Y-108372934D01*
X127971465Y-108419441D01*
X127990407Y-108434986D01*
X128012018Y-108446537D01*
X128035467Y-108453650D01*
X128059853Y-108456052D01*
X128084239Y-108453650D01*
X128107688Y-108446537D01*
X128129299Y-108434986D01*
X128148241Y-108419441D01*
X128163786Y-108400499D01*
X128175337Y-108378888D01*
X128182450Y-108355439D01*
X128184852Y-108331053D01*
X128182450Y-108306667D01*
X128175337Y-108283218D01*
X128163786Y-108261607D01*
X128114139Y-108187305D01*
X128004760Y-107923241D01*
X127949000Y-107642912D01*
X127949000Y-107357088D01*
X128004760Y-107076759D01*
X128114139Y-106812695D01*
X128272934Y-106575042D01*
X128475042Y-106372934D01*
X128712695Y-106214139D01*
X128976759Y-106104760D01*
X129257088Y-106049000D01*
X129542912Y-106049000D01*
X129823241Y-106104760D01*
X129823241Y-106104760D01*
G37*
G36*
X135323241Y-106104760D02*
G01*
X135587305Y-106214139D01*
X135824958Y-106372934D01*
X136027066Y-106575042D01*
X136185861Y-106812695D01*
X136295240Y-107076759D01*
X136351000Y-107357088D01*
X136351000Y-107642912D01*
X136295240Y-107923241D01*
X136185861Y-108187305D01*
X136027066Y-108424958D01*
X135824958Y-108627066D01*
X135587305Y-108785861D01*
X135323241Y-108895240D01*
X135042912Y-108951000D01*
X134757088Y-108951000D01*
X134476759Y-108895240D01*
X134212695Y-108785861D01*
X133975042Y-108627066D01*
X133772934Y-108424958D01*
X133614139Y-108187305D01*
X133504760Y-107923241D01*
X133449000Y-107642912D01*
X133449000Y-107357088D01*
X133504760Y-107076759D01*
X133614139Y-106812695D01*
X133772934Y-106575042D01*
X133975042Y-106372934D01*
X134212695Y-106214139D01*
X134476759Y-106104760D01*
X134757088Y-106049000D01*
X135042912Y-106049000D01*
X135323241Y-106104760D01*
X135323241Y-106104760D01*
G37*
G36*
X149363443Y-105830519D02*
G01*
X149429627Y-105837037D01*
X149599466Y-105888557D01*
X149755991Y-105972222D01*
X149791729Y-106001552D01*
X149893186Y-106084814D01*
X149976448Y-106186271D01*
X150005778Y-106222009D01*
X150089443Y-106378534D01*
X150140963Y-106548373D01*
X150158359Y-106725000D01*
X150140963Y-106901627D01*
X150089443Y-107071466D01*
X150005778Y-107227991D01*
X149976448Y-107263729D01*
X149893186Y-107365186D01*
X149791729Y-107448448D01*
X149755991Y-107477778D01*
X149599466Y-107561443D01*
X149429627Y-107612963D01*
X149363443Y-107619481D01*
X149297260Y-107626000D01*
X149208740Y-107626000D01*
X149142557Y-107619481D01*
X149076373Y-107612963D01*
X148906534Y-107561443D01*
X148750009Y-107477778D01*
X148714271Y-107448448D01*
X148612814Y-107365186D01*
X148529552Y-107263729D01*
X148500222Y-107227991D01*
X148416557Y-107071466D01*
X148365037Y-106901627D01*
X148347641Y-106725000D01*
X148365037Y-106548373D01*
X148416557Y-106378534D01*
X148500222Y-106222009D01*
X148529552Y-106186271D01*
X148612814Y-106084814D01*
X148714271Y-106001552D01*
X148750009Y-105972222D01*
X148906534Y-105888557D01*
X149076373Y-105837037D01*
X149142557Y-105830519D01*
X149208740Y-105824000D01*
X149297260Y-105824000D01*
X149363443Y-105830519D01*
X149363443Y-105830519D01*
G37*
G36*
X151903443Y-105830519D02*
G01*
X151969627Y-105837037D01*
X152139466Y-105888557D01*
X152295991Y-105972222D01*
X152331729Y-106001552D01*
X152433186Y-106084814D01*
X152516448Y-106186271D01*
X152545778Y-106222009D01*
X152629443Y-106378534D01*
X152680963Y-106548373D01*
X152698359Y-106725000D01*
X152680963Y-106901627D01*
X152629443Y-107071466D01*
X152545778Y-107227991D01*
X152516448Y-107263729D01*
X152433186Y-107365186D01*
X152331729Y-107448448D01*
X152295991Y-107477778D01*
X152139466Y-107561443D01*
X151969627Y-107612963D01*
X151903443Y-107619481D01*
X151837260Y-107626000D01*
X151748740Y-107626000D01*
X151682557Y-107619481D01*
X151616373Y-107612963D01*
X151446534Y-107561443D01*
X151290009Y-107477778D01*
X151254271Y-107448448D01*
X151152814Y-107365186D01*
X151069552Y-107263729D01*
X151040222Y-107227991D01*
X150956557Y-107071466D01*
X150905037Y-106901627D01*
X150887641Y-106725000D01*
X150905037Y-106548373D01*
X150956557Y-106378534D01*
X151040222Y-106222009D01*
X151069552Y-106186271D01*
X151152814Y-106084814D01*
X151254271Y-106001552D01*
X151290009Y-105972222D01*
X151446534Y-105888557D01*
X151616373Y-105837037D01*
X151682557Y-105830519D01*
X151748740Y-105824000D01*
X151837260Y-105824000D01*
X151903443Y-105830519D01*
X151903443Y-105830519D01*
G37*
G36*
X151903443Y-103290519D02*
G01*
X151969627Y-103297037D01*
X152139466Y-103348557D01*
X152295991Y-103432222D01*
X152331729Y-103461552D01*
X152433186Y-103544814D01*
X152516448Y-103646271D01*
X152545778Y-103682009D01*
X152629443Y-103838534D01*
X152680963Y-104008373D01*
X152698359Y-104185000D01*
X152680963Y-104361627D01*
X152629443Y-104531466D01*
X152545778Y-104687991D01*
X152516448Y-104723729D01*
X152433186Y-104825186D01*
X152331729Y-104908448D01*
X152295991Y-104937778D01*
X152139466Y-105021443D01*
X151969627Y-105072963D01*
X151903443Y-105079481D01*
X151837260Y-105086000D01*
X151748740Y-105086000D01*
X151682557Y-105079481D01*
X151616373Y-105072963D01*
X151446534Y-105021443D01*
X151290009Y-104937778D01*
X151254271Y-104908448D01*
X151152814Y-104825186D01*
X151069552Y-104723729D01*
X151040222Y-104687991D01*
X150956557Y-104531466D01*
X150905037Y-104361627D01*
X150887641Y-104185000D01*
X150905037Y-104008373D01*
X150956557Y-103838534D01*
X151040222Y-103682009D01*
X151069552Y-103646271D01*
X151152814Y-103544814D01*
X151254271Y-103461552D01*
X151290009Y-103432222D01*
X151446534Y-103348557D01*
X151616373Y-103297037D01*
X151682558Y-103290518D01*
X151748740Y-103284000D01*
X151837260Y-103284000D01*
X151903443Y-103290519D01*
X151903443Y-103290519D01*
G37*
G36*
X149363443Y-103290519D02*
G01*
X149429627Y-103297037D01*
X149599466Y-103348557D01*
X149755991Y-103432222D01*
X149791729Y-103461552D01*
X149893186Y-103544814D01*
X149976448Y-103646271D01*
X150005778Y-103682009D01*
X150089443Y-103838534D01*
X150140963Y-104008373D01*
X150158359Y-104185000D01*
X150140963Y-104361627D01*
X150089443Y-104531466D01*
X150005778Y-104687991D01*
X149976448Y-104723729D01*
X149893186Y-104825186D01*
X149791729Y-104908448D01*
X149755991Y-104937778D01*
X149599466Y-105021443D01*
X149429627Y-105072963D01*
X149363443Y-105079481D01*
X149297260Y-105086000D01*
X149208740Y-105086000D01*
X149142557Y-105079481D01*
X149076373Y-105072963D01*
X148906534Y-105021443D01*
X148750009Y-104937778D01*
X148714271Y-104908448D01*
X148612814Y-104825186D01*
X148529552Y-104723729D01*
X148500222Y-104687991D01*
X148416557Y-104531466D01*
X148365037Y-104361627D01*
X148347641Y-104185000D01*
X148365037Y-104008373D01*
X148416557Y-103838534D01*
X148500222Y-103682009D01*
X148529552Y-103646271D01*
X148612814Y-103544814D01*
X148714271Y-103461552D01*
X148750009Y-103432222D01*
X148906534Y-103348557D01*
X149076373Y-103297037D01*
X149142558Y-103290518D01*
X149208740Y-103284000D01*
X149297260Y-103284000D01*
X149363443Y-103290519D01*
X149363443Y-103290519D01*
G37*
G36*
X149363442Y-100750518D02*
G01*
X149429627Y-100757037D01*
X149599466Y-100808557D01*
X149755991Y-100892222D01*
X149759668Y-100895240D01*
X149893186Y-101004814D01*
X149976448Y-101106271D01*
X150005778Y-101142009D01*
X150089443Y-101298534D01*
X150140963Y-101468373D01*
X150158359Y-101645000D01*
X150140963Y-101821627D01*
X150089443Y-101991466D01*
X150005778Y-102147991D01*
X149976448Y-102183729D01*
X149893186Y-102285186D01*
X149791729Y-102368448D01*
X149755991Y-102397778D01*
X149599466Y-102481443D01*
X149429627Y-102532963D01*
X149363443Y-102539481D01*
X149297260Y-102546000D01*
X149208740Y-102546000D01*
X149142557Y-102539481D01*
X149076373Y-102532963D01*
X148906534Y-102481443D01*
X148750009Y-102397778D01*
X148714271Y-102368448D01*
X148612814Y-102285186D01*
X148529552Y-102183729D01*
X148500222Y-102147991D01*
X148416557Y-101991466D01*
X148365037Y-101821627D01*
X148347641Y-101645000D01*
X148365037Y-101468373D01*
X148416557Y-101298534D01*
X148500222Y-101142009D01*
X148529552Y-101106271D01*
X148612814Y-101004814D01*
X148746332Y-100895240D01*
X148750009Y-100892222D01*
X148906534Y-100808557D01*
X149076373Y-100757037D01*
X149142558Y-100750518D01*
X149208740Y-100744000D01*
X149297260Y-100744000D01*
X149363442Y-100750518D01*
X149363442Y-100750518D01*
G37*
G36*
X151903442Y-100750518D02*
G01*
X151969627Y-100757037D01*
X152139466Y-100808557D01*
X152295991Y-100892222D01*
X152299668Y-100895240D01*
X152433186Y-101004814D01*
X152516448Y-101106271D01*
X152545778Y-101142009D01*
X152629443Y-101298534D01*
X152680963Y-101468373D01*
X152698359Y-101645000D01*
X152680963Y-101821627D01*
X152629443Y-101991466D01*
X152545778Y-102147991D01*
X152516448Y-102183729D01*
X152433186Y-102285186D01*
X152331729Y-102368448D01*
X152295991Y-102397778D01*
X152139466Y-102481443D01*
X151969627Y-102532963D01*
X151903443Y-102539481D01*
X151837260Y-102546000D01*
X151748740Y-102546000D01*
X151682557Y-102539481D01*
X151616373Y-102532963D01*
X151446534Y-102481443D01*
X151290009Y-102397778D01*
X151254271Y-102368448D01*
X151152814Y-102285186D01*
X151069552Y-102183729D01*
X151040222Y-102147991D01*
X150956557Y-101991466D01*
X150905037Y-101821627D01*
X150887641Y-101645000D01*
X150905037Y-101468373D01*
X150956557Y-101298534D01*
X151040222Y-101142009D01*
X151069552Y-101106271D01*
X151152814Y-101004814D01*
X151286332Y-100895240D01*
X151290009Y-100892222D01*
X151446534Y-100808557D01*
X151616373Y-100757037D01*
X151682558Y-100750518D01*
X151748740Y-100744000D01*
X151837260Y-100744000D01*
X151903442Y-100750518D01*
X151903442Y-100750518D01*
G37*
G36*
X129923241Y-96104760D02*
G01*
X130187305Y-96214139D01*
X130424958Y-96372934D01*
X130627066Y-96575042D01*
X130785861Y-96812695D01*
X130895240Y-97076759D01*
X130951000Y-97357088D01*
X130951000Y-97642912D01*
X130895240Y-97923241D01*
X130785861Y-98187305D01*
X130627066Y-98424958D01*
X130424958Y-98627066D01*
X130187305Y-98785861D01*
X129923241Y-98895240D01*
X129642912Y-98951000D01*
X129357088Y-98951000D01*
X129076759Y-98895240D01*
X128812695Y-98785861D01*
X128575042Y-98627066D01*
X128528535Y-98580559D01*
X128509593Y-98565014D01*
X128487982Y-98553463D01*
X128464533Y-98546350D01*
X128440147Y-98543948D01*
X128415761Y-98546350D01*
X128392312Y-98553463D01*
X128370701Y-98565014D01*
X128351759Y-98580559D01*
X128336214Y-98599501D01*
X128324663Y-98621112D01*
X128317550Y-98644561D01*
X128315148Y-98668947D01*
X128317550Y-98693333D01*
X128324663Y-98716782D01*
X128336214Y-98738393D01*
X128385861Y-98812695D01*
X128495240Y-99076759D01*
X128551000Y-99357088D01*
X128551000Y-99642912D01*
X128495240Y-99923241D01*
X128385861Y-100187305D01*
X128227066Y-100424958D01*
X128024958Y-100627066D01*
X127787305Y-100785861D01*
X127523241Y-100895240D01*
X127242912Y-100951000D01*
X126957088Y-100951000D01*
X126676759Y-100895240D01*
X126412695Y-100785861D01*
X126175042Y-100627066D01*
X125972934Y-100424958D01*
X125814139Y-100187305D01*
X125704760Y-99923241D01*
X125649000Y-99642912D01*
X125649000Y-99357088D01*
X125704760Y-99076759D01*
X125814139Y-98812695D01*
X125972934Y-98575042D01*
X126175042Y-98372934D01*
X126412695Y-98214139D01*
X126676759Y-98104760D01*
X126957088Y-98049000D01*
X127242912Y-98049000D01*
X127523241Y-98104760D01*
X127787305Y-98214139D01*
X128024958Y-98372934D01*
X128071465Y-98419441D01*
X128090407Y-98434986D01*
X128112018Y-98446537D01*
X128135467Y-98453650D01*
X128159853Y-98456052D01*
X128184239Y-98453650D01*
X128207688Y-98446537D01*
X128229299Y-98434986D01*
X128248241Y-98419441D01*
X128263786Y-98400499D01*
X128275337Y-98378888D01*
X128282450Y-98355439D01*
X128284852Y-98331053D01*
X128282450Y-98306667D01*
X128275337Y-98283218D01*
X128263786Y-98261607D01*
X128214139Y-98187305D01*
X128104760Y-97923241D01*
X128049000Y-97642912D01*
X128049000Y-97357088D01*
X128104760Y-97076759D01*
X128214139Y-96812695D01*
X128372934Y-96575042D01*
X128575042Y-96372934D01*
X128812695Y-96214139D01*
X129076759Y-96104760D01*
X129357088Y-96049000D01*
X129642912Y-96049000D01*
X129923241Y-96104760D01*
X129923241Y-96104760D01*
G37*
G36*
X151903443Y-98210519D02*
G01*
X151969627Y-98217037D01*
X152139466Y-98268557D01*
X152295991Y-98352222D01*
X152328483Y-98378888D01*
X152433186Y-98464814D01*
X152500100Y-98546350D01*
X152545778Y-98602009D01*
X152629443Y-98758534D01*
X152680963Y-98928373D01*
X152698359Y-99105000D01*
X152680963Y-99281627D01*
X152629443Y-99451466D01*
X152545778Y-99607991D01*
X152517120Y-99642911D01*
X152433186Y-99745186D01*
X152331729Y-99828448D01*
X152295991Y-99857778D01*
X152139466Y-99941443D01*
X151969627Y-99992963D01*
X151903443Y-99999481D01*
X151837260Y-100006000D01*
X151748740Y-100006000D01*
X151682557Y-99999481D01*
X151616373Y-99992963D01*
X151446534Y-99941443D01*
X151290009Y-99857778D01*
X151254271Y-99828448D01*
X151152814Y-99745186D01*
X151068880Y-99642911D01*
X151040222Y-99607991D01*
X150956557Y-99451466D01*
X150905037Y-99281627D01*
X150887641Y-99105000D01*
X150905037Y-98928373D01*
X150956557Y-98758534D01*
X151040222Y-98602009D01*
X151085900Y-98546350D01*
X151152814Y-98464814D01*
X151257517Y-98378888D01*
X151290009Y-98352222D01*
X151446534Y-98268557D01*
X151616373Y-98217037D01*
X151682558Y-98210518D01*
X151748740Y-98204000D01*
X151837260Y-98204000D01*
X151903443Y-98210519D01*
X151903443Y-98210519D01*
G37*
G36*
X149363443Y-98210519D02*
G01*
X149429627Y-98217037D01*
X149599466Y-98268557D01*
X149755991Y-98352222D01*
X149788483Y-98378888D01*
X149893186Y-98464814D01*
X149960100Y-98546350D01*
X150005778Y-98602009D01*
X150089443Y-98758534D01*
X150140963Y-98928373D01*
X150158359Y-99105000D01*
X150140963Y-99281627D01*
X150089443Y-99451466D01*
X150005778Y-99607991D01*
X149977120Y-99642911D01*
X149893186Y-99745186D01*
X149791729Y-99828448D01*
X149755991Y-99857778D01*
X149599466Y-99941443D01*
X149429627Y-99992963D01*
X149363443Y-99999481D01*
X149297260Y-100006000D01*
X149208740Y-100006000D01*
X149142557Y-99999481D01*
X149076373Y-99992963D01*
X148906534Y-99941443D01*
X148750009Y-99857778D01*
X148714271Y-99828448D01*
X148612814Y-99745186D01*
X148528880Y-99642911D01*
X148500222Y-99607991D01*
X148416557Y-99451466D01*
X148365037Y-99281627D01*
X148347641Y-99105000D01*
X148365037Y-98928373D01*
X148416557Y-98758534D01*
X148500222Y-98602009D01*
X148545900Y-98546350D01*
X148612814Y-98464814D01*
X148717517Y-98378888D01*
X148750009Y-98352222D01*
X148906534Y-98268557D01*
X149076373Y-98217037D01*
X149142558Y-98210518D01*
X149208740Y-98204000D01*
X149297260Y-98204000D01*
X149363443Y-98210519D01*
X149363443Y-98210519D01*
G37*
G36*
X135423241Y-96104760D02*
G01*
X135687305Y-96214139D01*
X135924958Y-96372934D01*
X136127066Y-96575042D01*
X136285861Y-96812695D01*
X136395240Y-97076759D01*
X136451000Y-97357088D01*
X136451000Y-97642912D01*
X136395240Y-97923241D01*
X136285861Y-98187305D01*
X136127066Y-98424958D01*
X135924958Y-98627066D01*
X135687305Y-98785861D01*
X135423241Y-98895240D01*
X135142912Y-98951000D01*
X134857088Y-98951000D01*
X134576759Y-98895240D01*
X134312695Y-98785861D01*
X134075042Y-98627066D01*
X133872934Y-98424958D01*
X133714139Y-98187305D01*
X133604760Y-97923241D01*
X133549000Y-97642912D01*
X133549000Y-97357088D01*
X133604760Y-97076759D01*
X133714139Y-96812695D01*
X133872934Y-96575042D01*
X134075042Y-96372934D01*
X134312695Y-96214139D01*
X134576759Y-96104760D01*
X134857088Y-96049000D01*
X135142912Y-96049000D01*
X135423241Y-96104760D01*
X135423241Y-96104760D01*
G37*
G36*
X151903443Y-95670519D02*
G01*
X151969627Y-95677037D01*
X152139466Y-95728557D01*
X152295991Y-95812222D01*
X152331729Y-95841552D01*
X152433186Y-95924814D01*
X152516448Y-96026271D01*
X152545778Y-96062009D01*
X152629443Y-96218534D01*
X152680963Y-96388373D01*
X152698359Y-96565000D01*
X152680963Y-96741627D01*
X152629443Y-96911466D01*
X152545778Y-97067991D01*
X152538582Y-97076759D01*
X152433186Y-97205186D01*
X152331729Y-97288448D01*
X152295991Y-97317778D01*
X152139466Y-97401443D01*
X151969627Y-97452963D01*
X151903442Y-97459482D01*
X151837260Y-97466000D01*
X151748740Y-97466000D01*
X151682558Y-97459482D01*
X151616373Y-97452963D01*
X151446534Y-97401443D01*
X151290009Y-97317778D01*
X151254271Y-97288448D01*
X151152814Y-97205186D01*
X151047418Y-97076759D01*
X151040222Y-97067991D01*
X150956557Y-96911466D01*
X150905037Y-96741627D01*
X150887641Y-96565000D01*
X150905037Y-96388373D01*
X150956557Y-96218534D01*
X151040222Y-96062009D01*
X151069552Y-96026271D01*
X151152814Y-95924814D01*
X151254271Y-95841552D01*
X151290009Y-95812222D01*
X151446534Y-95728557D01*
X151616373Y-95677037D01*
X151682557Y-95670519D01*
X151748740Y-95664000D01*
X151837260Y-95664000D01*
X151903443Y-95670519D01*
X151903443Y-95670519D01*
G37*
G36*
X150154000Y-97466000D02*
G01*
X148352000Y-97466000D01*
X148352000Y-95664000D01*
X150154000Y-95664000D01*
X150154000Y-97466000D01*
X150154000Y-97466000D01*
G37*
G36*
X129777395Y-90585546D02*
G01*
X129950466Y-90657234D01*
X129950467Y-90657235D01*
X130106227Y-90761310D01*
X130238690Y-90893773D01*
X130238691Y-90893775D01*
X130342766Y-91049534D01*
X130414454Y-91222605D01*
X130451000Y-91406333D01*
X130451000Y-91593667D01*
X130414454Y-91777395D01*
X130342766Y-91950466D01*
X130342765Y-91950467D01*
X130238690Y-92106227D01*
X130106227Y-92238690D01*
X130027818Y-92291081D01*
X129950466Y-92342766D01*
X129777395Y-92414454D01*
X129593667Y-92451000D01*
X129406333Y-92451000D01*
X129222605Y-92414454D01*
X129049534Y-92342766D01*
X128972182Y-92291081D01*
X128893773Y-92238690D01*
X128761310Y-92106227D01*
X128657235Y-91950467D01*
X128657234Y-91950466D01*
X128585546Y-91777395D01*
X128549000Y-91593667D01*
X128549000Y-91406333D01*
X128585546Y-91222605D01*
X128657234Y-91049534D01*
X128761309Y-90893775D01*
X128761310Y-90893773D01*
X128893773Y-90761310D01*
X129049533Y-90657235D01*
X129049534Y-90657234D01*
X129222605Y-90585546D01*
X129406333Y-90549000D01*
X129593667Y-90549000D01*
X129777395Y-90585546D01*
X129777395Y-90585546D01*
G37*
G36*
X129777395Y-88085546D02*
G01*
X129950466Y-88157234D01*
X129950467Y-88157235D01*
X130106227Y-88261310D01*
X130238690Y-88393773D01*
X130238691Y-88393775D01*
X130342766Y-88549534D01*
X130414454Y-88722605D01*
X130451000Y-88906333D01*
X130451000Y-89093667D01*
X130414454Y-89277395D01*
X130342766Y-89450466D01*
X130342765Y-89450467D01*
X130238690Y-89606227D01*
X130106227Y-89738690D01*
X130027818Y-89791081D01*
X129950466Y-89842766D01*
X129777395Y-89914454D01*
X129593667Y-89951000D01*
X129406333Y-89951000D01*
X129222605Y-89914454D01*
X129049534Y-89842766D01*
X128972182Y-89791081D01*
X128893773Y-89738690D01*
X128761310Y-89606227D01*
X128657235Y-89450467D01*
X128657234Y-89450466D01*
X128585546Y-89277395D01*
X128549000Y-89093667D01*
X128549000Y-88906333D01*
X128585546Y-88722605D01*
X128657234Y-88549534D01*
X128761309Y-88393775D01*
X128761310Y-88393773D01*
X128893773Y-88261310D01*
X129049533Y-88157235D01*
X129049534Y-88157234D01*
X129222605Y-88085546D01*
X129406333Y-88049000D01*
X129593667Y-88049000D01*
X129777395Y-88085546D01*
X129777395Y-88085546D01*
G37*
G36*
X129777395Y-85585546D02*
G01*
X129950466Y-85657234D01*
X129950467Y-85657235D01*
X130106227Y-85761310D01*
X130238690Y-85893773D01*
X130238691Y-85893775D01*
X130342766Y-86049534D01*
X130414454Y-86222605D01*
X130451000Y-86406333D01*
X130451000Y-86593667D01*
X130414454Y-86777395D01*
X130342766Y-86950466D01*
X130342765Y-86950467D01*
X130238690Y-87106227D01*
X130106227Y-87238690D01*
X130027818Y-87291081D01*
X129950466Y-87342766D01*
X129777395Y-87414454D01*
X129593667Y-87451000D01*
X129406333Y-87451000D01*
X129222605Y-87414454D01*
X129049534Y-87342766D01*
X128972182Y-87291081D01*
X128893773Y-87238690D01*
X128761310Y-87106227D01*
X128657235Y-86950467D01*
X128657234Y-86950466D01*
X128585546Y-86777395D01*
X128549000Y-86593667D01*
X128549000Y-86406333D01*
X128585546Y-86222605D01*
X128657234Y-86049534D01*
X128761309Y-85893775D01*
X128761310Y-85893773D01*
X128893773Y-85761310D01*
X129049533Y-85657235D01*
X129049534Y-85657234D01*
X129222605Y-85585546D01*
X129406333Y-85549000D01*
X129593667Y-85549000D01*
X129777395Y-85585546D01*
X129777395Y-85585546D01*
G37*
G36*
X152666823Y-84701313D02*
G01*
X152827242Y-84749976D01*
X152959906Y-84820886D01*
X152975078Y-84828996D01*
X153104659Y-84935341D01*
X153211004Y-85064922D01*
X153211005Y-85064924D01*
X153290024Y-85212758D01*
X153338687Y-85373177D01*
X153355117Y-85540000D01*
X153338687Y-85706823D01*
X153290024Y-85867242D01*
X153219464Y-85999250D01*
X153211004Y-86015078D01*
X153104659Y-86144659D01*
X152975078Y-86251004D01*
X152975076Y-86251005D01*
X152827242Y-86330024D01*
X152666823Y-86378687D01*
X152541804Y-86391000D01*
X152458196Y-86391000D01*
X152333177Y-86378687D01*
X152172758Y-86330024D01*
X152024924Y-86251005D01*
X152024922Y-86251004D01*
X151895341Y-86144659D01*
X151788996Y-86015078D01*
X151780536Y-85999250D01*
X151709976Y-85867242D01*
X151661313Y-85706823D01*
X151644883Y-85540000D01*
X151661313Y-85373177D01*
X151709976Y-85212758D01*
X151788995Y-85064924D01*
X151788996Y-85064922D01*
X151895341Y-84935341D01*
X152024922Y-84828996D01*
X152040094Y-84820886D01*
X152172758Y-84749976D01*
X152333177Y-84701313D01*
X152458196Y-84689000D01*
X152541804Y-84689000D01*
X152666823Y-84701313D01*
X152666823Y-84701313D01*
G37*
G36*
X145046823Y-84701313D02*
G01*
X145207242Y-84749976D01*
X145339906Y-84820886D01*
X145355078Y-84828996D01*
X145484659Y-84935341D01*
X145591004Y-85064922D01*
X145591005Y-85064924D01*
X145670024Y-85212758D01*
X145718687Y-85373177D01*
X145735117Y-85540000D01*
X145718687Y-85706823D01*
X145670024Y-85867242D01*
X145599464Y-85999250D01*
X145591004Y-86015078D01*
X145484659Y-86144659D01*
X145355078Y-86251004D01*
X145355076Y-86251005D01*
X145207242Y-86330024D01*
X145046823Y-86378687D01*
X144921804Y-86391000D01*
X144838196Y-86391000D01*
X144713177Y-86378687D01*
X144552758Y-86330024D01*
X144404924Y-86251005D01*
X144404922Y-86251004D01*
X144275341Y-86144659D01*
X144168996Y-86015078D01*
X144160536Y-85999250D01*
X144089976Y-85867242D01*
X144041313Y-85706823D01*
X144024883Y-85540000D01*
X144041313Y-85373177D01*
X144089976Y-85212758D01*
X144168995Y-85064924D01*
X144168996Y-85064922D01*
X144275341Y-84935341D01*
X144404922Y-84828996D01*
X144420094Y-84820886D01*
X144552758Y-84749976D01*
X144713177Y-84701313D01*
X144838196Y-84689000D01*
X144921804Y-84689000D01*
X145046823Y-84701313D01*
X145046823Y-84701313D01*
G37*
G36*
X135073665Y-84832622D02*
G01*
X135147222Y-84839867D01*
X135288786Y-84882810D01*
X135419252Y-84952546D01*
X135449040Y-84976992D01*
X135533607Y-85046393D01*
X135603008Y-85130960D01*
X135627454Y-85160748D01*
X135697190Y-85291214D01*
X135740133Y-85432778D01*
X135754633Y-85580000D01*
X135740133Y-85727222D01*
X135697190Y-85868786D01*
X135627454Y-85999252D01*
X135614466Y-86015078D01*
X135533607Y-86113607D01*
X135449040Y-86183008D01*
X135419252Y-86207454D01*
X135288786Y-86277190D01*
X135147222Y-86320133D01*
X135073665Y-86327378D01*
X135036888Y-86331000D01*
X134963112Y-86331000D01*
X134926335Y-86327378D01*
X134852778Y-86320133D01*
X134711214Y-86277190D01*
X134580748Y-86207454D01*
X134550960Y-86183008D01*
X134466393Y-86113607D01*
X134385534Y-86015078D01*
X134372546Y-85999252D01*
X134302810Y-85868786D01*
X134259867Y-85727222D01*
X134245367Y-85580000D01*
X134259867Y-85432778D01*
X134302810Y-85291214D01*
X134372546Y-85160748D01*
X134396992Y-85130960D01*
X134466393Y-85046393D01*
X134550960Y-84976992D01*
X134580748Y-84952546D01*
X134711214Y-84882810D01*
X134852778Y-84839867D01*
X134926335Y-84832622D01*
X134963112Y-84829000D01*
X135036888Y-84829000D01*
X135073665Y-84832622D01*
X135073665Y-84832622D01*
G37*
G36*
X145046823Y-82161313D02*
G01*
X145207242Y-82209976D01*
X145339906Y-82280886D01*
X145355078Y-82288996D01*
X145484659Y-82395341D01*
X145591004Y-82524922D01*
X145591005Y-82524924D01*
X145670024Y-82672758D01*
X145718687Y-82833177D01*
X145735117Y-83000000D01*
X145718687Y-83166823D01*
X145670024Y-83327242D01*
X145599114Y-83459906D01*
X145591004Y-83475078D01*
X145484659Y-83604659D01*
X145355078Y-83711004D01*
X145355076Y-83711005D01*
X145207242Y-83790024D01*
X145046823Y-83838687D01*
X144921804Y-83851000D01*
X144838196Y-83851000D01*
X144713177Y-83838687D01*
X144552758Y-83790024D01*
X144404924Y-83711005D01*
X144404922Y-83711004D01*
X144275341Y-83604659D01*
X144168996Y-83475078D01*
X144160886Y-83459906D01*
X144089976Y-83327242D01*
X144041313Y-83166823D01*
X144024883Y-83000000D01*
X144041313Y-82833177D01*
X144089976Y-82672758D01*
X144168995Y-82524924D01*
X144168996Y-82524922D01*
X144275341Y-82395341D01*
X144404922Y-82288996D01*
X144420094Y-82280886D01*
X144552758Y-82209976D01*
X144713177Y-82161313D01*
X144838196Y-82149000D01*
X144921804Y-82149000D01*
X145046823Y-82161313D01*
X145046823Y-82161313D01*
G37*
G36*
X152666823Y-82161313D02*
G01*
X152827242Y-82209976D01*
X152959906Y-82280886D01*
X152975078Y-82288996D01*
X153104659Y-82395341D01*
X153211004Y-82524922D01*
X153211005Y-82524924D01*
X153290024Y-82672758D01*
X153338687Y-82833177D01*
X153355117Y-83000000D01*
X153338687Y-83166823D01*
X153290024Y-83327242D01*
X153219114Y-83459906D01*
X153211004Y-83475078D01*
X153104659Y-83604659D01*
X152975078Y-83711004D01*
X152975076Y-83711005D01*
X152827242Y-83790024D01*
X152666823Y-83838687D01*
X152541804Y-83851000D01*
X152458196Y-83851000D01*
X152333177Y-83838687D01*
X152172758Y-83790024D01*
X152024924Y-83711005D01*
X152024922Y-83711004D01*
X151895341Y-83604659D01*
X151788996Y-83475078D01*
X151780886Y-83459906D01*
X151709976Y-83327242D01*
X151661313Y-83166823D01*
X151644883Y-83000000D01*
X151661313Y-82833177D01*
X151709976Y-82672758D01*
X151788995Y-82524924D01*
X151788996Y-82524922D01*
X151895341Y-82395341D01*
X152024922Y-82288996D01*
X152040094Y-82280886D01*
X152172758Y-82209976D01*
X152333177Y-82161313D01*
X152458196Y-82149000D01*
X152541804Y-82149000D01*
X152666823Y-82161313D01*
X152666823Y-82161313D01*
G37*
G36*
X127277395Y-81125546D02*
G01*
X127450466Y-81197234D01*
X127450467Y-81197235D01*
X127606227Y-81301310D01*
X127738690Y-81433773D01*
X127738691Y-81433775D01*
X127842766Y-81589534D01*
X127914454Y-81762605D01*
X127951000Y-81946333D01*
X127951000Y-82133667D01*
X127914454Y-82317395D01*
X127842766Y-82490466D01*
X127842765Y-82490467D01*
X127738690Y-82646227D01*
X127606227Y-82778690D01*
X127527818Y-82831081D01*
X127450466Y-82882766D01*
X127277395Y-82954454D01*
X127093667Y-82991000D01*
X126906333Y-82991000D01*
X126722605Y-82954454D01*
X126549534Y-82882766D01*
X126472182Y-82831081D01*
X126393773Y-82778690D01*
X126261310Y-82646227D01*
X126157235Y-82490467D01*
X126157234Y-82490466D01*
X126085546Y-82317395D01*
X126049000Y-82133667D01*
X126049000Y-81946333D01*
X126085546Y-81762605D01*
X126157234Y-81589534D01*
X126261309Y-81433775D01*
X126261310Y-81433773D01*
X126393773Y-81301310D01*
X126549533Y-81197235D01*
X126549534Y-81197234D01*
X126722605Y-81125546D01*
X126906333Y-81089000D01*
X127093667Y-81089000D01*
X127277395Y-81125546D01*
X127277395Y-81125546D01*
G37*
G36*
X152666823Y-79621313D02*
G01*
X152827242Y-79669976D01*
X152959906Y-79740886D01*
X152975078Y-79748996D01*
X153104659Y-79855341D01*
X153211004Y-79984922D01*
X153211005Y-79984924D01*
X153290024Y-80132758D01*
X153338687Y-80293177D01*
X153355117Y-80460000D01*
X153338687Y-80626823D01*
X153290024Y-80787242D01*
X153253416Y-80855730D01*
X153211004Y-80935078D01*
X153104659Y-81064659D01*
X152975078Y-81171004D01*
X152975076Y-81171005D01*
X152827242Y-81250024D01*
X152666823Y-81298687D01*
X152541804Y-81311000D01*
X152458196Y-81311000D01*
X152333177Y-81298687D01*
X152172758Y-81250024D01*
X152024924Y-81171005D01*
X152024922Y-81171004D01*
X151895341Y-81064659D01*
X151788996Y-80935078D01*
X151746584Y-80855730D01*
X151709976Y-80787242D01*
X151661313Y-80626823D01*
X151644883Y-80460000D01*
X151661313Y-80293177D01*
X151709976Y-80132758D01*
X151788995Y-79984924D01*
X151788996Y-79984922D01*
X151895341Y-79855341D01*
X152024922Y-79748996D01*
X152040094Y-79740886D01*
X152172758Y-79669976D01*
X152333177Y-79621313D01*
X152458196Y-79609000D01*
X152541804Y-79609000D01*
X152666823Y-79621313D01*
X152666823Y-79621313D01*
G37*
G36*
X145046823Y-79621313D02*
G01*
X145207242Y-79669976D01*
X145339906Y-79740886D01*
X145355078Y-79748996D01*
X145484659Y-79855341D01*
X145591004Y-79984922D01*
X145591005Y-79984924D01*
X145670024Y-80132758D01*
X145718687Y-80293177D01*
X145735117Y-80460000D01*
X145718687Y-80626823D01*
X145670024Y-80787242D01*
X145633416Y-80855730D01*
X145591004Y-80935078D01*
X145484659Y-81064659D01*
X145355078Y-81171004D01*
X145355076Y-81171005D01*
X145207242Y-81250024D01*
X145046823Y-81298687D01*
X144921804Y-81311000D01*
X144838196Y-81311000D01*
X144713177Y-81298687D01*
X144552758Y-81250024D01*
X144404924Y-81171005D01*
X144404922Y-81171004D01*
X144275341Y-81064659D01*
X144168996Y-80935078D01*
X144126584Y-80855730D01*
X144089976Y-80787242D01*
X144041313Y-80626823D01*
X144024883Y-80460000D01*
X144041313Y-80293177D01*
X144089976Y-80132758D01*
X144168995Y-79984924D01*
X144168996Y-79984922D01*
X144275341Y-79855341D01*
X144404922Y-79748996D01*
X144420094Y-79740886D01*
X144552758Y-79669976D01*
X144713177Y-79621313D01*
X144838196Y-79609000D01*
X144921804Y-79609000D01*
X145046823Y-79621313D01*
X145046823Y-79621313D01*
G37*
G36*
X135219059Y-79777860D02*
G01*
X135355732Y-79834472D01*
X135478735Y-79916660D01*
X135583340Y-80021265D01*
X135665528Y-80144268D01*
X135722140Y-80280941D01*
X135751000Y-80426033D01*
X135751000Y-80573967D01*
X135722140Y-80719059D01*
X135665528Y-80855732D01*
X135583340Y-80978735D01*
X135478735Y-81083340D01*
X135355732Y-81165528D01*
X135355731Y-81165529D01*
X135355730Y-81165529D01*
X135219059Y-81222140D01*
X135073968Y-81251000D01*
X134926032Y-81251000D01*
X134780941Y-81222140D01*
X134644270Y-81165529D01*
X134644269Y-81165529D01*
X134644268Y-81165528D01*
X134521265Y-81083340D01*
X134416660Y-80978735D01*
X134334472Y-80855732D01*
X134277860Y-80719059D01*
X134249000Y-80573967D01*
X134249000Y-80426033D01*
X134277860Y-80280941D01*
X134334472Y-80144268D01*
X134416660Y-80021265D01*
X134521265Y-79916660D01*
X134644268Y-79834472D01*
X134780941Y-79777860D01*
X134926032Y-79749000D01*
X135073968Y-79749000D01*
X135219059Y-79777860D01*
X135219059Y-79777860D01*
G37*
G36*
X127951000Y-80451000D02*
G01*
X126049000Y-80451000D01*
X126049000Y-78549000D01*
X127951000Y-78549000D01*
X127951000Y-80451000D01*
X127951000Y-80451000D01*
G37*
G36*
X152666823Y-77081313D02*
G01*
X152827242Y-77129976D01*
X152959906Y-77200886D01*
X152975078Y-77208996D01*
X153104659Y-77315341D01*
X153211004Y-77444922D01*
X153211005Y-77444924D01*
X153290024Y-77592758D01*
X153338687Y-77753177D01*
X153355117Y-77920000D01*
X153338687Y-78086823D01*
X153290024Y-78247242D01*
X153288015Y-78251000D01*
X153211004Y-78395078D01*
X153104659Y-78524659D01*
X152975078Y-78631004D01*
X152975076Y-78631005D01*
X152827242Y-78710024D01*
X152666823Y-78758687D01*
X152541804Y-78771000D01*
X152458196Y-78771000D01*
X152333177Y-78758687D01*
X152172758Y-78710024D01*
X152024924Y-78631005D01*
X152024922Y-78631004D01*
X151895341Y-78524659D01*
X151788996Y-78395078D01*
X151711985Y-78251000D01*
X151709976Y-78247242D01*
X151661313Y-78086823D01*
X151644883Y-77920000D01*
X151661313Y-77753177D01*
X151709976Y-77592758D01*
X151788995Y-77444924D01*
X151788996Y-77444922D01*
X151895341Y-77315341D01*
X152024922Y-77208996D01*
X152040094Y-77200886D01*
X152172758Y-77129976D01*
X152333177Y-77081313D01*
X152458196Y-77069000D01*
X152541804Y-77069000D01*
X152666823Y-77081313D01*
X152666823Y-77081313D01*
G37*
G36*
X145046823Y-77081313D02*
G01*
X145207242Y-77129976D01*
X145339906Y-77200886D01*
X145355078Y-77208996D01*
X145484659Y-77315341D01*
X145591004Y-77444922D01*
X145591005Y-77444924D01*
X145670024Y-77592758D01*
X145718687Y-77753177D01*
X145735117Y-77920000D01*
X145718687Y-78086823D01*
X145670024Y-78247242D01*
X145668015Y-78251000D01*
X145591004Y-78395078D01*
X145484659Y-78524659D01*
X145355078Y-78631004D01*
X145355076Y-78631005D01*
X145207242Y-78710024D01*
X145046823Y-78758687D01*
X144921804Y-78771000D01*
X144838196Y-78771000D01*
X144713177Y-78758687D01*
X144552758Y-78710024D01*
X144404924Y-78631005D01*
X144404922Y-78631004D01*
X144275341Y-78524659D01*
X144168996Y-78395078D01*
X144091985Y-78251000D01*
X144089976Y-78247242D01*
X144041313Y-78086823D01*
X144024883Y-77920000D01*
X144041313Y-77753177D01*
X144089976Y-77592758D01*
X144168995Y-77444924D01*
X144168996Y-77444922D01*
X144275341Y-77315341D01*
X144404922Y-77208996D01*
X144420094Y-77200886D01*
X144552758Y-77129976D01*
X144713177Y-77081313D01*
X144838196Y-77069000D01*
X144921804Y-77069000D01*
X145046823Y-77081313D01*
X145046823Y-77081313D01*
G37*
G36*
X135219059Y-76777860D02*
G01*
X135355732Y-76834472D01*
X135478735Y-76916660D01*
X135583340Y-77021265D01*
X135665528Y-77144268D01*
X135722140Y-77280941D01*
X135751000Y-77426033D01*
X135751000Y-77573967D01*
X135722140Y-77719059D01*
X135665528Y-77855732D01*
X135583340Y-77978735D01*
X135478735Y-78083340D01*
X135355732Y-78165528D01*
X135355731Y-78165529D01*
X135355730Y-78165529D01*
X135219059Y-78222140D01*
X135073968Y-78251000D01*
X134926032Y-78251000D01*
X134780941Y-78222140D01*
X134644270Y-78165529D01*
X134644269Y-78165529D01*
X134644268Y-78165528D01*
X134521265Y-78083340D01*
X134416660Y-77978735D01*
X134334472Y-77855732D01*
X134277860Y-77719059D01*
X134249000Y-77573967D01*
X134249000Y-77426033D01*
X134277860Y-77280941D01*
X134334472Y-77144268D01*
X134416660Y-77021265D01*
X134521265Y-76916660D01*
X134644268Y-76834472D01*
X134780941Y-76777860D01*
X134926032Y-76749000D01*
X135073968Y-76749000D01*
X135219059Y-76777860D01*
X135219059Y-76777860D01*
G37*
G36*
X145046823Y-74541313D02*
G01*
X145207242Y-74589976D01*
X145339906Y-74660886D01*
X145355078Y-74668996D01*
X145484659Y-74775341D01*
X145591004Y-74904922D01*
X145591005Y-74904924D01*
X145670024Y-75052758D01*
X145718687Y-75213177D01*
X145735117Y-75380000D01*
X145718687Y-75546823D01*
X145670024Y-75707242D01*
X145653214Y-75738691D01*
X145591004Y-75855078D01*
X145484659Y-75984659D01*
X145355078Y-76091004D01*
X145355076Y-76091005D01*
X145207242Y-76170024D01*
X145046823Y-76218687D01*
X144921804Y-76231000D01*
X144838196Y-76231000D01*
X144713177Y-76218687D01*
X144552758Y-76170024D01*
X144404924Y-76091005D01*
X144404922Y-76091004D01*
X144275341Y-75984659D01*
X144168996Y-75855078D01*
X144106786Y-75738691D01*
X144089976Y-75707242D01*
X144041313Y-75546823D01*
X144024883Y-75380000D01*
X144041313Y-75213177D01*
X144089976Y-75052758D01*
X144168995Y-74904924D01*
X144168996Y-74904922D01*
X144275341Y-74775341D01*
X144404922Y-74668996D01*
X144420094Y-74660886D01*
X144552758Y-74589976D01*
X144713177Y-74541313D01*
X144838196Y-74529000D01*
X144921804Y-74529000D01*
X145046823Y-74541313D01*
X145046823Y-74541313D01*
G37*
G36*
X152666823Y-74541313D02*
G01*
X152827242Y-74589976D01*
X152959906Y-74660886D01*
X152975078Y-74668996D01*
X153104659Y-74775341D01*
X153211004Y-74904922D01*
X153211005Y-74904924D01*
X153290024Y-75052758D01*
X153338687Y-75213177D01*
X153355117Y-75380000D01*
X153338687Y-75546823D01*
X153290024Y-75707242D01*
X153273214Y-75738691D01*
X153211004Y-75855078D01*
X153104659Y-75984659D01*
X152975078Y-76091004D01*
X152975076Y-76091005D01*
X152827242Y-76170024D01*
X152666823Y-76218687D01*
X152541804Y-76231000D01*
X152458196Y-76231000D01*
X152333177Y-76218687D01*
X152172758Y-76170024D01*
X152024924Y-76091005D01*
X152024922Y-76091004D01*
X151895341Y-75984659D01*
X151788996Y-75855078D01*
X151726786Y-75738691D01*
X151709976Y-75707242D01*
X151661313Y-75546823D01*
X151644883Y-75380000D01*
X151661313Y-75213177D01*
X151709976Y-75052758D01*
X151788995Y-74904924D01*
X151788996Y-74904922D01*
X151895341Y-74775341D01*
X152024922Y-74668996D01*
X152040094Y-74660886D01*
X152172758Y-74589976D01*
X152333177Y-74541313D01*
X152458196Y-74529000D01*
X152541804Y-74529000D01*
X152666823Y-74541313D01*
X152666823Y-74541313D01*
G37*
G36*
X129777395Y-74085546D02*
G01*
X129950466Y-74157234D01*
X129950467Y-74157235D01*
X130106227Y-74261310D01*
X130238690Y-74393773D01*
X130238691Y-74393775D01*
X130342766Y-74549534D01*
X130414454Y-74722605D01*
X130451000Y-74906333D01*
X130451000Y-75093667D01*
X130414454Y-75277395D01*
X130342766Y-75450466D01*
X130342765Y-75450467D01*
X130238690Y-75606227D01*
X130106227Y-75738690D01*
X130027818Y-75791081D01*
X129950466Y-75842766D01*
X129777395Y-75914454D01*
X129593667Y-75951000D01*
X129406333Y-75951000D01*
X129222605Y-75914454D01*
X129049534Y-75842766D01*
X128972182Y-75791081D01*
X128893773Y-75738690D01*
X128761310Y-75606227D01*
X128657235Y-75450467D01*
X128657234Y-75450466D01*
X128585546Y-75277395D01*
X128549000Y-75093667D01*
X128549000Y-74906333D01*
X128585546Y-74722605D01*
X128657234Y-74549534D01*
X128761309Y-74393775D01*
X128761310Y-74393773D01*
X128893773Y-74261310D01*
X129049533Y-74157235D01*
X129049534Y-74157234D01*
X129222605Y-74085546D01*
X129406333Y-74049000D01*
X129593667Y-74049000D01*
X129777395Y-74085546D01*
X129777395Y-74085546D01*
G37*
G36*
X145046823Y-72001313D02*
G01*
X145207242Y-72049976D01*
X145339906Y-72120886D01*
X145355078Y-72128996D01*
X145484659Y-72235341D01*
X145591004Y-72364922D01*
X145591005Y-72364924D01*
X145670024Y-72512758D01*
X145718687Y-72673177D01*
X145735117Y-72840000D01*
X145718687Y-73006823D01*
X145670024Y-73167242D01*
X145599114Y-73299906D01*
X145591004Y-73315078D01*
X145484659Y-73444659D01*
X145355078Y-73551004D01*
X145355076Y-73551005D01*
X145207242Y-73630024D01*
X145046823Y-73678687D01*
X144921804Y-73691000D01*
X144838196Y-73691000D01*
X144713177Y-73678687D01*
X144552758Y-73630024D01*
X144404924Y-73551005D01*
X144404922Y-73551004D01*
X144275341Y-73444659D01*
X144168996Y-73315078D01*
X144160886Y-73299906D01*
X144089976Y-73167242D01*
X144041313Y-73006823D01*
X144024883Y-72840000D01*
X144041313Y-72673177D01*
X144089976Y-72512758D01*
X144168995Y-72364924D01*
X144168996Y-72364922D01*
X144275341Y-72235341D01*
X144404922Y-72128996D01*
X144420094Y-72120886D01*
X144552758Y-72049976D01*
X144713177Y-72001313D01*
X144838196Y-71989000D01*
X144921804Y-71989000D01*
X145046823Y-72001313D01*
X145046823Y-72001313D01*
G37*
G36*
X152666823Y-72001313D02*
G01*
X152827242Y-72049976D01*
X152959906Y-72120886D01*
X152975078Y-72128996D01*
X153104659Y-72235341D01*
X153211004Y-72364922D01*
X153211005Y-72364924D01*
X153290024Y-72512758D01*
X153338687Y-72673177D01*
X153355117Y-72840000D01*
X153338687Y-73006823D01*
X153290024Y-73167242D01*
X153219114Y-73299906D01*
X153211004Y-73315078D01*
X153104659Y-73444659D01*
X152975078Y-73551004D01*
X152975076Y-73551005D01*
X152827242Y-73630024D01*
X152666823Y-73678687D01*
X152541804Y-73691000D01*
X152458196Y-73691000D01*
X152333177Y-73678687D01*
X152172758Y-73630024D01*
X152024924Y-73551005D01*
X152024922Y-73551004D01*
X151895341Y-73444659D01*
X151788996Y-73315078D01*
X151780886Y-73299906D01*
X151709976Y-73167242D01*
X151661313Y-73006823D01*
X151644883Y-72840000D01*
X151661313Y-72673177D01*
X151709976Y-72512758D01*
X151788995Y-72364924D01*
X151788996Y-72364922D01*
X151895341Y-72235341D01*
X152024922Y-72128996D01*
X152040094Y-72120886D01*
X152172758Y-72049976D01*
X152333177Y-72001313D01*
X152458196Y-71989000D01*
X152541804Y-71989000D01*
X152666823Y-72001313D01*
X152666823Y-72001313D01*
G37*
G36*
X129777395Y-71585546D02*
G01*
X129950466Y-71657234D01*
X130027818Y-71708919D01*
X130106227Y-71761310D01*
X130238690Y-71893773D01*
X130238691Y-71893775D01*
X130342766Y-72049534D01*
X130414454Y-72222605D01*
X130451000Y-72406333D01*
X130451000Y-72593667D01*
X130414454Y-72777395D01*
X130342766Y-72950466D01*
X130342765Y-72950467D01*
X130238690Y-73106227D01*
X130106227Y-73238690D01*
X130027818Y-73291081D01*
X129950466Y-73342766D01*
X129777395Y-73414454D01*
X129593667Y-73451000D01*
X129406333Y-73451000D01*
X129222605Y-73414454D01*
X129049534Y-73342766D01*
X128972182Y-73291081D01*
X128893773Y-73238690D01*
X128761310Y-73106227D01*
X128657235Y-72950467D01*
X128657234Y-72950466D01*
X128585546Y-72777395D01*
X128549000Y-72593667D01*
X128549000Y-72406333D01*
X128585546Y-72222605D01*
X128657234Y-72049534D01*
X128761309Y-71893775D01*
X128761310Y-71893773D01*
X128893773Y-71761310D01*
X128972182Y-71708919D01*
X129049534Y-71657234D01*
X129222605Y-71585546D01*
X129406333Y-71549000D01*
X129593667Y-71549000D01*
X129777395Y-71585546D01*
X129777395Y-71585546D01*
G37*
G36*
X135073665Y-71672622D02*
G01*
X135147222Y-71679867D01*
X135288786Y-71722810D01*
X135419252Y-71792546D01*
X135449040Y-71816992D01*
X135533607Y-71886393D01*
X135603008Y-71970960D01*
X135627454Y-72000748D01*
X135653530Y-72049533D01*
X135696005Y-72128996D01*
X135697190Y-72131214D01*
X135740133Y-72272778D01*
X135754633Y-72420000D01*
X135740133Y-72567222D01*
X135697190Y-72708786D01*
X135627454Y-72839252D01*
X135626840Y-72840000D01*
X135533607Y-72953607D01*
X135468761Y-73006823D01*
X135419252Y-73047454D01*
X135288786Y-73117190D01*
X135147222Y-73160133D01*
X135075073Y-73167239D01*
X135036888Y-73171000D01*
X134963112Y-73171000D01*
X134924927Y-73167239D01*
X134852778Y-73160133D01*
X134711214Y-73117190D01*
X134580748Y-73047454D01*
X134531239Y-73006823D01*
X134466393Y-72953607D01*
X134373160Y-72840000D01*
X134372546Y-72839252D01*
X134302810Y-72708786D01*
X134259867Y-72567222D01*
X134245367Y-72420000D01*
X134259867Y-72272778D01*
X134302810Y-72131214D01*
X134303996Y-72128996D01*
X134346470Y-72049533D01*
X134372546Y-72000748D01*
X134396992Y-71970960D01*
X134466393Y-71886393D01*
X134550960Y-71816992D01*
X134580748Y-71792546D01*
X134711214Y-71722810D01*
X134852778Y-71679867D01*
X134926335Y-71672622D01*
X134963112Y-71669000D01*
X135036888Y-71669000D01*
X135073665Y-71672622D01*
X135073665Y-71672622D01*
G37*
G36*
X145731000Y-71151000D02*
G01*
X144029000Y-71151000D01*
X144029000Y-69449000D01*
X145731000Y-69449000D01*
X145731000Y-71151000D01*
X145731000Y-71151000D01*
G37*
G36*
X152666823Y-69461313D02*
G01*
X152827242Y-69509976D01*
X152959906Y-69580886D01*
X152975078Y-69588996D01*
X153104659Y-69695341D01*
X153211004Y-69824922D01*
X153211005Y-69824924D01*
X153290024Y-69972758D01*
X153338687Y-70133177D01*
X153355117Y-70300000D01*
X153338687Y-70466823D01*
X153338686Y-70466825D01*
X153296400Y-70606225D01*
X153290024Y-70627242D01*
X153230454Y-70738690D01*
X153211004Y-70775078D01*
X153104659Y-70904659D01*
X152975078Y-71011004D01*
X152975076Y-71011005D01*
X152827242Y-71090024D01*
X152666823Y-71138687D01*
X152541804Y-71151000D01*
X152458196Y-71151000D01*
X152333177Y-71138687D01*
X152172758Y-71090024D01*
X152024924Y-71011005D01*
X152024922Y-71011004D01*
X151895341Y-70904659D01*
X151788996Y-70775078D01*
X151769546Y-70738690D01*
X151709976Y-70627242D01*
X151703601Y-70606225D01*
X151661314Y-70466825D01*
X151661313Y-70466823D01*
X151644883Y-70300000D01*
X151661313Y-70133177D01*
X151709976Y-69972758D01*
X151788995Y-69824924D01*
X151788996Y-69824922D01*
X151895341Y-69695341D01*
X152024922Y-69588996D01*
X152040094Y-69580886D01*
X152172758Y-69509976D01*
X152333177Y-69461313D01*
X152458196Y-69449000D01*
X152541804Y-69449000D01*
X152666823Y-69461313D01*
X152666823Y-69461313D01*
G37*
G36*
X129777395Y-69085546D02*
G01*
X129950466Y-69157234D01*
X129950467Y-69157235D01*
X130106227Y-69261310D01*
X130238690Y-69393773D01*
X130238691Y-69393775D01*
X130342766Y-69549534D01*
X130414454Y-69722605D01*
X130451000Y-69906333D01*
X130451000Y-70093667D01*
X130414454Y-70277395D01*
X130342766Y-70450466D01*
X130331835Y-70466825D01*
X130238690Y-70606227D01*
X130106227Y-70738690D01*
X130051771Y-70775076D01*
X129950466Y-70842766D01*
X129777395Y-70914454D01*
X129593667Y-70951000D01*
X129406333Y-70951000D01*
X129222605Y-70914454D01*
X129049534Y-70842766D01*
X128948229Y-70775076D01*
X128893773Y-70738690D01*
X128761310Y-70606227D01*
X128668165Y-70466825D01*
X128657234Y-70450466D01*
X128585546Y-70277395D01*
X128549000Y-70093667D01*
X128549000Y-69906333D01*
X128585546Y-69722605D01*
X128657234Y-69549534D01*
X128761309Y-69393775D01*
X128761310Y-69393773D01*
X128893773Y-69261310D01*
X129049533Y-69157235D01*
X129049534Y-69157234D01*
X129222605Y-69085546D01*
X129406333Y-69049000D01*
X129593667Y-69049000D01*
X129777395Y-69085546D01*
X129777395Y-69085546D01*
G37*
G36*
X150248228Y-66181703D02*
G01*
X150403100Y-66245853D01*
X150542481Y-66338985D01*
X150661015Y-66457519D01*
X150754147Y-66596900D01*
X150818297Y-66751772D01*
X150851000Y-66916184D01*
X150851000Y-67083816D01*
X150818297Y-67248228D01*
X150754147Y-67403100D01*
X150661015Y-67542481D01*
X150542481Y-67661015D01*
X150403100Y-67754147D01*
X150248228Y-67818297D01*
X150083816Y-67851000D01*
X149916184Y-67851000D01*
X149751772Y-67818297D01*
X149596900Y-67754147D01*
X149457519Y-67661015D01*
X149338985Y-67542481D01*
X149245853Y-67403100D01*
X149181703Y-67248228D01*
X149149000Y-67083816D01*
X149149000Y-66916184D01*
X149181703Y-66751772D01*
X149245853Y-66596900D01*
X149338985Y-66457519D01*
X149457519Y-66338985D01*
X149596900Y-66245853D01*
X149751772Y-66181703D01*
X149916184Y-66149000D01*
X150083816Y-66149000D01*
X150248228Y-66181703D01*
X150248228Y-66181703D01*
G37*
G36*
X152748228Y-66181703D02*
G01*
X152903100Y-66245853D01*
X153042481Y-66338985D01*
X153161015Y-66457519D01*
X153254147Y-66596900D01*
X153318297Y-66751772D01*
X153351000Y-66916184D01*
X153351000Y-67083816D01*
X153318297Y-67248228D01*
X153254147Y-67403100D01*
X153161015Y-67542481D01*
X153042481Y-67661015D01*
X152903100Y-67754147D01*
X152748228Y-67818297D01*
X152583816Y-67851000D01*
X152416184Y-67851000D01*
X152251772Y-67818297D01*
X152096900Y-67754147D01*
X151957519Y-67661015D01*
X151838985Y-67542481D01*
X151745853Y-67403100D01*
X151681703Y-67248228D01*
X151649000Y-67083816D01*
X151649000Y-66916184D01*
X151681703Y-66751772D01*
X151745853Y-66596900D01*
X151838985Y-66457519D01*
X151957519Y-66338985D01*
X152096900Y-66245853D01*
X152251772Y-66181703D01*
X152416184Y-66149000D01*
X152583816Y-66149000D01*
X152748228Y-66181703D01*
X152748228Y-66181703D01*
G37*
G36*
X127277395Y-64625546D02*
G01*
X127450466Y-64697234D01*
X127450467Y-64697235D01*
X127606227Y-64801310D01*
X127738690Y-64933773D01*
X127738691Y-64933775D01*
X127842766Y-65089534D01*
X127914454Y-65262605D01*
X127951000Y-65446333D01*
X127951000Y-65633667D01*
X127914454Y-65817395D01*
X127842766Y-65990466D01*
X127842765Y-65990467D01*
X127738690Y-66146227D01*
X127606227Y-66278690D01*
X127527818Y-66331081D01*
X127450466Y-66382766D01*
X127277395Y-66454454D01*
X127093667Y-66491000D01*
X126906333Y-66491000D01*
X126722605Y-66454454D01*
X126549534Y-66382766D01*
X126472182Y-66331081D01*
X126393773Y-66278690D01*
X126261310Y-66146227D01*
X126157235Y-65990467D01*
X126157234Y-65990466D01*
X126085546Y-65817395D01*
X126049000Y-65633667D01*
X126049000Y-65446333D01*
X126085546Y-65262605D01*
X126157234Y-65089534D01*
X126261309Y-64933775D01*
X126261310Y-64933773D01*
X126393773Y-64801310D01*
X126549533Y-64697235D01*
X126549534Y-64697234D01*
X126722605Y-64625546D01*
X126906333Y-64589000D01*
X127093667Y-64589000D01*
X127277395Y-64625546D01*
X127277395Y-64625546D01*
G37*
G36*
X127951000Y-63951000D02*
G01*
X126049000Y-63951000D01*
X126049000Y-62049000D01*
X127951000Y-62049000D01*
X127951000Y-63951000D01*
X127951000Y-63951000D01*
G37*
G36*
X135299059Y-62277860D02*
G01*
X135359294Y-62302810D01*
X135435732Y-62334472D01*
X135558735Y-62416660D01*
X135663340Y-62521265D01*
X135745528Y-62644268D01*
X135802140Y-62780941D01*
X135831000Y-62926033D01*
X135831000Y-63073967D01*
X135802140Y-63219059D01*
X135745528Y-63355732D01*
X135663340Y-63478735D01*
X135558735Y-63583340D01*
X135435732Y-63665528D01*
X135435731Y-63665529D01*
X135435730Y-63665529D01*
X135299059Y-63722140D01*
X135153968Y-63751000D01*
X135006032Y-63751000D01*
X134860941Y-63722140D01*
X134724270Y-63665529D01*
X134724269Y-63665529D01*
X134724268Y-63665528D01*
X134601265Y-63583340D01*
X134496660Y-63478735D01*
X134414472Y-63355732D01*
X134357860Y-63219059D01*
X134329000Y-63073967D01*
X134329000Y-62926033D01*
X134357860Y-62780941D01*
X134414472Y-62644268D01*
X134496660Y-62521265D01*
X134601265Y-62416660D01*
X134724268Y-62334472D01*
X134800707Y-62302810D01*
X134860941Y-62277860D01*
X135006032Y-62249000D01*
X135153968Y-62249000D01*
X135299059Y-62277860D01*
X135299059Y-62277860D01*
G37*
G36*
X130073665Y-62252622D02*
G01*
X130147222Y-62259867D01*
X130288786Y-62302810D01*
X130419252Y-62372546D01*
X130449040Y-62396992D01*
X130533607Y-62466393D01*
X130603008Y-62550960D01*
X130627454Y-62580748D01*
X130697190Y-62711214D01*
X130740133Y-62852778D01*
X130754633Y-63000000D01*
X130740133Y-63147222D01*
X130697190Y-63288786D01*
X130627454Y-63419252D01*
X130603008Y-63449040D01*
X130533607Y-63533607D01*
X130473004Y-63583341D01*
X130419252Y-63627454D01*
X130288786Y-63697190D01*
X130147222Y-63740133D01*
X130073665Y-63747378D01*
X130036888Y-63751000D01*
X129963112Y-63751000D01*
X129926335Y-63747378D01*
X129852778Y-63740133D01*
X129711214Y-63697190D01*
X129580748Y-63627454D01*
X129526996Y-63583341D01*
X129466393Y-63533607D01*
X129396992Y-63449040D01*
X129372546Y-63419252D01*
X129302810Y-63288786D01*
X129259867Y-63147222D01*
X129245367Y-63000000D01*
X129259867Y-62852778D01*
X129302810Y-62711214D01*
X129372546Y-62580748D01*
X129396992Y-62550960D01*
X129466393Y-62466393D01*
X129550960Y-62396992D01*
X129580748Y-62372546D01*
X129711214Y-62302810D01*
X129852778Y-62259867D01*
X129926335Y-62252622D01*
X129963112Y-62249000D01*
X130036888Y-62249000D01*
X130073665Y-62252622D01*
X130073665Y-62252622D01*
G37*
G36*
X150152915Y-58707334D02*
G01*
X150261491Y-58740271D01*
X150261494Y-58740272D01*
X150297600Y-58759571D01*
X150361556Y-58793756D01*
X150449264Y-58865736D01*
X150521244Y-58953443D01*
X150555429Y-59017399D01*
X150574728Y-59053505D01*
X150574729Y-59053508D01*
X150607666Y-59162084D01*
X150616000Y-59246702D01*
X150616000Y-59753297D01*
X150607666Y-59837916D01*
X150575252Y-59944767D01*
X150574728Y-59946495D01*
X150564761Y-59965141D01*
X150521244Y-60046557D01*
X150449264Y-60134264D01*
X150361557Y-60206244D01*
X150297601Y-60240429D01*
X150261495Y-60259728D01*
X150261492Y-60259729D01*
X150152916Y-60292666D01*
X150040000Y-60303787D01*
X149927085Y-60292666D01*
X149818509Y-60259729D01*
X149818506Y-60259728D01*
X149782400Y-60240429D01*
X149718444Y-60206244D01*
X149630737Y-60134264D01*
X149558757Y-60046557D01*
X149515239Y-59965141D01*
X149501625Y-59944766D01*
X149484298Y-59927439D01*
X149463924Y-59913826D01*
X149441285Y-59904448D01*
X149417252Y-59899668D01*
X149392748Y-59899668D01*
X149368715Y-59904448D01*
X149346076Y-59913826D01*
X149325701Y-59927440D01*
X149308374Y-59944767D01*
X149294761Y-59965141D01*
X149251244Y-60046557D01*
X149179264Y-60134264D01*
X149091557Y-60206244D01*
X149027601Y-60240429D01*
X148991495Y-60259728D01*
X148991492Y-60259729D01*
X148882916Y-60292666D01*
X148770000Y-60303787D01*
X148657085Y-60292666D01*
X148548509Y-60259729D01*
X148548506Y-60259728D01*
X148512400Y-60240429D01*
X148448444Y-60206244D01*
X148360737Y-60134264D01*
X148297622Y-60057359D01*
X148280297Y-60040034D01*
X148259923Y-60026420D01*
X148237284Y-60017043D01*
X148213250Y-60012263D01*
X148188746Y-60012263D01*
X148164713Y-60017044D01*
X148142074Y-60026421D01*
X148121700Y-60040035D01*
X148104373Y-60057362D01*
X148090759Y-60077736D01*
X148081382Y-60100375D01*
X148076000Y-60136660D01*
X148076000Y-60301000D01*
X146924000Y-60301000D01*
X146924000Y-58699000D01*
X148076000Y-58699000D01*
X148076000Y-58863341D01*
X148078402Y-58887727D01*
X148085515Y-58911176D01*
X148097066Y-58932787D01*
X148112611Y-58951729D01*
X148131553Y-58967274D01*
X148153164Y-58978825D01*
X148176613Y-58985938D01*
X148200999Y-58988340D01*
X148225385Y-58985938D01*
X148248834Y-58978825D01*
X148270445Y-58967274D01*
X148289387Y-58951729D01*
X148297608Y-58942657D01*
X148360736Y-58865736D01*
X148448443Y-58793756D01*
X148512399Y-58759571D01*
X148548505Y-58740272D01*
X148548508Y-58740271D01*
X148657084Y-58707334D01*
X148770000Y-58696213D01*
X148882915Y-58707334D01*
X148991491Y-58740271D01*
X148991494Y-58740272D01*
X149027600Y-58759571D01*
X149091556Y-58793756D01*
X149179264Y-58865736D01*
X149251244Y-58953443D01*
X149294761Y-59034859D01*
X149308375Y-59055234D01*
X149325702Y-59072561D01*
X149346076Y-59086174D01*
X149368715Y-59095552D01*
X149392748Y-59100332D01*
X149417252Y-59100332D01*
X149441285Y-59095552D01*
X149463924Y-59086174D01*
X149484299Y-59072560D01*
X149501626Y-59055233D01*
X149515239Y-59034860D01*
X149558756Y-58953444D01*
X149630736Y-58865736D01*
X149718443Y-58793756D01*
X149782399Y-58759571D01*
X149818505Y-58740272D01*
X149818508Y-58740271D01*
X149927084Y-58707334D01*
X150040000Y-58696213D01*
X150152915Y-58707334D01*
X150152915Y-58707334D01*
G37*
G36*
X129823241Y-53104760D02*
G01*
X130087305Y-53214139D01*
X130324958Y-53372934D01*
X130527066Y-53575042D01*
X130685861Y-53812695D01*
X130795240Y-54076759D01*
X130851000Y-54357088D01*
X130851000Y-54642912D01*
X130795240Y-54923241D01*
X130685861Y-55187305D01*
X130527066Y-55424958D01*
X130324958Y-55627066D01*
X130087305Y-55785861D01*
X129823241Y-55895240D01*
X129542912Y-55951000D01*
X129257088Y-55951000D01*
X128976759Y-55895240D01*
X128712695Y-55785861D01*
X128475042Y-55627066D01*
X128428535Y-55580559D01*
X128409593Y-55565014D01*
X128387982Y-55553463D01*
X128364533Y-55546350D01*
X128340147Y-55543948D01*
X128315761Y-55546350D01*
X128292312Y-55553463D01*
X128270701Y-55565014D01*
X128251759Y-55580559D01*
X128236214Y-55599501D01*
X128224663Y-55621112D01*
X128217550Y-55644561D01*
X128215148Y-55668947D01*
X128217550Y-55693333D01*
X128224663Y-55716782D01*
X128236214Y-55738393D01*
X128285861Y-55812695D01*
X128395240Y-56076759D01*
X128451000Y-56357088D01*
X128451000Y-56642912D01*
X128395240Y-56923241D01*
X128285861Y-57187305D01*
X128127066Y-57424958D01*
X127924958Y-57627066D01*
X127687305Y-57785861D01*
X127423241Y-57895240D01*
X127142912Y-57951000D01*
X126857088Y-57951000D01*
X126576759Y-57895240D01*
X126312695Y-57785861D01*
X126075042Y-57627066D01*
X125872934Y-57424958D01*
X125714139Y-57187305D01*
X125604760Y-56923241D01*
X125549000Y-56642912D01*
X125549000Y-56357088D01*
X125604760Y-56076759D01*
X125714139Y-55812695D01*
X125872934Y-55575042D01*
X126075042Y-55372934D01*
X126312695Y-55214139D01*
X126576759Y-55104760D01*
X126857088Y-55049000D01*
X127142912Y-55049000D01*
X127423241Y-55104760D01*
X127687305Y-55214139D01*
X127924958Y-55372934D01*
X127971465Y-55419441D01*
X127990407Y-55434986D01*
X128012018Y-55446537D01*
X128035467Y-55453650D01*
X128059853Y-55456052D01*
X128084239Y-55453650D01*
X128107688Y-55446537D01*
X128129299Y-55434986D01*
X128148241Y-55419441D01*
X128163786Y-55400499D01*
X128175337Y-55378888D01*
X128182450Y-55355439D01*
X128184852Y-55331053D01*
X128182450Y-55306667D01*
X128175337Y-55283218D01*
X128163786Y-55261607D01*
X128114139Y-55187305D01*
X128004760Y-54923241D01*
X127949000Y-54642912D01*
X127949000Y-54357088D01*
X128004760Y-54076759D01*
X128114139Y-53812695D01*
X128272934Y-53575042D01*
X128475042Y-53372934D01*
X128712695Y-53214139D01*
X128976759Y-53104760D01*
X129257088Y-53049000D01*
X129542912Y-53049000D01*
X129823241Y-53104760D01*
X129823241Y-53104760D01*
G37*
G36*
X135323241Y-53104760D02*
G01*
X135587305Y-53214139D01*
X135824958Y-53372934D01*
X136027066Y-53575042D01*
X136185861Y-53812695D01*
X136295240Y-54076759D01*
X136351000Y-54357088D01*
X136351000Y-54642912D01*
X136295240Y-54923241D01*
X136185861Y-55187305D01*
X136027066Y-55424958D01*
X135824958Y-55627066D01*
X135587305Y-55785861D01*
X135323241Y-55895240D01*
X135042912Y-55951000D01*
X134757088Y-55951000D01*
X134476759Y-55895240D01*
X134212695Y-55785861D01*
X133975042Y-55627066D01*
X133772934Y-55424958D01*
X133614139Y-55187305D01*
X133504760Y-54923241D01*
X133449000Y-54642912D01*
X133449000Y-54357088D01*
X133504760Y-54076759D01*
X133614139Y-53812695D01*
X133772934Y-53575042D01*
X133975042Y-53372934D01*
X134212695Y-53214139D01*
X134476759Y-53104760D01*
X134757088Y-53049000D01*
X135042912Y-53049000D01*
X135323241Y-53104760D01*
X135323241Y-53104760D01*
G37*
G36*
X150152915Y-52207334D02*
G01*
X150261491Y-52240271D01*
X150261494Y-52240272D01*
X150297600Y-52259571D01*
X150361556Y-52293756D01*
X150449264Y-52365736D01*
X150521244Y-52453443D01*
X150555429Y-52517399D01*
X150574728Y-52553505D01*
X150574729Y-52553508D01*
X150607666Y-52662084D01*
X150616000Y-52746702D01*
X150616000Y-53253297D01*
X150607666Y-53337916D01*
X150575252Y-53444767D01*
X150574728Y-53446495D01*
X150564761Y-53465141D01*
X150521244Y-53546557D01*
X150449264Y-53634264D01*
X150361557Y-53706244D01*
X150297601Y-53740429D01*
X150261495Y-53759728D01*
X150261492Y-53759729D01*
X150152916Y-53792666D01*
X150040000Y-53803787D01*
X149927085Y-53792666D01*
X149818509Y-53759729D01*
X149818506Y-53759728D01*
X149782400Y-53740429D01*
X149718444Y-53706244D01*
X149630737Y-53634264D01*
X149558757Y-53546557D01*
X149515239Y-53465141D01*
X149501625Y-53444766D01*
X149484298Y-53427439D01*
X149463924Y-53413826D01*
X149441285Y-53404448D01*
X149417252Y-53399668D01*
X149392748Y-53399668D01*
X149368715Y-53404448D01*
X149346076Y-53413826D01*
X149325701Y-53427440D01*
X149308374Y-53444767D01*
X149294761Y-53465141D01*
X149251244Y-53546557D01*
X149179264Y-53634264D01*
X149091557Y-53706244D01*
X149027601Y-53740429D01*
X148991495Y-53759728D01*
X148991492Y-53759729D01*
X148882916Y-53792666D01*
X148770000Y-53803787D01*
X148657085Y-53792666D01*
X148548509Y-53759729D01*
X148548506Y-53759728D01*
X148512400Y-53740429D01*
X148448444Y-53706244D01*
X148360737Y-53634264D01*
X148297622Y-53557359D01*
X148280297Y-53540034D01*
X148259923Y-53526420D01*
X148237284Y-53517043D01*
X148213250Y-53512263D01*
X148188746Y-53512263D01*
X148164713Y-53517044D01*
X148142074Y-53526421D01*
X148121700Y-53540035D01*
X148104373Y-53557362D01*
X148090759Y-53577736D01*
X148081382Y-53600375D01*
X148076000Y-53636660D01*
X148076000Y-53801000D01*
X146924000Y-53801000D01*
X146924000Y-52199000D01*
X148076000Y-52199000D01*
X148076000Y-52363341D01*
X148078402Y-52387727D01*
X148085515Y-52411176D01*
X148097066Y-52432787D01*
X148112611Y-52451729D01*
X148131553Y-52467274D01*
X148153164Y-52478825D01*
X148176613Y-52485938D01*
X148200999Y-52488340D01*
X148225385Y-52485938D01*
X148248834Y-52478825D01*
X148270445Y-52467274D01*
X148289387Y-52451729D01*
X148297608Y-52442657D01*
X148360736Y-52365736D01*
X148448443Y-52293756D01*
X148512399Y-52259571D01*
X148548505Y-52240272D01*
X148548508Y-52240271D01*
X148657084Y-52207334D01*
X148770000Y-52196213D01*
X148882915Y-52207334D01*
X148991491Y-52240271D01*
X148991494Y-52240272D01*
X149027600Y-52259571D01*
X149091556Y-52293756D01*
X149179264Y-52365736D01*
X149251244Y-52453443D01*
X149294761Y-52534859D01*
X149308375Y-52555234D01*
X149325702Y-52572561D01*
X149346076Y-52586174D01*
X149368715Y-52595552D01*
X149392748Y-52600332D01*
X149417252Y-52600332D01*
X149441285Y-52595552D01*
X149463924Y-52586174D01*
X149484299Y-52572560D01*
X149501626Y-52555233D01*
X149515239Y-52534860D01*
X149558756Y-52453444D01*
X149630736Y-52365736D01*
X149718443Y-52293756D01*
X149782399Y-52259571D01*
X149818505Y-52240272D01*
X149818508Y-52240271D01*
X149927084Y-52207334D01*
X150040000Y-52196213D01*
X150152915Y-52207334D01*
X150152915Y-52207334D01*
G37*
G36*
X129777395Y-47585546D02*
G01*
X129950466Y-47657234D01*
X129950467Y-47657235D01*
X130106227Y-47761310D01*
X130238690Y-47893773D01*
X130281284Y-47957520D01*
X130342766Y-48049534D01*
X130414454Y-48222605D01*
X130451000Y-48406333D01*
X130451000Y-48593667D01*
X130414454Y-48777395D01*
X130342766Y-48950466D01*
X130342765Y-48950467D01*
X130238690Y-49106227D01*
X130106227Y-49238690D01*
X130083092Y-49254148D01*
X129950466Y-49342766D01*
X129777395Y-49414454D01*
X129593667Y-49451000D01*
X129406333Y-49451000D01*
X129222605Y-49414454D01*
X129049534Y-49342766D01*
X128916908Y-49254148D01*
X128893773Y-49238690D01*
X128761310Y-49106227D01*
X128657235Y-48950467D01*
X128657234Y-48950466D01*
X128585546Y-48777395D01*
X128549000Y-48593667D01*
X128549000Y-48406333D01*
X128585546Y-48222605D01*
X128657234Y-48049534D01*
X128718716Y-47957520D01*
X128761310Y-47893773D01*
X128893773Y-47761310D01*
X129049533Y-47657235D01*
X129049534Y-47657234D01*
X129222605Y-47585546D01*
X129406333Y-47549000D01*
X129593667Y-47549000D01*
X129777395Y-47585546D01*
X129777395Y-47585546D01*
G37*
G36*
X133748228Y-47681703D02*
G01*
X133903100Y-47745853D01*
X134042481Y-47838985D01*
X134161015Y-47957519D01*
X134254147Y-48096900D01*
X134318297Y-48251772D01*
X134351000Y-48416184D01*
X134351000Y-48583816D01*
X134318297Y-48748228D01*
X134254147Y-48903100D01*
X134161015Y-49042481D01*
X134042481Y-49161015D01*
X133903100Y-49254147D01*
X133748228Y-49318297D01*
X133583816Y-49351000D01*
X133416184Y-49351000D01*
X133251772Y-49318297D01*
X133096900Y-49254147D01*
X132957519Y-49161015D01*
X132838985Y-49042481D01*
X132745853Y-48903100D01*
X132681703Y-48748228D01*
X132649000Y-48583816D01*
X132649000Y-48416184D01*
X132681703Y-48251772D01*
X132745853Y-48096900D01*
X132838985Y-47957519D01*
X132957519Y-47838985D01*
X133096900Y-47745853D01*
X133251772Y-47681703D01*
X133416184Y-47649000D01*
X133583816Y-47649000D01*
X133748228Y-47681703D01*
X133748228Y-47681703D01*
G37*
G36*
X136248228Y-47681703D02*
G01*
X136403100Y-47745853D01*
X136542481Y-47838985D01*
X136661015Y-47957519D01*
X136754147Y-48096900D01*
X136818297Y-48251772D01*
X136851000Y-48416184D01*
X136851000Y-48583816D01*
X136818297Y-48748228D01*
X136754147Y-48903100D01*
X136661015Y-49042481D01*
X136542481Y-49161015D01*
X136403100Y-49254147D01*
X136248228Y-49318297D01*
X136083816Y-49351000D01*
X135916184Y-49351000D01*
X135751772Y-49318297D01*
X135596900Y-49254147D01*
X135457519Y-49161015D01*
X135338985Y-49042481D01*
X135245853Y-48903100D01*
X135181703Y-48748228D01*
X135149000Y-48583816D01*
X135149000Y-48416184D01*
X135181703Y-48251772D01*
X135245853Y-48096900D01*
X135338985Y-47957519D01*
X135457519Y-47838985D01*
X135596900Y-47745853D01*
X135751772Y-47681703D01*
X135916184Y-47649000D01*
X136083816Y-47649000D01*
X136248228Y-47681703D01*
X136248228Y-47681703D01*
G37*
G36*
X129777395Y-45085546D02*
G01*
X129950466Y-45157234D01*
X129950467Y-45157235D01*
X130106227Y-45261310D01*
X130238690Y-45393773D01*
X130287213Y-45466393D01*
X130342766Y-45549534D01*
X130414454Y-45722605D01*
X130451000Y-45906333D01*
X130451000Y-46093667D01*
X130414454Y-46277395D01*
X130342766Y-46450466D01*
X130323877Y-46478735D01*
X130238690Y-46606227D01*
X130106227Y-46738690D01*
X130027818Y-46791081D01*
X129950466Y-46842766D01*
X129777395Y-46914454D01*
X129593667Y-46951000D01*
X129406333Y-46951000D01*
X129222605Y-46914454D01*
X129049534Y-46842766D01*
X128972182Y-46791081D01*
X128893773Y-46738690D01*
X128761310Y-46606227D01*
X128676123Y-46478735D01*
X128657234Y-46450466D01*
X128585546Y-46277395D01*
X128549000Y-46093667D01*
X128549000Y-45906333D01*
X128585546Y-45722605D01*
X128657234Y-45549534D01*
X128712787Y-45466393D01*
X128761310Y-45393773D01*
X128893773Y-45261310D01*
X129049533Y-45157235D01*
X129049534Y-45157234D01*
X129222605Y-45085546D01*
X129406333Y-45049000D01*
X129593667Y-45049000D01*
X129777395Y-45085546D01*
X129777395Y-45085546D01*
G37*
G36*
X138653665Y-45252622D02*
G01*
X138727222Y-45259867D01*
X138868786Y-45302810D01*
X138999252Y-45372546D01*
X139029040Y-45396992D01*
X139113607Y-45466393D01*
X139181837Y-45549534D01*
X139207454Y-45580748D01*
X139277190Y-45711214D01*
X139320133Y-45852778D01*
X139334633Y-46000000D01*
X139320133Y-46147222D01*
X139277190Y-46288786D01*
X139207454Y-46419252D01*
X139183008Y-46449040D01*
X139113607Y-46533607D01*
X139053004Y-46583341D01*
X138999252Y-46627454D01*
X138868786Y-46697190D01*
X138727222Y-46740133D01*
X138653665Y-46747378D01*
X138616888Y-46751000D01*
X138543112Y-46751000D01*
X138506335Y-46747378D01*
X138432778Y-46740133D01*
X138291214Y-46697190D01*
X138160748Y-46627454D01*
X138106996Y-46583341D01*
X138046393Y-46533607D01*
X137976992Y-46449040D01*
X137952546Y-46419252D01*
X137882810Y-46288786D01*
X137839867Y-46147222D01*
X137825367Y-46000000D01*
X137839867Y-45852778D01*
X137882810Y-45711214D01*
X137952546Y-45580748D01*
X137978163Y-45549534D01*
X138046393Y-45466393D01*
X138130960Y-45396992D01*
X138160748Y-45372546D01*
X138291214Y-45302810D01*
X138432778Y-45259867D01*
X138506335Y-45252622D01*
X138543112Y-45249000D01*
X138616888Y-45249000D01*
X138653665Y-45252622D01*
X138653665Y-45252622D01*
G37*
G36*
X133719059Y-45277860D02*
G01*
X133779294Y-45302810D01*
X133855732Y-45334472D01*
X133978735Y-45416660D01*
X134083340Y-45521265D01*
X134165528Y-45644268D01*
X134222140Y-45780941D01*
X134251000Y-45926033D01*
X134251000Y-46073967D01*
X134222140Y-46219059D01*
X134165528Y-46355732D01*
X134083340Y-46478735D01*
X133978735Y-46583340D01*
X133855732Y-46665528D01*
X133855731Y-46665529D01*
X133855730Y-46665529D01*
X133719059Y-46722140D01*
X133573968Y-46751000D01*
X133426032Y-46751000D01*
X133280941Y-46722140D01*
X133144270Y-46665529D01*
X133144269Y-46665529D01*
X133144268Y-46665528D01*
X133021265Y-46583340D01*
X132916660Y-46478735D01*
X132834472Y-46355732D01*
X132777860Y-46219059D01*
X132749000Y-46073967D01*
X132749000Y-45926033D01*
X132777860Y-45780941D01*
X132834472Y-45644268D01*
X132916660Y-45521265D01*
X133021265Y-45416660D01*
X133144268Y-45334472D01*
X133220707Y-45302810D01*
X133280941Y-45277860D01*
X133426032Y-45249000D01*
X133573968Y-45249000D01*
X133719059Y-45277860D01*
X133719059Y-45277860D01*
G37*
G36*
X129777395Y-42585546D02*
G01*
X129950466Y-42657234D01*
X129950467Y-42657235D01*
X130106227Y-42761310D01*
X130238690Y-42893773D01*
X130281284Y-42957520D01*
X130342766Y-43049534D01*
X130414454Y-43222605D01*
X130451000Y-43406333D01*
X130451000Y-43593667D01*
X130414454Y-43777395D01*
X130342766Y-43950466D01*
X130323877Y-43978735D01*
X130238690Y-44106227D01*
X130106227Y-44238690D01*
X130083092Y-44254148D01*
X129950466Y-44342766D01*
X129777395Y-44414454D01*
X129593667Y-44451000D01*
X129406333Y-44451000D01*
X129222605Y-44414454D01*
X129049534Y-44342766D01*
X128916908Y-44254148D01*
X128893773Y-44238690D01*
X128761310Y-44106227D01*
X128676123Y-43978735D01*
X128657234Y-43950466D01*
X128585546Y-43777395D01*
X128549000Y-43593667D01*
X128549000Y-43406333D01*
X128585546Y-43222605D01*
X128657234Y-43049534D01*
X128718716Y-42957520D01*
X128761310Y-42893773D01*
X128893773Y-42761310D01*
X129049533Y-42657235D01*
X129049534Y-42657234D01*
X129222605Y-42585546D01*
X129406333Y-42549000D01*
X129593667Y-42549000D01*
X129777395Y-42585546D01*
X129777395Y-42585546D01*
G37*
G36*
X136248228Y-42681703D02*
G01*
X136403100Y-42745853D01*
X136542481Y-42838985D01*
X136661015Y-42957519D01*
X136754147Y-43096900D01*
X136818297Y-43251772D01*
X136851000Y-43416184D01*
X136851000Y-43583816D01*
X136818297Y-43748228D01*
X136754147Y-43903100D01*
X136661015Y-44042481D01*
X136542481Y-44161015D01*
X136403100Y-44254147D01*
X136248228Y-44318297D01*
X136083816Y-44351000D01*
X135916184Y-44351000D01*
X135751772Y-44318297D01*
X135596900Y-44254147D01*
X135457519Y-44161015D01*
X135338985Y-44042481D01*
X135245853Y-43903100D01*
X135181703Y-43748228D01*
X135149000Y-43583816D01*
X135149000Y-43416184D01*
X135181703Y-43251772D01*
X135245853Y-43096900D01*
X135338985Y-42957519D01*
X135457519Y-42838985D01*
X135596900Y-42745853D01*
X135751772Y-42681703D01*
X135916184Y-42649000D01*
X136083816Y-42649000D01*
X136248228Y-42681703D01*
X136248228Y-42681703D01*
G37*
G36*
X133748228Y-42681703D02*
G01*
X133903100Y-42745853D01*
X134042481Y-42838985D01*
X134161015Y-42957519D01*
X134254147Y-43096900D01*
X134318297Y-43251772D01*
X134351000Y-43416184D01*
X134351000Y-43583816D01*
X134318297Y-43748228D01*
X134254147Y-43903100D01*
X134161015Y-44042481D01*
X134042481Y-44161015D01*
X133903100Y-44254147D01*
X133748228Y-44318297D01*
X133583816Y-44351000D01*
X133416184Y-44351000D01*
X133251772Y-44318297D01*
X133096900Y-44254147D01*
X132957519Y-44161015D01*
X132838985Y-44042481D01*
X132745853Y-43903100D01*
X132681703Y-43748228D01*
X132649000Y-43583816D01*
X132649000Y-43416184D01*
X132681703Y-43251772D01*
X132745853Y-43096900D01*
X132838985Y-42957519D01*
X132957519Y-42838985D01*
X133096900Y-42745853D01*
X133251772Y-42681703D01*
X133416184Y-42649000D01*
X133583816Y-42649000D01*
X133748228Y-42681703D01*
X133748228Y-42681703D01*
G37*
G36*
X143573665Y-42752622D02*
G01*
X143647222Y-42759867D01*
X143788786Y-42802810D01*
X143919252Y-42872546D01*
X143949040Y-42896992D01*
X144033607Y-42966393D01*
X144101837Y-43049534D01*
X144127454Y-43080748D01*
X144197190Y-43211214D01*
X144240133Y-43352778D01*
X144254633Y-43500000D01*
X144240133Y-43647222D01*
X144197190Y-43788786D01*
X144127454Y-43919252D01*
X144103008Y-43949040D01*
X144033607Y-44033607D01*
X143973004Y-44083341D01*
X143919252Y-44127454D01*
X143788786Y-44197190D01*
X143647222Y-44240133D01*
X143573665Y-44247378D01*
X143536888Y-44251000D01*
X143463112Y-44251000D01*
X143426335Y-44247378D01*
X143352778Y-44240133D01*
X143211214Y-44197190D01*
X143080748Y-44127454D01*
X143026996Y-44083341D01*
X142966393Y-44033607D01*
X142896992Y-43949040D01*
X142872546Y-43919252D01*
X142802810Y-43788786D01*
X142759867Y-43647222D01*
X142745367Y-43500000D01*
X142759867Y-43352778D01*
X142802810Y-43211214D01*
X142872546Y-43080748D01*
X142898163Y-43049534D01*
X142966393Y-42966393D01*
X143050960Y-42896992D01*
X143080748Y-42872546D01*
X143211214Y-42802810D01*
X143352778Y-42759867D01*
X143426335Y-42752622D01*
X143463112Y-42749000D01*
X143536888Y-42749000D01*
X143573665Y-42752622D01*
X143573665Y-42752622D01*
G37*
G36*
X138639059Y-42777860D02*
G01*
X138699294Y-42802810D01*
X138775732Y-42834472D01*
X138898735Y-42916660D01*
X139003340Y-43021265D01*
X139085528Y-43144268D01*
X139142140Y-43280941D01*
X139171000Y-43426033D01*
X139171000Y-43573967D01*
X139142140Y-43719059D01*
X139085528Y-43855732D01*
X139003340Y-43978735D01*
X138898735Y-44083340D01*
X138775732Y-44165528D01*
X138775731Y-44165529D01*
X138775730Y-44165529D01*
X138639059Y-44222140D01*
X138493968Y-44251000D01*
X138346032Y-44251000D01*
X138200941Y-44222140D01*
X138064270Y-44165529D01*
X138064269Y-44165529D01*
X138064268Y-44165528D01*
X137941265Y-44083340D01*
X137836660Y-43978735D01*
X137754472Y-43855732D01*
X137697860Y-43719059D01*
X137669000Y-43573967D01*
X137669000Y-43426033D01*
X137697860Y-43280941D01*
X137754472Y-43144268D01*
X137836660Y-43021265D01*
X137941265Y-42916660D01*
X138064268Y-42834472D01*
X138140707Y-42802810D01*
X138200941Y-42777860D01*
X138346032Y-42749000D01*
X138493968Y-42749000D01*
X138639059Y-42777860D01*
X138639059Y-42777860D01*
G37*
M02*
